<svg fill="none" height="602" viewBox="0 0 828 602" width="828" xmlns="http://www.w3.org/2000/svg" xmlns:xlink="http://www.w3.org/1999/xlink"><linearGradient id="a"><stop offset="0" stop-color="#4d5eee"/><stop offset="1" stop-color="#88e0fb"/></linearGradient><linearGradient id="b" gradientUnits="userSpaceOnUse" x1="736.598" x2="736.598" xlink:href="#a" y1="394.86" y2="480.072"/><linearGradient id="c" gradientUnits="userSpaceOnUse" x1="749.062" x2="749.062" xlink:href="#a" y1="394.86" y2="480.074"/><linearGradient id="d" gradientUnits="userSpaceOnUse" x1="708.423" x2="708.423" xlink:href="#a" y1="394.86" y2="480.072"/><linearGradient id="e" gradientUnits="userSpaceOnUse" x1="687.853" x2="687.853" xlink:href="#a" y1="394.86" y2="480.073"/><linearGradient id="f" gradientUnits="userSpaceOnUse" x1="116.893" x2="116.893" xlink:href="#a" y1="407.421" y2="510.831"/><linearGradient id="g" gradientUnits="userSpaceOnUse" x1="145.529" x2="145.529" xlink:href="#a" y1="407.421" y2="510.831"/><linearGradient id="h"><stop offset="0" stop-color="#3f49dc"/><stop offset="1" stop-color="#272ca3"/></linearGradient><linearGradient id="i" gradientUnits="userSpaceOnUse" x1="633.516" x2="497.096" xlink:href="#h" y1="123.506" y2="317.04"/><linearGradient id="j" gradientUnits="userSpaceOnUse" x1="425.553" x2="483.535" xlink:href="#h" y1="378.677" y2="433.437"/><path d="m87.3694 295.564c-6 2.7-11.4 5.5-15.4 8.5-8.2 6-14.8 17-5.4 24.6 25.2 20.3 44.5996-29.9 73.6996-58.8-3.8 3.4-27.1 15-33.7 17.7-6.5996 2.7-13.1996 5.3-19.1996 8z" fill="#7aba8a"/><path d="m99.9696 337.264c-6.8 1.2-13.1 3.6-17.9 7.9-7.2 7.1-14.1 22-6 24.3 8 3.5 12.6-3.5 18.4-6.9 9.2004-8 18.4004-17.2 31.0004-19.7 5.2-1.6 9.8-2.3 13.1-1.3-5-2-11-3.5-17.4-4.4-7-1-14.3-1.1-21.2004.1z" fill="#7aba8a"/><path d="m139.87 342.164c-.4-.2-.9-.4-1.4-.5.5.2 1 .3 1.4.5z" fill="#7aba8a"/><path d="m43.8696 353.464c-4.2-1.4-15.8999-1.5-23.3999 2.2-16.50005 8-21.50003 20.9-20.300034 31.7 21.800034-21.7 48.299934.3 55.199934-10.1 6.9-8 1.6-19.3-11.5-23.8z" fill="#7aba8a"/><path d="m105.97 378.764c-12.6003 3.4-29.9003 18.4-20.7003 29.9s16.1003-9.2 23.7003-17.8c7.3-7.8 16-13.7 25.1-9.2-8.6-5.2-18.9-5.2-28.1-2.9z" fill="#7aba8a"/><path d="m56.7697 417.864c-3.7-2.3-8.5-3-14-2.1-11 1.8-15.6 7-17.3 17.1 5.8-4 11.4-1.7 16.9 1.5s11.2 7.6 16.4 6.1c11-3.1 8.9-15.7-2-22.6z" fill="#7aba8a"/><path d="m95.5697 446.564c0 5.7 8.0003 5.7 12.6003 1.1 5.8-5.7 5.8-13.8 10-20.3 4.6-10.1 8.4-19 10-18.6-22.2-5.9-33.7003 20.6-32.6003 37.8z" fill="#7aba8a"/><path d="m63.2695 464.564c-5.3 1.9-10.1 2.5-15.5 2.9-18.8 1.4-16.5 19.1-16.5 19.1s4.0001-7.5 14.9001-3.2c10.7 4.2 25.8 4 30.3-8.6 3.1-8.8-6.2001-12.8-13.2001-10.2z" fill="#7aba8a"/><path d="m115.67 342.364c-4.7.5-9.1.6-13.6 2.5-12.2004 5.1-32.9004 21.1-28.2004 64 0 0-4.0999-16.3-4.6999-22.8-.6-6.4-1.4-12.9-1.9-19.4-1.1-13-2.9-24.5.9-37.3 1.8-6.9 18.7-23.3 26.3-27-9.2 2-24.6001 17.5-27.9001 26.3-5 13.4-1.6 36.2.3 51.7.6 5.2 1.4001 13.5 2.3001 18.7-3.5-2.9-22.2001-54.6-44.8001-34.2 17.7-13.9 33.2001 19.8 36.1001 24.6 11.3 18.4 26.3 58.5 29.7 80.3-9.4-14.3-24.4001-31.4-32.1001-38.6-4.6-4.8-9.4999-7-18.7999-8.8 5.5 2 10.8999 5 16.0999 8.7 14.9 10.8 35 46.3 35 46.3s-28.0999-10.2-39.5999-1c10.3-6.9 31.4-1.9 38.4 4.6 5 4.5 2.5 20 2.5 20l7.1999-.7c-11.3-11.8 5.9004-54.9 13.9004-81.3-7.9 10.8-15.1003 41.2-19.8003 57.6-3.4-31-15.8001-74.9 14.1003-95.6-6.8 2.5-14.9004 14-16.7004 20-4.6 14.9-5.1 29.8-3.8 45.8-5.8-23-17.3999-46.2-9.3999-68.9 1.7-5.6 4.0999-10.9 7.3999-15.8 3.2-4.9 7.3-9.3 12.3-13.1 5.8004-3.7 12.3004-6.1 19.0004-6.4.2-.1.1-.3-.2-.2z" fill="#141633"/><path d="m144.87 359.164c18.5-.2 34.6-13.9 42.2-29.1 5-10.1 13.3-15.5 18-16.8-53 11.1-45.5 23-60.2 45.9z" fill="#7aba8a"/><path d="m158.07 364.664c-9.2 1.7-26.1 12.8-17 22.1 14.6 14.8 22.4-13.3 38.8-14.5 4.4-.6 12.3-.3 14.3 2.1-9-9.1-23.4-11.9-36.1-9.7z" fill="#7aba8a"/><path d="m108.97 354.564c-18.8001-2.6-17.7001 12-26.3001 16.7 3.3-1.6 12-3.9 15.6-3.2 10.7001 2 14.1001 14.5 21.9001 9.4 4-2.7 3.7-20.8-11.2-22.9z" fill="#7aba8a"/><path d="m156.369 395.464c-6 .7-13.9 3.6-19.6 7.4s-9 8.7-5.5 12.7c4.7 4.3 14.9-4.1 22.9-7.5 9.3-3.8 18.5-5.9 22.7 1.2-4.5-7.1-10.7-13.5-20.5-13.8z" fill="#7aba8a"/><path d="m101.77 390.964c-7.9005-2.9-14.4005-.7-19.5005 7 3.6-4.4 8.6.7 12.3 6.7 3.7 6.1.8001 10.6 6.1005 13.5 8 4.4 12.3-3.2 12.3-9.8 0-6.5-4.3-14.4-11.2-17.4z" fill="#7aba8a"/><path d="m126.87 436.064c-4.3 4.9-7.6 16.2-3.3 19 8.2 5.4 16.3-2.3 21.8-13.2 4.5-9 6.1-12 14.7-12.3-11.3-8.2-25.6-2.1-33.2 6.5z" fill="#7aba8a"/><path d="m95.7697 447.164c-8.5-1.6-21.9001-8.2-21.9001-8.2s1.9001 17.4 6.9001 21.3 13.2999 6.7 19.3003.5c5.7-5.8 1.4-11.8-4.3003-13.6z" fill="#7aba8a"/><path d="m177.17 370.364c-19.6-2.1-45.9 20.2-56.1 39.1 7.6-20.8 21.5-50 39.2-65.2-17 11.6-30.2 34.5-38.1 53 1.8-17-2.5-35.8-20-36.9 34.9 9.1 10.8 62.8 9.2 86.3-3.1-18 .3-42.3-17.2004-51.5 16.9004 13.8 15.1004 51.3 14.8004 65.8-.1 5.7-.5 12.6-4.9 4.8-3.3-6.1-9.4005-16-19.8005-15.8 30.3005 17.3 18.2005 49.4 18.2005 49.4l3.8 1c-.9-15.5 20.9-50.5 39.2-69.3-4.4 1.8-8.5 5.8-11.4 9.7-7.9 10.4-16.6 21.4-24.3 33.7 2.2-25.8 20-72.6 48.8-74.3-28.4-1.2-39.3 37.6-45.2 45.3 1.1-33.8 29.7-73.4 63.8-74.9.2 0 .1-.1 0-.2z" fill="#141633"/><path d="m119.47 483.564h-44.0003c-1.6 0-2.8 1.5-2.4 3.1l1.6 7.2c.3 1.1 1.3 1.9 2.4 1.9h40.7003c1.2 0 2.2-.8 2.4-1.9l1.6-7.2c.5-1.6-.6-3.1-2.3-3.1z" fill="#fd4b1b"/><path d="m81.2695 520.264c.2 1.7 1.7 2.9 3.3 2.9h25.7005c1.7 0 3.1-1.2 3.3-2.9l3.5-24.5h-39.3005z" fill="#fd4b1b"/><path d="m124.57 449.064 442.9-35.4v-287.8l-442.9-44.5996z" fill="#acc7fb"/><path d="m682.51 466.716c-2.6-1.1-5.5-1.2-8.3-.5-7.8 1.8-13.1 7.7-19.5 11.9-2.1 1.4-4.8 2.5-6.8.8-1.2-1-1.5-2.7-1-4.2.8-2.6 3.1-4.1 5.3-5.5 7.1-4.4 14.5-8.6 20.4-14.5s10.4-13.8 10.2-22.1c-.1-3.8-1.5-8.2-6.7-7.9-1.6.1-3.1.7-4.3 1.6l-13.9 9.5c-1.6 1.1-3.8-.3-3.3-2.2l4.7-19.9c.9-3.6 1.7-7.4.6-11.1-.5-1.6-1.3-3-2.6-4-4.9-4.1-11.7-.3-15.6 4.2-7.3 8.2-11.1 19.3-10.5 30.1.1 1.7.3 3.6-1.2 4.9s-3.7 1.1-5.3 0c-2.5-1.8-3.1-4.8-3.6-7.7-.6-3.4-1.3-7.1-5.2-8.7-3.1-1.3-6.7-.2-9 2.2-4.5 4.7-3.9 11.4-2.2 17.2 2.6 9.2 7.6 17.7 14.4 24.5 2.6 2.6 5.5 5 6.9 8.4 1.7 4 .3 9.8-5 10-1.4 0-2.8-.4-4-1.2-3.1-2-4.6-5.4-6.4-8.5-2.3-4-6.4-8.1-11.1-6.2-1.4.6-2.6 1.7-3.4 3-1.8 3.2-1.4 6.8-.7 10.2 1.5 6.7 4.6 12.9 8.8 18.3 5.8 7.3 13.8 14.2 22.9 16.9 15.6 4.7 31.7-10.1 43.2-18.3 5.8-4.1 11.8-7.9 15.9-13.8 4.1-5.4 4.5-14.1-3.7-17.4z" fill="#94d59d"/><path d="m643.409 425.816c-.2 0-.4.1-.5.3-7 36.3-9.1 73.5-6.2 110.6 0 .2.2.4.4.4s.4-.2.4-.4c-2.9-37-.8-74.1 6.2-110.4 0-.2-.1-.4-.3-.5z" fill="#4655ee"/><path d="m671.91 434.816c-4.8 6.7-9.8 13.6-16.7 18.5-7.5 5.3-16.5 7-23.5 4.4-5.6-2.1-9.5-6.7-11.7-10.1-3-4.5-5-9.7-6.7-14.3-.1-.2-.3-.3-.5-.2s-.3.3-.2.5c1.8 4.6 3.8 9.9 6.8 14.5 2.3 3.5 6.3 8.2 12.1 10.4 2.3.9 4.8 1.3 7.4 1.3 5.6 0 11.6-2 16.9-5.7 7-5 12-12 16.9-18.7.1-.2.1-.4-.1-.6-.3-.3-.6-.2-.7 0z" fill="#4655ee"/><path d="m677.01 477.816c-7.3 7.5-14.3 12.6-21.6 17.9l-1.7 1.2c-8.7 6.3-18.8 8.5-27.1 5.7-9.7-3.2-15.9-12.6-19.7-19.4-.1-.2-.4-.3-.6-.2s-.3.4-.2.6c3.9 6.9 10.2 16.5 20.2 19.8 2.5.8 5.1 1.2 7.8 1.2 6.6 0 13.7-2.4 20.1-7.1l1.7-1.2c7.4-5.4 14.4-10.5 21.7-18 .2-.2.2-.4 0-.6-.2-.1-.5-.1-.6.1z" fill="#4655ee"/><path d="m646.51 481.516c-.7-.6-1.7-1-2.6-1-3.1 0-4.5 3.2-4.9 6.1-.3 2.2-.4 4.4-1.7 6.3-.5.7-1.2 1.3-2 1.6-3 1.1-5.1-1.9-5.1-4.6 0-2.3 1.2-4.3 2.1-6.4 2.3-5.4 3.3-11.4 2.7-17.3-.4-3.7-2.6-8.4-5.1-9.4-1.3-.5-4.5-.2-5.7.7-1.2 1-1.4 4-1 6.2.4 1.8.7 3.7-.3 5.2-.6 1-1.9 1.6-3 1.2s-1.5-1.5-1.8-2.6c-2.1-6.4-6.8-11.9-12.7-15-3.3-1.7-8-2.3-9.9 1.1-.5.9-.6 1.9-.6 2.9.2 2.4 1.5 4.4 2.8 6.3l7.1 10.4c.7 1-.2 2.3-1.4 2l-10.1-2.4c-.9-.2-1.9-.2-2.8.1-3 1-2.8 3.8-2 6 1.8 4.8 6.1 8.3 10.8 10.4s9.8 2.9 14.9 3.8c1.6.3 3.2.6 4.3 1.9.6.8.8 1.8.4 2.6-.7 1.4-2.6 1.4-4.1 1.1-4.6-1-8.9-3.2-13.8-2.5-1.7.3-3.4 1-4.6 2.2-3.9 3.7-1.7 8.6 1.8 11 3.6 2.5 8.2 5.2 12.4 6.3 8.4 2.1 20.7 5.1 28.5-1.1 4.6-3.6 7.6-9.4 9.2-14.9 1.2-4 1.6-8.3.9-12.5-.4-2.1-1-4.3-2.7-5.7z" fill="#27b044"/><path d="m610.01 466.016c-.2-.2-.5-.3-.7-.2-.2.2-.3.5-.2.7 12.1 19.3 21.7 40.1 28.4 62 .1.2.3.4.6.4h.1c.3-.1.4-.4.3-.6-6.7-22-16.3-42.9-28.5-62.3z" fill="#4655ee"/><path d="m628.51 463.116c-.3 0-.5.2-.5.5 0 3 .1 6.5-.6 9.7-.5 2.4-1.7 5.9-4.3 8.3-3.3 3-8.7 4.1-14.1 2.7-5-1.3-9.4-4.1-13.6-6.9-.2-.2-.6-.1-.7.2-.2.2-.1.6.2.7 4.3 2.8 8.8 5.7 13.9 7 2.5.6 5 .8 7.3.5 3-.4 5.7-1.6 7.7-3.4 2.9-2.6 4.1-6.3 4.6-8.8.7-3.3.6-6.8.6-9.9.1-.4-.2-.6-.5-.6z" fill="#4655ee"/><path d="m643.51 490.416c-.3 0-.5.2-.6.4-.6 4.7-2 11.4-6.7 15.4-4 3.4-10.2 4.4-16.5 2.7l-1.2-.3c-5.4-1.4-10.5-2.8-16.3-5.5-.3-.1-.6 0-.7.3s0 .6.3.7c5.9 2.7 11 4.1 16.5 5.5l1.2.3c3.1.8 6.1 1 8.9.6 3.3-.4 6.2-1.6 8.5-3.6 5-4.2 6.4-11.2 7.1-16.1-.1-.1-.3-.3-.5-.4z" fill="#4655ee"/><path d="m662.51 496.516c-.5-.2-1.1-.3-1.6-.2l-5.8.8c-.7.1-1.1-.7-.7-1.2l4.6-5.5c.8-1 1.7-2 2-3.4.1-.6.1-1.1-.2-1.7-.9-2-3.6-1.9-5.5-1.2-3.6 1.4-6.5 4.2-8.1 7.7-.2.6-.5 1.2-1.2 1.3-.7.2-1.3-.2-1.6-.9-.5-.9-.2-2 .1-3 .4-1.2.7-2.4-.2-3.5-.8-.9-2-1.1-3.1-.8-2.1.8-3 2.9-3.5 5-.7 3.3-.5 6.7.5 9.9.4 1.2.9 2.5.8 3.7-.1 1.5-1.5 3.1-3.1 2.3-.4-.2-.8-.6-1-1-.6-1.1-.5-2.4-.6-3.6-.1-1.6-.7-3.5-2.4-3.7-.5-.1-1.1.1-1.5.4-1.1.7-1.5 1.9-1.8 3.1-.6 2.3-.7 4.8-.2 7.1.6 3.2 2 6.6 4.3 8.9 4 3.9 11.4 1.9 16.3 1.2 2.4-.3 4.9-.6 7.1-1.8 2.1-1.1 3.6-3.8 1.6-6.1-.6-.7-1.5-1.2-2.5-1.5-2.7-.7-5.3.3-7.9.6-.9.1-1.9 0-2.2-.8-.2-.5 0-1.1.4-1.5.7-.7 1.6-.8 2.5-.8 2.9-.2 5.9-.4 8.6-1.3 2.8-.9 5.4-2.6 6.7-5.2.6-.9.8-2.6-.8-3.3z" fill="#141633"/><path d="m651.81 491.516c-8 10.2-14.6 21.5-19.7 33.5-.1.2 0 .5.2.5h.2c.2 0 .3-.1.4-.3 5.1-12 11.6-23.2 19.6-33.3.1-.2.1-.4-.1-.6-.2-.1-.5 0-.6.2z" fill="#4655ee"/><path d="m659.41 498.716c-2.6 1.3-5.2 2.7-8.1 3.1-3.1.5-6-.4-7.7-2.3-1.3-1.5-1.8-3.5-1.9-4.9-.2-1.8 0-3.8.2-5.5 0-.2-.1-.4-.4-.5-.2 0-.4.1-.5.4-.2 1.7-.4 3.7-.2 5.7.2 1.5.6 3.7 2.1 5.3 1.5 1.7 3.9 2.7 6.5 2.7.6 0 1.3 0 1.9-.1 3-.4 5.7-1.8 8.3-3.2.2-.1.3-.4.2-.6.1-.1-.1-.2-.4-.1z" fill="#4655ee"/><path d="m654.11 512.916c-3.4 1.2-6.4 1.6-9.5 2.1l-.7.1c-3.6.6-7-.3-9-2.5-2.4-2.5-2.8-6.3-2.9-9 0-.2-.2-.4-.4-.4s-.4.2-.4.4c.1 2.8.5 6.9 3.1 9.6 1.8 1.8 4.4 2.8 7.3 2.9.8 0 1.6 0 2.4-.2l.7-.1c3.2-.5 6.1-1 9.6-2.2.2-.1.3-.3.3-.5s-.2-.3-.5-.2z" fill="#4655ee"/><path d="m648.61 517.816h-29.9c-1.1 0-1.9 1-1.7 2.1l1.1 4.9c.2.8.9 1.3 1.7 1.3h27.6c.8 0 1.5-.5 1.7-1.3l1.1-4.9c.3-1.1-.5-2.1-1.6-2.1z" fill="#fd4b1b"/><path d="m622.71 542.716c.2 1.1 1.1 2 2.3 2h17.5c1.1 0 2.1-.8 2.3-2l2.4-16.7h-26.8z" fill="#fd4b1b"/><path d="m169.07 414.864 424.9-28.4v-238.3l-424.9-36.9z" fill="#262ba1" opacity=".5"/><path d="m318.67 366.064c-33.9.8-44.9-89.1-82.1-82.3-36.8 6.8-32.7 80.8-99.6 53.5l-.2 80.6 216.2-15.5v-97.9c-16.2.6-15.2 61.2-34.3 61.6z" fill="#fec051"/><path d="m300.27 376.964c-32.2 2.2-40.9-62.6-79-62.6-47.1 0-32.4 41.6-84.2 45.1l-.2 58.7 216.2-15.6v-68.7c-26 1.2-24.7 41.2-52.8 43.1z" fill="#fd4b1b"/><g fill="#fff"><path d="m353.369 291.964h-.7v110.5h.7z"/><path d="m329.369 290.864h-.7v113.4h.7z"/><path d="m305.369 290.864h-.7v115.2h.7z"/><path d="m281.369 289.864h-.7v117.9h.7z"/><path d="m257.369 287.864h-.7v121.6h.7z"/><path d="m233.47 285.664h-.7v125.5h.7z"/><path d="m209.47 285.664h-.7v127.3h.7z"/><path d="m185.47 283.464h-.7v131.2h.7z"/><path d="m161.47 283.464h-.7v132.9h.7z"/><path d="m137.47 283.464h-.7v134.6h.7z"/></g><path d="m82.7695 23.8643v298.9997l270.4005-1.7v-260.5997z" fill="#262ba1" opacity=".5"/><path d="m392.17 381.364 239.4-9.4v-285.9997l-239.4-29.4z" fill="#acc7fb" opacity=".4"/><path d="m616.87 99.8645-.228 8.6615h-201.502l-1.14-8.6615z" fill="#dfeafe"/><path d="m616.413 115.286-.228 8.45h-198.992l-1.141-8.45z" fill="#fd4b1b"/><path d="m616.071 130.286-.228 8.239h-196.711l-1.141-8.239z" fill="#fff"/><path d="m615.616 144.862-.228 8.028h-194.317l-1.141-8.028z" fill="#fff"/><path d="m615.273 159.227-.228 7.817h-192.15l-1.026-7.817z" fill="#fd4b1b"/><path d="m614.817 173.171-.228 7.605h-189.87l-1.026-7.605z" fill="#fec051"/><path d="m614.475 186.691-.228 7.394h-187.703l-1.026-7.394z" fill="#fff"/><path d="m614.019 200-.114 7.394h-185.65l-.913-7.394z" fill="#fd4b1b"/><path d="m613.677 213.098-.228 6.972h-183.484l-.912-6.972z" fill="#fff"/><path d="m613.335 225.773-.229 6.972h-181.431l-.912-6.972z" fill="#fff"/><path d="m612.993 238.238-.228 6.76h-179.493l-.798-6.76z" fill="#fec051"/><path d="m612.65 250.491-.228 6.549h-177.439l-.913-6.549z" fill="#fff"/><path d="m612.308 262.321-.228 6.549h-175.615l-.798-6.549z" fill="#fd4b1b"/><path d="m611.966 273.94-.228 6.338h-173.677l-.912-6.338z" fill="#fff"/><path d="m611.624 285.348-.114 6.338h-171.966l-.798-6.338z" fill="#fff"/><path d="m611.282 296.544-.114 6.127h-170.141l-.798-6.127z" fill="#fec051"/><path d="m611.054 307.53-.228 5.915h-168.431l-.798-5.915z" fill="#fff"/><path d="m610.712 318.304-.114 5.704h-166.72l-.798-5.704z" fill="#fff"/><path d="m610.37 328.656-.114 5.703h-165.01l-.798-5.703z" fill="#fff"/><path d="m610.142 339.007-.229 5.704h-163.299l-.798-5.704z" fill="#fff"/><path d="m609.8 349.147-.114 5.493h-161.703l-.798-5.493z" fill="#fff"/><path d="m609.571 358.865-.114 5.493h-151.782l-9.123-5.493z" fill="#fff"/><path d="m609.343 368.583-.228 5.281h-150.185l-.684-5.281z" fill="#fff"/><path d="m298.77 158.664c-2.2 2.1-3.6 4.7-4.2 7.6l7.6 2.3c.8-3.6 3.9-6 7.7-5.7 1 .1 2 .4 2.9.8l2.9-7.1c-5.7-2.8-12.3-2.2-16.9 2.1z" fill="#fff"/><path d="m320.47 160.064-5.3 5.4c1.5 1.6 2.5 3.7 2.5 6 0 4.4-3.5 7.7-7.8 7.4-3.1-.2-5.8-2.2-7-5l-7 3c.7 1.6 1.7 3.1 3 4.5 6.1 6.7 16 7.3 22 1.6 6-5.8 6-15.8 0-22.5-.2-.1-.3-.3-.4-.4z" fill="#fd4b1b"/><path d="m312.77 163.664c.9.4 1.7 1 2.4 1.8l5.3-5.4c-1.4-1.5-3.1-2.7-4.8-3.6z" fill="#acc7fb"/><path d="m302.17 168.564-7.6-2.3c-.8 3.5-.3 7.2 1.3 10.6l7-3c-.5-1.1-.8-2.3-.8-3.6-.1-.6 0-1.2.1-1.7z" fill="#141633"/><path d="m304.27 272.864c-.7-.8-1.3-1.6-1.7-2.6l-7.2 2.9c2.4 5.8 8 9.9 14.4 10.1 3.1.1 6-.8 8.4-2.3l-4.2-6.8c-2.9 2-7 1.5-9.7-1.3z" fill="#acc7fb"/><path d="m309.87 251.464c-8.6-.4-15.7 6.5-15.7 15.4v.5h7.8c-.1-2.1.7-4.3 2.3-5.9 3.1-3 8-2.8 11 .4 2.2 2.3 2.8 5.5 1.9 8.3l7.3 2.8c.5-1.6.8-3.3.8-5.1 0-8.7-6.9-16.1-15.4-16.4z" fill="#262ba1"/><path d="m315.37 273.164c-.4.4-.8.7-1.3 1l4.2 6.8c2.9-1.8 5.2-4.7 6.3-8.1l-7.3-2.8c-.4 1.2-1 2.3-1.9 3.1z" fill="#fff"/><path d="m294.17 267.364c.1 2.1.5 4 1.3 5.9l7.2-2.9c-.4-.9-.6-1.9-.6-2.9z" fill="#fd4b1b"/><path d="m294.17 218.264c0 8.9 7 16.4 15.7 16.8h.5l-.3-7.9c-2.1 0-4.2-.9-5.8-2.7-3.1-3.3-3.1-8.4 0-11.3 2.2-2.1 5.3-2.6 8-1.5l2.5-7.4c-1.6-.6-3.2-1-5-1.2-8.6-.4-15.6 6.3-15.6 15.2z" fill="#acc7fb"/><path d="m316.37 215.164c1.9 3.2 1.6 7.3-1 9.9-.7.7-1.5 1.2-2.4 1.6l3.1 7.4c5.5-2.2 9.3-7.6 9.3-14.1 0-3.2-.9-6.1-2.4-8.7z" fill="#262ba1"/><path d="m314.87 204.364-2.5 7.4c1.1.4 2.1 1.1 3 2.1.4.4.8.9 1 1.4l6.5-3.9c-1.8-3.2-4.7-5.7-8-7z" fill="#fd4b1b"/><path d="m310.07 227.064.3 7.9c2 0 3.9-.3 5.6-1l-3.1-7.4c-.8.4-1.8.6-2.8.5z" fill="#fff"/><path d="m213.27 140.764 16 1.2 1-41.6-16.1-.7997z" fill="#fd4b1b"/><path d="m186.47 138.864 15.5 1.1 1.1-58.5996-15.7-.6z" fill="#fec051"/><path d="m160.47 136.964 15.1 1.1.6-50.0996-15.2-.7z" fill="#141633"/><path d="m135.17 135.164 14.6 1 .6-70.3996-14.9-.5z" fill="#dfeafe"/><path d="m110.57 133.364 14.2 1 .3-96.5997-14.5-.2z" fill="#fff"/><path d="m243.07 171.964-42.9 42.3-5.3 54.4c31.9 4.3 62.2-17.2 66.3-49 2.2-18.3-4.1-35.1-18.1-47.7z" fill="#dfeafe"/><path d="m194.77 268.664 5.3-54.4-35.3 41.4c8.9 7.2 18.5 11.4 30 13z" fill="#141633"/><path d="m147.77 231.264c3.5 9.8 8.9 17.6 17.1 24.3l35.3-41.4-18.7-53.4c-29.2 11.3-43.6 42.7-33.7 70.5z" fill="#acc7fb"/><path d="m181.47 160.864 18.7 53.4 42.9-42.3c-17.3-15.7-39.8-19.5-61.6-11.1z" fill="#fec051"/><path d="m293.27 125.664c-8-.3-14.8-6.1-16.5-13.6l-17 2.6c1.4 6.1 4.6 11.9 9.5 16.8 10.1 9.8 24.4 12.5 36.1 8.2l-6-14.9c-1.9.6-3.9.9-6.1.9z" fill="#fd4b1b"/><path d="m271.67 80.9644c-2.8 2.4-5 5.2-6.7 8.2l15.6 8.4c2.8-5.2 8.6-8.5 15.1-7.9 9.1.7 16.2 8.3 16.2 16.9996 0 4.6-1.9 8.6-5.1 11.3l10.8 11.8c.3-.2.5-.5.8-.7 12-11.6 12-31.0996 0-44.0996-12.3-13.4-33.3-15.5-46.7-4z" fill="#fff"/><path d="m264.97 89.1644c-3.6 6.6-4.6 14.2996-2.9 21.5996l17-2.6c-.3-1.1-.4-2.3-.4-3.5 0-2.6.6-4.9996 1.8-7.0996z" fill="#acc7fb"/><path d="m301.77 120.864 6 14.9c3.6-1.3 7-3.3 9.9-6l-10.8-11.8c-1.4 1.2-3.2 2.3-5.1 2.9z" fill="#141633"/><path d="m746.12 435.352 28.9 109.1h3.8l-29-109.1z" fill="#141633"/><path d="m794.319 435.352 29 109.1h3.7l-28.9-109.1z" fill="#141633"/><path d="m753.819 455.852.5 3.1h47.8l-.5-3.1z" fill="#141633"/><path d="m760.62 481.552.5 3.1h47.8l-.5-3.1z" fill="#141633"/><path d="m767.419 507.252.5 3.1h47.701l-.401-3.1z" fill="#141633"/><path d="m679.72 544.452h3.8l28.9-109.1h-3.7z" fill="#4655ee"/><path d="m728.02 544.452h3.699l29-109.1h-3.8z" fill="#4655ee"/><path d="m690.52 512.052h47.799l.5-3.1h-47.799z" fill="#4655ee"/><path d="m697.32 486.352h47.8l.5-3.1h-47.8z" fill="#4655ee"/><path d="m704.12 460.652h47.8l.5-3h-47.8z" fill="#4655ee"/><path d="m808.919 427.652h-44.399v7.7h44.399z" fill="#141633"/><path d="m764.52 427.652h-70.3v7.7h70.3z" fill="#4655ee"/><path d="m780.619 386.152c-10.1-1.1-67.4 14.1-90.3 24.7-9.8 4.5-5.9 17.2 4.2 18.5 26.8 3.7 58.4-3.3 79.7-10.3 18.6-6 17.3-31.7 6.4-32.9z" fill="url(#b)"/><path d="m706.32 507.452-6.3-1s-.5 2.3-1.1 3.5c-1.1 2.3-11.5 3.7-11.2 6.5.2 1.4 3.7 1.9 6.3 1.6 2.4-.3 6.8-.7 8.3-.9 1.8-.2 5.1 0 5.7-.8 1.6-2-.9-4-1.1-5.8-.3-1.6-.6-3.1-.6-3.1z" fill="#141633"/><path d="m699.819 506.152s-.1 2-.9 3.7c0 0-.599.7.701 1.4 1 .5 7.199-.8 7.199-.8-.1-1.5-.5-4.5-.5-4.5z" fill="#acc7fb"/><path d="m789.22 386.552c-10.2 0-65.5 21.3-87.1 34.3-9.2 5.5-4 17.7 6.2 18 27.1.7 61.4-2.9 81.7-12.2 17.9-8.1 10.2-40.1-.8-40.1z" fill="url(#c)"/><path d="m696.72 432.052c1 44.2 1.8 77.2 1.8 77.2 2.1 1.4 5.8 1.4 8.8 1 0 0 6.4-33.8 12.4-72.2 4-25.5-23.4-24.1-23-6z" fill="url(#d)"/><path d="m687.92 384.352c-.2.6 2 1.9 2.6 1.9 1.4-.4 1.1-1.2 2.5-1.4-1.2 0-2.5-.3-3.6-.6-.7-.4-1.3-.8-1.5.1z" fill="#acc7fb"/><path d="m689.919 385.552c-1.7.5-5.2 1.9-5.5 2.1-.7.3-2.6 1-3.1 1.4-.3.3-.8 1.3-.7 1.8.1.6.8.8.8.8-.1.8 2 .6 2 .8-.3.8.8 1.4 3.5.2.2-.1 7.6-1.7 9.9-2.5-.3-1.5-2.6-5.6-2.7-5.6-1.4.2-2.9.6-4.2 1z" fill="#acc7fb"/><path d="m732.22 364.552c-.5 0-1 .2-1.4.3-6.7 2.9-29.8 17.9-37.2 19.8 1.1 2.3 1.9 4.2 2.2 5.8 12.2-3.4 41.8-15.1 41.9-20.2.1-4.7-3.2-5.8-5.5-5.7z" fill="#acc7fb"/><path d="m744.52 326.352c-.6.1-1.101.3-1.301.8-1.8 2.9-4.199 9.5-6.699 16.5-2.6 7-5.2 14.3-7.5 18.8-.4.8-.7 1.5-1 2.3-2.7 1.5-6.2 3.6-10 5.9-8.2 4.9-18.3 11-22.5 12.2l3 8.5c10.5-3 34.2-12.6 40-18.6 6.1-6.1 25.999-32.1 21.299-37.9-1.8-2.1-12.799-8.7-15.299-8.5z" fill="#43455c"/><path d="m765.219 301.152c-.8.6-7.199 6.1-9.599 5.9.1.7.6 7.1-.6 11 .9 3.4 10.499 2.8 12.699-3.3-1.2-1.6-2.7-10.4-2.5-13.6z" fill="#acc7fb"/><path d="m777.619 316.652c-2.5-.4-9.9-1.9-9.9-1.9s-4.9 4.8-8.2 5.3c-2.3.3-4.5-2.1-4.5-2.1s-4.6 1.7-6.1 2.6c-5.7 3.9-6.5 9.8-5.4 14.5 3.9 16.4-1.2 58.4-1.2 58.4 10.2 0 40.7 29.8 59.7 21.3 0 0 3-54.3-10.8-84.5-2.8-5.6-6.1-12.3-13.6-13.6z" fill="#43455c"/><path d="m755.019 289.552c-4.4 0-7.8 2-8.4 6.2-.2 1.5 1.3 14.7 8.5 16.3 3.1.6 9.7-4.8 9.7-8.3l-1.3-4.9c0-4.7-3.8-9.3-8.5-9.3z" fill="#acc7fb"/><path d="m676.62 497.352-5.6-3.1s-1.3 2-2.2 2.9c-1.8 1.8-12.1-.4-12.8 2.5-.3 1.3 2.9 3 5.4 3.6 2.3.5 6.7 1.6 8.1 1.9 1.8.4 4.8 1.6 5.6 1.1 2.1-1.4.5-4.1.9-5.8.4-1.5.6-3.1.6-3.1z" fill="#141633"/><path d="m670.919 494.052s-.699 1.8-2.099 3.2c0 0-.8.5.2 1.5.8.8 7 1.7 7 1.7.4-1.5 1-4.4 1-4.4z" fill="#acc7fb"/><path d="m683.52 420.552c-8.2 43.5-14.4 75.9-14.4 75.9 1.8 1.8 5.9 2.6 8.9 1.6 0 0 12.8-30.5 26.7-66.9 9.2-24-17.9-28.3-21.2-10.6z" fill="url(#e)"/><path d="m719.919 406.652c0 1.1.9 2 2 2h47.101c1.1 0 2-.9 2-2z" fill="#141633"/><path d="m714.819 365.152c-.4-1.6-1.9-2.7-3.6-2.7h-28.9v45.7l39.9.5c2.4 0 2.6-1.9 2.4-2.5z" fill="#141633"/><path d="m712.72 363.352c-.1-.5-.6-.9-1.1-.9h-51c-.8 0-1.3.7-1.1 1.5l9.6 40.5c.7 2.5 3 4.2 5.6 4.2h47.5c.8 0 1.3-.7 1.1-1.5z" fill="#fff"/><path d="m780.12 329.452c-3.2 8.3-9.201 15.1-13.801 23.3-6.3 11.3-13.1 27.9-23.4 35.7 11-2.1 21.8-5.8 26.8-10.5 7.1-6.8 22.9-34.7 11.7-45.7-.6-.9-.999-1.8-1.299-2.8z" fill="#141633"/><path d="m720.519 389.452c-.6-.2-1.3-.6-1.4.3-.1.6 2.2 1.6 2.8 1.6 1.3-.6 1-1.3 2.3-1.7-1.2.1-2.5 0-3.7-.2z" fill="#acc7fb"/><path d="m725.22 389.352c-1.3.3-2.7.8-4.1 1.4-1.6.6-5 2.5-5.2 2.6-.7.4-2.5 1.2-2.9 1.7-.3.3-.6 1.4-.5 1.9.1.6.8.7.8.7 0 .8 2.1.4 2 .6-.2.8.9 1.3 3.5-.2.2-.1 7.3-2.5 9.5-3.5-.3-1.3-3-5.2-3.1-5.2z" fill="#acc7fb"/><path d="m769.22 327.352c-3 6.1-7.2 27.5-11.2 37.4-4.9 12.1 5.3 11.2 8 8 7-8.4 22.3-34.8 18.3-38.9-1.8-1.8-14.6-7.7-15.1-6.5z" fill="#acc7fb"/><path d="m761.019 365.352c-.5.1-1 .3-1.3.5-6.4 3.6-27.7 21-34.9 23.6 1.3 2.1 2.3 4 2.8 5.5 11.8-4.6 39.9-19.5 39.5-24.6-.5-4.6-3.8-5.4-6.1-5z" fill="#acc7fb"/><path d="m769.819 325.952c-.6.1-.999.5-1.199.9-1.5 3.1-8.601 31.9-10.401 36.7-.3.8-.6 1.6-.8 2.4-2.5 1.8-5.799 4.3-9.299 6.9-7.6 5.8-17 12.9-21.1 14.5l3.899 8.1c10.1-4.1 32.6-16.2 37.8-22.8 5.4-6.8 22.4-34.7 17.1-40-1.8-1.8-13.5-7.2-16-6.7z" fill="#43455c"/><path d="m765.819 286.452c-6.4-5.8-16.3.3-16.3.3-7.5 1.4-5.9 12.5-2.4 14.1-1.6-8.1 3.9-10.7 3.9-10.7 10.2-.1 13.8 12 13.1 15.2 0-.1 11.3-10.2 1.7-18.9z" fill="#262ba1"/><path d="m799.819 300.352c-3.2-2-5.5-2.2-8.6-10.6-10.1-27.9-29.9-9.4-27.2-2 .7 1.8 2 2.6 2.9.2 1.6-4 9.9-9.5 9.5 9.4-.1 5-4.4 12.6 10.9 17.2 13.9 4.2 5 9.8 6.6 13.1 4.3 8.4 21.9-17.4 5.9-27.3z" fill="#262ba1"/><path d="m765.719 283.852c-.6-.4-1.2-.5-1.7-.4-1.3.1-2.2 1.1-2.2 1.1 3.1 1 5.7 3.9 5.7 3.9.6-1.5.6-3.2-1.8-4.6z" fill="#141633"/><path d="m104.411 437.48c0 1.9-.8 93.3-.8 93.3 2.2 2.1 5.9 1.9 6 1.7 0 0 14.8-92.4 14.8-96.8-2.7 1.8-18.5 3.4-20 1.8z" fill="#acc7fb"/><path d="m100.812 390.28c.3 45.8 1.5 139.2 1.5 139.2 2-1.4 6.399-1.6 8.599.4 0 0 4.3-33.7 11.6-68 6.3-29.6 7.601-58 10.101-59.7l.399-5.7c-8.5-1.1-16.799-2.8-25.199-4.6-2.5-.5-4.8-1-7-1.6z" fill="url(#f)"/><path d="m103.611 529.68s-.2.7-1.3 1.8c-2 1.9-10.3 6.7-10.5 9.9-.1 1.6 2.9 3.3 5.3 3.6 2.5.3 4.7.3 6-.5 1.7-1 5.1-5.3 5.7-6.3 1-1.7 1.4-4.7 1-6.2-.8-4-6.2-2.3-6.2-2.3z" fill="#262ba1"/><path d="m103.511 533.88c-2.4 2-10.2998 5.5-10.4998 8.2-.1 1.4 2.4 2.8 4.5 3s3.8998.3 5.0998-.4c1.4-.8 4.3-4.5 4.8-5.3 2.7-4.5-1.5-7.5-3.9-5.5z" fill="#4655ee"/><path d="m222.611 241.78c-1 .1-.6.8-.4 1.5.2 1.3.4 2.6.2 3.9.4-1.4 1.2-1 1.8-2.5.1-.5-1-3-1.6-2.9z" fill="#acc7fb"/><path d="m231.711 237.98c-.2 0 .3-2.1-.6-2.2 0 0-.1-.8-.7-.9-.5-.1-1.7.3-2 .5-.5.4-1.4 2.3-1.8 3-.1.2-2.1 3.8-2.9 5.5-.6 1.4-1.1 2.9-1.5 4.3 0 .1 4 3 5.5 3.5 1.1-2.3 3.7-9.9 3.8-10.1 1.6-2.6 1.1-3.8.2-3.6z" fill="#acc7fb"/><path d="m195.711 284.08c-.2.4-.4.8-.5 1.4-.5 2.4.3 6 5.2 6.5 5.3.5 22.6-28.6 27.7-41-1.6-.5-3.6-1.6-5.8-3-3 7.5-22.8 29.4-26.6 36.1z" fill="#acc7fb"/><path d="m194.511 282.28c-10.5 4.1-33.3 8.3-39.7 11.3-1.2.6 4.8 14.2 6.7 16 4.3 4.3 32.4-11.5 41.4-18.8 3.3-2.8 4.4-13.5-8.4-8.5z" fill="#acc7fb"/><path d="m203.511 270.98c-2.8 3.7-5.5 7.2-7.4 9.9-.8.2-42.4 8.4-42.4 8.4-.1.2 2.2 32 4.5 30.6 7.6-4.5 37.9-21.1 45.2-26.9 7.1-5.5 21.1-29.1 25.5-39.8l-8.8-4.2c-1.7 4.3-10.5 13.9-16.6 22z" fill="#262ba1"/><path d="m38.4113 337.98c-.4.5 1.4999 2.5 2.0999 2.7 1.5 0 1.5-.9 3-.7-1.2-.4-2.4-1-3.5-1.7-.6-.5-1.0999-1.1-1.5999-.3z" fill="#acc7fb"/><path d="m40.0112 339.88c-1.8 0-5.8999.4-6.1999.4-.8.1-2.9.2-3.5.5-.4.2-1.2001 1.1-1.3001 1.6-.1.7.5 1 .5 1-.3.8 1.8001 1.3 1.7001 1.4-.5.7.3 1.7 3.5 1.3.2 0 8.1999.5 10.7999.5.1-1.6-.9-6.5-1-6.5-1.4-.1-2.9-.2-4.5-.2z" fill="#acc7fb"/><path d="m89.3113 331.48c-.5-.1-1-.1-1.5-.1-7.7.9-35.6001 9.1-43.8001 8.7.4 2.6.6 4.8.5 6.5 13.4.3 47.0001-2.6 48.6001-7.7 1.6-4.7-1.4-6.9-3.8-7.4z" fill="#acc7fb"/><path d="m113.011 297.68c-5.4 4.7-18.2999 23.9-26.2999 31.9-9.7 9.8.6 13.1 4.5 11.1 10.2999-5.3 35.9999-24.8 33.7999-30.4-.9-2.4-11-13.4-12-12.6z" fill="#acc7fb"/><path d="m112.811 292.68c-5.3 8.1-28.4995 37.1-28.9995 37.8-3.3.7-7.6001 1.7-12.3001 2.8-10.1 2.4-22.6 5.4-27.3 5.2l.3 9.8c11.8.3 39.6001-1.9 47.6001-6.2 8.3995-4.3 29.3995-20.5 36.7995-25.7 2.2-1.6-15.8-24.2-16.1-23.7z" fill="#262ba1"/><path d="m137.011 434.48c-.2 4.4 11.7 97.2 11.7 97.2.1.2 3.8.4 6-1.6 0 0 2-91.4 2.1-93.3-1.5 1.6-17.3-.5-19.8-2.3z" fill="#acc7fb"/><path d="m128.611 368.98s.1 23.9 1.2 31.8c2.2 15.8 1.9 32.1 7.2 61.9 6.2 34.5 11 66.7 11 66.7 2.2-2 5.5-2.5 7.4-1.1 0 0 8.1-156.8 7-163.3-4 1.9-21.6 4.3-33.8 4z" fill="url(#g)"/><path d="m156.011 373.58c-11.4-.3-22.8-.3-34.1-1.9-7-.9-13.6-2.8-19.5-5.6-1.5 11.2-2.4996 22.4-2.2 31.8.2.6 4.8 2.7 6.5 3.3 9.5 3.3 34 1.7 56.4-2.3 1.2-8.9.4-15.1.7-25.3-2.6.1-5.2 0-7.8 0z" fill="#fff"/><path d="m135.211 270.78c.5 3.4-1 14.3-2.2 16.1 2.8 6.2 13.2 3.1 13.9-.5-1.6-3.9.4-9.7.4-10.4-2.5.3-11.3-4.6-12.1-5.2z" fill="#acc7fb"/><path d="m144.411 258.58c-5 .3-7.9 4.7-7.6 9.6 0 .1.4 5.1.4 5.1.3 3.7 6.4 9.1 9.5 8.2 7.5-2.1 8.2-16.2 7.8-17.8-1-4.3-5.5-5.4-10.1-5.1z" fill="#acc7fb"/><path d="m165.211 306.58c.6-6.8-1-13.1-8.5-16-2.5-1-9.8-4.2-9.8-4.2s-1.8 1.9-6.6 2.2c-4.3.3-7-2.4-7-2.4s-4.3.2-12.9 1.3c-6.9.9-11.4 10.1-12.1 14.2-.6 4-11.3999 57.5-10.4999 89.5.2.6 2.9999 1.8 3.7999 2.3l3.2-19.1.4 20.4c10.4 2.6 33.6 1.5 49 1.4l4.8-22.5 1.1 22.6c1.5 0 4.5.1 5.7.2.1-30.4-.7-88.3-.6-89.9z" fill="#262ba1"/><path d="m155.911 531.48c-.9-1.1-1.2-2.4-1.2-2.4s-5.4-.7-6.4 1.9c-.6 1.5-.9 3.4.9 6.4.6 1 3.9 5.4 5.6 6.4 1.4.8 3.5.9 6 .7s5.5-1.8 5.4-3.4c-.1-3.2-8.5-7.4-10.3-9.6z" fill="#262ba1"/><path d="m154.711 533.18c-2.3-2-7 0-4.5 4.5.5.8 3.7 5.4 5.1 6.3 1.1.7 3 .8 5.1.6 2.3-.2 4.6-1.5 4.6-2.9-.2-2.7-7.9-6.4-10.3-8.5z" fill="#4655ee"/><path d="m157.311 260.18c-3.2-7.4-15.4-12.8-22.6-7.1-6.4 5-5.5 14-1.6 20 2 3.1-1.8 2.5-1.8 2.5s3 3.4 6.5 4.5c11.7 3.8 19.2-11.9 19.2-11.9s-4.8-1.5-3.3-1.4c7.1.5 8.6-2.7 7.9-6.3.3 1.4-1.9 5.2-4.3-.3z" fill="#fff"/><path d="m518.65 42.5501s-9.449 5.9413-14.77 12.101c-28.274 33.1684-23.089 111.2099 14.171 185.9229 26.948 54.109 64.531 95.038 99.822 113.185.384.148 3.288 1.583 4.302 2.054.385.148 3.428 1.559 4.581 2.005.164.116 6.211 2.298 8.936 3.118.221.034 2.947.854 3.995 1.103.302.091.663.1 1.047.249 1.048.249 2.014.441 2.98.632.303.092 3.096.469 4.119.579.303.091.582.043.885.134 1.244.144 2.407.229 3.628.233 7.093.351 13.888-.61 20.163-2.916l-43.186 18.742c-44.554 13.741-110.816-38.228-152.219-121.122-43.324-86.94-43.027-175.1874.459-198.0001-.057.0818-.139.0241-.197.1058z" fill="url(#i)"/><path d="m677.414 359.025c44.328-22.097 44.946-110.974 1.248-198.423-43.699-87.4495-114.955-140.4908-159.2-118.336-44.328 22.0972-44.889 110.892-1.248 198.423 43.559 87.473 114.791 140.375 159.2 118.336zm-148.573-123.692c-17.377-34.882-28.233-71.898-30.61-104.282-2.153-30.27 3.03-54.6332 14.8-68.7265 3.38-4.1015 7.29-7.2182 11.786-9.4318 16.978-8.4645 41.592-2.2479 67.392 17.0395 28.58 21.2462 55.519 55.4068 75.826 96.0248 17.376 34.883 28.233 71.899 30.609 104.283 2.154 30.269-3.029 54.633-14.799 68.726-3.38 4.102-7.29 7.218-11.787 9.432-16.977 8.465-41.452 2.224-67.392-17.039-28.661-21.304-55.518-55.407-75.825-96.026z" fill="#dfeafe"/><path d="m539.497 296.121c-7.567-6.154-18.68-5.049-24.932 2.499l-62.542 80.364 16.703 35.733 73.233-93.468c6.289-7.745 5.203-18.956-2.462-25.128z" fill="#dfeafe"/><path d="m502.971 344.757c-17.794-14.35-40.352-15.159-51.996-.814l-76.466 93.86c12.064-12.838 34.778-12.304 51.863 1.501 17.261 13.941 22.492 36.346 12.064 50.724 9.854-11.943 76.932-94.686 77.281-95.434 9.525-14.451 4.161-36.169-12.746-49.837z" fill="url(#j)"/><path d="m337.07 381.554c.673-.26 1.264-.578 1.855-.895.394-.212.73-.342 1.042-.611.058-.082.197-.106.255-.188-2.446 1.213-3.767 1.872-3.373 1.66.164.116.164.116.221.034z" fill="#2b1bed"/><path d="m436.021 493.023s1.033-1.124 1.442-1.656c.272-.355.526-.611.7-.985 10.643-14.438 5.549-37.02-11.909-50.999-17.085-13.805-39.798-14.339-51.863-1.501 0 0-1.714 2.011-1.869 2.286-10.393 13.672-6.347 34.829 8.936 48.997.098.019 4.394 3.603 4.651 3.856 16.898 12.139 38.374 12.229 49.912.002z" fill="#acc7fb"/></svg>