<svg width="309" height="381" viewBox="0 0 309 381" fill="none" xmlns="http://www.w3.org/2000/svg">
<g clip-path="url(#clip0)">
<path d="M24.5336 308.306H24.5364C16.4948 302.224 9.90719 294.043 5.70528 284.134C-5.29587 258.189 3.59166 228.73 25.5039 212.374L148.913 115.51C155.401 109.298 163.119 104.128 171.9 100.405C210.2 84.1652 254.22 101.592 270.221 139.329C275.689 152.225 277.178 165.825 275.239 178.789L275.244 178.783L265.629 278.943C264.575 299.04 252.576 317.911 233.117 327.118L233.133 327.165L230.932 328.098L182.682 348.557L137.786 367.593L137.214 367.836L137.211 367.833C121.132 374.403 103.486 371.305 90.9574 361.187L90.9577 361.189L24.5336 308.306Z" fill="url(#paint0_linear)"/>
<path d="M327.162 133.7C320.662 136.6 314.962 139.6 310.562 142.9C301.762 149.4 294.562 161.2 304.762 169.4C331.862 191.3 352.762 137.2 384.162 106C380.062 109.7 354.962 122.2 347.862 125C340.762 127.8 333.662 130.8 327.162 133.7V133.7Z" fill="#94D59D"/>
<path d="M340.762 178.701C333.462 180.001 326.662 182.601 321.462 187.301C313.662 194.901 306.262 211.001 314.962 213.501C323.662 217.201 328.562 209.801 334.762 206.101C344.662 197.401 354.562 187.501 368.162 184.901C373.762 183.201 378.662 182.401 382.262 183.501C376.862 181.401 370.362 179.701 363.562 178.701C356.062 177.501 348.162 177.401 340.762 178.701V178.701Z" fill="#94D59D"/>
<path d="M280.262 196.1C275.762 194.5 263.162 194.5 255.062 198.4C237.262 207 231.962 221 233.162 232.6C256.662 209.3 285.162 232.9 292.662 221.7C300.062 213.1 294.462 201 280.262 196.1V196.1Z" fill="#94D59D"/>
<path d="M294.162 265.501C290.162 263.001 284.962 262.201 279.062 263.201C267.262 265.101 262.262 270.801 260.462 281.701C266.662 277.401 272.762 279.901 278.662 283.301C284.662 286.701 290.662 291.501 296.362 289.901C308.262 286.601 305.962 272.901 294.162 265.501V265.501Z" fill="#94D59D"/>
<path d="M301.162 315.8C295.462 317.9 290.262 318.5 284.462 319C264.162 320.5 266.662 339.5 266.662 339.5C266.662 339.5 270.962 331.4 282.762 336.1C294.362 340.7 310.562 340.4 315.462 326.8C318.762 317.4 308.762 313 301.162 315.8Z" fill="#94D59D"/>
<path d="M357.662 184.1C352.562 184.6 347.862 184.8 342.962 186.8C329.862 192.3 307.462 209.601 312.562 255.701C312.562 255.701 308.162 238.101 307.462 231.201C306.762 224.3 305.962 217.3 305.362 210.3C304.262 196.3 302.262 183.901 306.362 170.201C308.362 162.801 326.462 145.1 334.662 141.1C324.762 143.3 308.162 160 304.662 169.5C299.262 183.9 302.962 208.501 304.962 225.201C305.662 230.8 306.462 239.8 307.462 245.3C303.762 242.2 283.562 186.4 259.162 208.4C278.162 193.4 294.962 229.7 298.062 235C310.262 254.8 322.862 290.701 326.562 314.201C315.062 301.201 303.862 287.7 295.562 279.9C290.562 274.7 285.362 272.4 275.362 270.4C281.262 272.6 287.162 275.8 292.762 279.8C308.862 291.5 330.462 329.701 330.462 329.701C330.462 329.701 300.162 318.7 287.762 328.6C298.962 321.2 319.762 329.4 329.162 333.6C331.662 334.7 331.862 355.1 331.862 355.1C331.862 355.1 336.062 348.4 342.262 358.4C326.662 333.9 345.962 295.201 354.662 266.701C346.162 278.4 338.362 311.1 333.262 328.8C329.562 295.3 316.262 248.1 348.462 225.8C341.062 228.5 332.462 240.9 330.462 247.3C325.462 263.4 324.962 279.4 326.362 296.6C320.162 271.8 307.562 246.8 316.262 222.4C318.162 216.4 320.762 210.6 324.162 205.4C327.662 200.2 331.962 195.4 337.362 191.3C343.662 187.3 350.662 184.7 357.862 184.4C358.162 184.3 357.962 184.1 357.662 184.1V184.1Z" fill="#141633"/>
<path d="M316.157 177.255H198.628V202.762H316.157C323.159 202.762 328.91 197.01 328.91 190.009C328.91 183.007 323.284 177.255 316.157 177.255V177.255Z" fill="#141633"/>
<path d="M229.511 177.255H159.493V182.507H229.511C233.637 182.507 237.013 185.883 237.013 190.009C237.013 194.135 233.637 197.51 229.511 197.51H159.493V202.762H229.511C236.512 202.762 242.264 197.01 242.264 190.009C242.264 183.007 236.638 177.255 229.511 177.255V177.255Z" fill="#DFEAFE"/>
<path d="M229.511 182.632H163.995C168.121 182.632 171.496 186.008 171.496 190.134C171.496 194.26 168.121 197.636 163.995 197.636H229.511C233.637 197.636 237.013 194.26 237.013 190.134C237.013 185.883 233.637 182.632 229.511 182.632V182.632Z" fill="white"/>
<path d="M317.658 256.275H197.003V277.905H317.658C323.659 277.905 328.41 273.029 328.41 267.153C328.41 261.276 323.534 256.275 317.658 256.275Z" fill="#141633"/>
<path d="M223.009 256.275H146.615V260.776H223.009C226.51 260.776 229.386 263.652 229.386 267.153C229.386 270.654 226.51 273.529 223.009 273.529H146.615V278.03H223.009C229.011 278.03 233.762 273.154 233.762 267.278C233.762 261.401 229.011 256.275 223.009 256.275V256.275Z" fill="#DFEAFE"/>
<path d="M223.01 260.776H150.492C153.993 260.776 156.868 263.652 156.868 267.153C156.868 270.654 153.993 273.529 150.492 273.529H223.01C226.511 273.529 229.386 270.654 229.386 267.153C229.386 263.652 226.511 260.776 223.01 260.776Z" fill="white"/>
<path d="M143.114 352.924C140.114 355.925 138.238 360.051 138.238 364.677C138.238 373.804 145.615 381.181 154.742 381.181H264.144V348.048H154.742C150.241 348.173 146.115 349.923 143.114 352.924V352.924Z" fill="url(#paint1_linear)"/>
<path d="M248.265 364.677C248.265 373.804 255.642 381.181 264.769 381.181H337.037V376.305H264.769C258.393 376.305 253.142 371.053 253.142 364.677C253.142 358.3 258.393 353.049 264.769 353.049H337.037V348.173H264.769C255.767 348.173 248.265 355.55 248.265 364.677V364.677Z" fill="#002CA7"/>
<path d="M228.261 348.173H191.251C187.125 348.423 183.499 350.298 180.749 353.049C177.748 356.05 175.873 360.176 175.873 364.802C175.873 373.554 182.624 380.681 191.126 381.306H228.136C219.633 380.681 212.882 373.429 212.882 364.802C212.882 360.176 214.757 356.05 217.758 353.049C220.509 350.173 224.135 348.423 228.261 348.173V348.173Z" fill="white"/>
<path d="M334.162 353.049H264.894C258.518 353.049 253.267 358.3 253.267 364.677C253.267 371.054 258.518 376.305 264.894 376.305H334.162C327.785 376.305 322.534 371.054 322.534 364.677C322.534 358.3 327.66 353.049 334.162 353.049V353.049Z" fill="#E4EEF3"/>
<path d="M310.156 157H231.386V177.381H310.156C312.906 177.381 315.532 176.255 317.282 174.38C319.158 172.504 320.283 170.004 320.283 167.253C320.408 161.502 315.782 157 310.156 157V157Z" fill="#164BCD"/>
<path d="M231.011 157H179.248V160.001H231.011C235.012 160.001 238.138 163.252 238.138 167.128C238.138 171.129 234.887 174.255 231.011 174.255H179.248V177.256H231.011C236.638 177.256 241.139 172.754 241.139 167.128C241.139 161.502 236.638 157 231.011 157V157Z" fill="#002CA7"/>
<path d="M276.272 157H253.642C258.893 157.376 263.019 161.752 263.019 167.128C263.019 169.879 261.894 172.504 260.018 174.38C258.393 176.13 256.017 177.13 253.517 177.381H276.147C278.648 177.255 280.899 176.13 282.649 174.38C284.525 172.504 285.65 170.004 285.65 167.128C285.525 161.752 281.399 157.376 276.272 157V157Z" fill="#141633"/>
<path d="M231.011 160.001H180.999C185 160.001 188.126 163.252 188.126 167.128C188.126 171.129 184.875 174.255 180.999 174.255H231.011C235.012 174.255 238.138 171.004 238.138 167.128C238.138 163.127 234.887 160.001 231.011 160.001Z" fill="#E4EEF3"/>
<path d="M157.868 207.638C154.868 210.639 152.992 214.765 152.992 219.391C152.992 228.518 160.369 235.895 169.496 235.895H259.018V202.762H169.496C164.995 202.887 160.869 204.637 157.868 207.638Z" fill="#FD4B1B"/>
<path d="M243.14 219.391C243.14 228.518 250.516 235.895 259.644 235.895H324.535V231.019H259.644C253.267 231.019 248.016 225.767 248.016 219.391C248.016 213.014 253.267 207.763 259.644 207.763H324.535V202.887H259.644C250.641 202.887 243.14 210.264 243.14 219.391V219.391Z" fill="#002CA7"/>
<path d="M243.015 202.887H206.005C201.879 203.137 198.254 205.012 195.503 207.763C192.502 210.764 190.627 214.89 190.627 219.516C190.627 228.268 197.378 235.395 205.88 236.02H242.89C234.388 235.395 227.636 228.143 227.636 219.516C227.636 214.89 229.511 210.764 232.512 207.763C235.138 204.887 238.889 203.137 243.015 202.887V202.887Z" fill="#DFEAFE"/>
<path d="M321.533 207.763H259.768C253.392 207.763 248.14 213.014 248.14 219.391C248.14 225.767 253.392 231.019 259.768 231.019H321.533C315.157 231.019 309.906 225.767 309.906 219.391C309.906 213.014 315.157 207.763 321.533 207.763V207.763Z" fill="#E4EEF3"/>
<path d="M141.989 282.032C138.988 285.032 137.113 289.158 137.113 293.784C137.113 302.912 144.49 310.288 153.617 310.288H258.768V277.155H153.617C149.116 277.155 144.99 279.031 141.989 282.032V282.032Z" fill="#002CA7"/>
<path d="M243.014 293.659C243.014 302.787 250.391 310.163 259.518 310.163H352.291V305.287H259.518C253.142 305.287 247.89 300.036 247.89 293.659C247.89 287.283 253.142 282.032 259.518 282.032H352.291V277.155H259.518C250.516 277.155 243.014 284.532 243.014 293.659V293.659Z" fill="#141633"/>
<path d="M349.415 282.031H259.643C253.266 282.031 248.015 287.283 248.015 293.659C248.015 300.036 253.266 305.287 259.643 305.287H349.415C343.039 305.287 337.787 300.036 337.787 293.659C337.787 287.283 342.914 282.031 349.415 282.031Z" fill="#E4EEF3"/>
<path d="M160.494 238.896C158.618 240.771 157.493 243.272 157.493 246.023C157.493 251.649 161.994 256.15 167.62 256.15H253.392V235.895H167.62C164.87 235.895 162.244 237.02 160.494 238.896Z" fill="#002CA7"/>
<path d="M243.764 246.148C243.764 251.774 248.265 256.275 253.892 256.275H331.286V253.274H253.892C249.891 253.274 246.765 250.023 246.765 246.148C246.765 242.272 250.016 239.021 253.892 239.021H331.286V236.02H253.892C248.265 235.895 243.764 240.521 243.764 246.148V246.148Z" fill="#141633"/>
<path d="M329.411 238.896H253.892C249.891 238.896 246.765 242.147 246.765 246.023C246.765 249.898 250.016 253.149 253.892 253.149H329.411C325.41 253.149 322.284 249.898 322.284 246.023C322.284 242.147 325.41 238.896 329.411 238.896Z" fill="#E4EEF3"/>
<path d="M308.03 310.288H235.262V315.165V343.172V348.048H308.03C318.533 348.048 326.91 339.546 326.91 329.168C326.91 318.79 318.533 310.288 308.03 310.288Z" fill="#002CA7"/>
<path d="M308.03 315.165H238.763V343.172H308.03C315.782 343.172 322.034 336.92 322.034 329.168C322.034 321.416 315.782 315.165 308.03 315.165Z" fill="#E4EEF3"/>
<path d="M239.888 315.165H150.866C158.618 315.165 164.869 321.416 164.869 329.168C164.869 336.92 158.618 343.172 150.866 343.172H239.888C247.64 343.172 253.891 336.92 253.891 329.168C253.891 321.416 247.64 315.165 239.888 315.165V315.165Z" fill="white"/>
<path d="M235.262 310.288H148.115V315.165H235.262V310.288Z" fill="#FD4B1B"/>
<path d="M235.262 343.172H148.115V348.048H235.262V343.172Z" fill="#FD4B1B"/>
<path d="M315.044 177.255H197.515V202.762H315.044C322.046 202.762 327.797 197.01 327.797 190.009C327.797 183.007 322.171 177.255 315.044 177.255V177.255Z" fill="#141633"/>
<path d="M228.398 177.255H158.381V182.507H228.398C232.524 182.507 235.9 185.883 235.9 190.009C235.9 194.135 232.524 197.51 228.398 197.51H158.381V202.762H228.398C235.4 202.762 241.151 197.01 241.151 190.009C241.151 183.007 235.525 177.255 228.398 177.255V177.255Z" fill="#DFEAFE"/>
<path d="M228.398 182.632H162.882C167.008 182.632 170.383 186.008 170.383 190.134C170.383 194.26 167.008 197.636 162.882 197.636H228.398C232.524 197.636 235.9 194.26 235.9 190.134C235.9 185.883 232.524 182.632 228.398 182.632V182.632Z" fill="white"/>
<path d="M316.545 256.275H195.89V277.905H316.545C322.546 277.905 327.297 273.029 327.297 267.153C327.297 261.276 322.421 256.275 316.545 256.275Z" fill="#141633"/>
<path d="M221.897 256.275H145.503V260.776H221.897C225.397 260.776 228.273 263.652 228.273 267.153C228.273 270.654 225.397 273.529 221.897 273.529H145.503V278.03H221.897C227.898 278.03 232.649 273.154 232.649 267.278C232.649 261.401 227.898 256.275 221.897 256.275V256.275Z" fill="#DFEAFE"/>
<path d="M221.896 260.776H149.378C152.879 260.776 155.755 263.652 155.755 267.153C155.755 270.654 152.879 273.529 149.378 273.529H221.896C225.397 273.529 228.273 270.654 228.273 267.153C228.273 263.652 225.397 260.776 221.896 260.776Z" fill="white"/>
<path d="M142.001 352.924C139.001 355.925 137.125 360.051 137.125 364.677C137.125 373.804 144.502 381.181 153.629 381.181H263.031V348.048H153.629C149.128 348.173 145.002 349.923 142.001 352.924V352.924Z" fill="#FFCE76"/>
<path d="M247.152 364.677C247.152 373.804 254.529 381.181 263.656 381.181H335.924V376.305H263.656C257.28 376.305 252.029 371.053 252.029 364.677C252.029 358.3 257.28 353.049 263.656 353.049H335.924V348.173H263.656C254.654 348.173 247.152 355.55 247.152 364.677V364.677Z" fill="#002CA7"/>
<path d="M227.148 348.173H190.139C186.013 348.423 182.387 350.298 179.636 353.049C176.635 356.05 174.76 360.176 174.76 364.802C174.76 373.554 181.511 380.681 190.014 381.306H227.023C218.521 380.681 211.769 373.429 211.769 364.802C211.769 360.176 213.644 356.05 216.645 353.049C219.396 350.173 223.022 348.423 227.148 348.173V348.173Z" fill="white"/>
<path d="M333.049 353.049H263.782C257.405 353.049 252.154 358.3 252.154 364.677C252.154 371.054 257.405 376.305 263.782 376.305H333.049C326.672 376.305 321.421 371.054 321.421 364.677C321.421 358.3 326.547 353.049 333.049 353.049Z" fill="#E4EEF3"/>
<path d="M309.043 157H230.273V177.381H309.043C311.794 177.381 314.419 176.255 316.17 174.38C318.045 172.504 319.17 170.004 319.17 167.253C319.295 161.502 314.669 157 309.043 157Z" fill="#164BCD"/>
<path d="M229.898 157H178.135V160.001H229.898C233.899 160.001 237.025 163.252 237.025 167.128C237.025 171.129 233.774 174.255 229.898 174.255H178.135V177.256H229.898C235.525 177.256 240.026 172.754 240.026 167.128C240.026 161.502 235.525 157 229.898 157V157Z" fill="#002CA7"/>
<path d="M275.16 157H252.529C257.78 157.376 261.906 161.752 261.906 167.128C261.906 169.879 260.781 172.504 258.906 174.38C257.28 176.13 254.905 177.13 252.404 177.381H275.035C277.535 177.255 279.786 176.13 281.536 174.38C283.412 172.504 284.537 170.004 284.537 167.128C284.412 161.752 280.286 157.376 275.16 157V157Z" fill="#141633"/>
<path d="M229.898 160.001H179.886C183.887 160.001 187.013 163.252 187.013 167.128C187.013 171.129 183.762 174.255 179.886 174.255H229.898C233.899 174.255 237.025 171.004 237.025 167.128C237.025 163.127 233.774 160.001 229.898 160.001Z" fill="#E4EEF3"/>
<path d="M156.755 207.638C153.755 210.639 151.879 214.765 151.879 219.391C151.879 228.518 159.256 235.895 168.383 235.895H257.905V202.762H168.383C163.882 202.887 159.756 204.637 156.755 207.638Z" fill="#FD4B1B"/>
<path d="M242.026 219.391C242.026 228.518 249.403 235.895 258.53 235.895H323.421V231.019H258.53C252.154 231.019 246.903 225.767 246.903 219.391C246.903 213.014 252.154 207.763 258.53 207.763H323.421V202.887H258.53C249.528 202.887 242.026 210.264 242.026 219.391V219.391Z" fill="#002CA7"/>
<path d="M241.901 202.887H204.892C200.766 203.137 197.14 205.012 194.389 207.763C191.389 210.764 189.513 214.89 189.513 219.516C189.513 228.268 196.265 235.395 204.767 236.02H241.776C233.274 235.395 226.522 228.143 226.522 219.516C226.522 214.89 228.398 210.764 231.399 207.763C234.024 204.887 237.775 203.137 241.901 202.887V202.887Z" fill="#DFEAFE"/>
<path d="M320.42 207.763H258.655C252.279 207.763 247.027 213.014 247.027 219.391C247.027 225.767 252.279 231.019 258.655 231.019H320.42C314.044 231.019 308.793 225.767 308.793 219.391C308.793 213.014 314.044 207.763 320.42 207.763V207.763Z" fill="#E4EEF3"/>
<path d="M140.876 282.032C137.875 285.032 136 289.158 136 293.784C136 302.912 143.377 310.288 152.504 310.288H257.655V277.155H152.504C148.003 277.155 143.877 279.031 140.876 282.032V282.032Z" fill="#002CA7"/>
<path d="M241.901 293.659C241.901 302.787 249.278 310.163 258.405 310.163H351.178V305.287H258.405C252.028 305.287 246.777 300.036 246.777 293.659C246.777 287.283 252.028 282.032 258.405 282.032H351.178V277.155H258.405C249.403 277.155 241.901 284.532 241.901 293.659V293.659Z" fill="#141633"/>
<path d="M348.303 282.031H258.53C252.154 282.031 246.903 287.283 246.903 293.659C246.903 300.036 252.154 305.287 258.53 305.287H348.303C341.926 305.287 336.675 300.036 336.675 293.659C336.675 287.283 341.801 282.031 348.303 282.031Z" fill="#E4EEF3"/>
<path d="M159.381 238.896C157.505 240.771 156.38 243.272 156.38 246.023C156.38 251.649 160.881 256.15 166.508 256.15H252.279V235.895H166.508C163.757 235.895 161.131 237.02 159.381 238.896V238.896Z" fill="#002CA7"/>
<path d="M242.651 246.148C242.651 251.774 247.152 256.275 252.779 256.275H330.173V253.274H252.779C248.778 253.274 245.652 250.023 245.652 246.148C245.652 242.272 248.903 239.021 252.779 239.021H330.173V236.02H252.779C247.152 235.895 242.651 240.521 242.651 246.148V246.148Z" fill="#141633"/>
<path d="M328.298 238.896H252.779C248.778 238.896 245.652 242.147 245.652 246.023C245.652 249.898 248.903 253.149 252.779 253.149H328.298C324.297 253.149 321.171 249.898 321.171 246.023C321.171 242.147 324.297 238.896 328.298 238.896Z" fill="#E4EEF3"/>
<path d="M306.917 310.288H234.149V315.165V343.172V348.048H306.917C317.42 348.048 325.797 339.546 325.797 329.168C325.797 318.79 317.42 310.288 306.917 310.288Z" fill="#002CA7"/>
<path d="M306.917 315.165H237.65V343.172H306.917C314.669 343.172 320.92 336.92 320.92 329.168C320.92 321.416 314.669 315.165 306.917 315.165Z" fill="#E4EEF3"/>
<path d="M238.776 315.165H149.754C157.506 315.165 163.757 321.416 163.757 329.168C163.757 336.92 157.506 343.172 149.754 343.172H238.776C246.528 343.172 252.779 336.92 252.779 329.168C252.779 321.416 246.528 315.165 238.776 315.165Z" fill="white"/>
<path d="M234.149 310.288H147.003V315.165H234.149V310.288Z" fill="#FD4B1B"/>
<path d="M234.149 343.172H147.003V348.048H234.149V343.172Z" fill="#FD4B1B"/>
<path d="M315.044 177.255H197.515V202.762H315.044C322.046 202.762 327.797 197.01 327.797 190.009C327.797 183.007 322.171 177.255 315.044 177.255V177.255Z" fill="url(#paint2_linear)"/>
<path d="M228.398 177.255H158.381V182.507H228.398C232.524 182.507 235.9 185.883 235.9 190.009C235.9 194.135 232.524 197.51 228.398 197.51H158.381V202.762H228.398C235.4 202.762 241.151 197.01 241.151 190.009C241.151 183.007 235.525 177.255 228.398 177.255V177.255Z" fill="#DFEAFE"/>
<path d="M228.398 182.632H162.882C167.008 182.632 170.383 186.008 170.383 190.134C170.383 194.26 167.008 197.636 162.882 197.636H228.398C232.524 197.636 235.9 194.26 235.9 190.134C235.9 185.883 232.524 182.632 228.398 182.632V182.632Z" fill="white"/>
<path d="M316.545 256.275H195.89V277.905H316.545C322.546 277.905 327.297 273.029 327.297 267.153C327.297 261.276 322.421 256.275 316.545 256.275Z" fill="url(#paint3_linear)"/>
<path d="M221.897 256.275H145.503V260.776H221.897C225.397 260.776 228.273 263.652 228.273 267.153C228.273 270.654 225.397 273.529 221.897 273.529H145.503V278.03H221.897C227.898 278.03 232.649 273.154 232.649 267.278C232.649 261.401 227.898 256.275 221.897 256.275V256.275Z" fill="#DFEAFE"/>
<path d="M221.896 260.776H149.378C152.879 260.776 155.755 263.652 155.755 267.153C155.755 270.654 152.879 273.529 149.378 273.529H221.896C225.397 273.529 228.273 270.654 228.273 267.153C228.273 263.652 225.397 260.776 221.896 260.776Z" fill="white"/>
<path d="M247.152 364.677C247.152 373.804 254.529 381.181 263.656 381.181H335.924V376.305H263.656C257.28 376.305 252.029 371.053 252.029 364.677C252.029 358.3 257.28 353.049 263.656 353.049H335.924V348.173H263.656C254.654 348.173 247.152 355.55 247.152 364.677V364.677Z" fill="#002CA7"/>
<path d="M227.148 348.173H190.139C186.013 348.423 182.387 350.298 179.636 353.049C176.635 356.05 174.76 360.176 174.76 364.802C174.76 373.554 181.511 380.681 190.014 381.306H227.023C218.521 380.681 211.769 373.429 211.769 364.802C211.769 360.176 213.644 356.05 216.645 353.049C219.396 350.173 223.022 348.423 227.148 348.173V348.173Z" fill="white"/>
<path d="M333.049 353.049H263.782C257.405 353.049 252.154 358.3 252.154 364.677C252.154 371.053 257.405 376.305 263.782 376.305H333.049C326.672 376.305 321.421 371.053 321.421 364.677C321.421 358.3 326.547 353.049 333.049 353.049Z" fill="#E4EEF3"/>
<path d="M309.043 157H230.273V177.381H309.043C311.794 177.381 314.419 176.255 316.17 174.38C318.045 172.504 319.17 170.004 319.17 167.253C319.295 161.502 314.669 157 309.043 157Z" fill="#2A4AAE"/>
<path d="M229.898 157H178.135V160.001H229.898C233.899 160.001 237.025 163.252 237.025 167.128C237.025 171.129 233.774 174.255 229.898 174.255H178.135V177.256H229.898C235.525 177.256 240.026 172.754 240.026 167.128C240.026 161.502 235.525 157 229.898 157V157Z" fill="#002CA7"/>
<path d="M275.16 157H252.529C257.78 157.376 261.906 161.752 261.906 167.128C261.906 169.879 260.781 172.504 258.906 174.38C257.28 176.13 254.905 177.13 252.404 177.381H275.035C277.535 177.255 279.786 176.13 281.536 174.38C283.412 172.504 284.537 170.004 284.537 167.128C284.412 161.752 280.286 157.376 275.16 157V157Z" fill="#FD4B1B"/>
<path d="M229.898 160.001H179.886C183.887 160.001 187.013 163.252 187.013 167.128C187.013 171.129 183.762 174.255 179.886 174.255H229.898C233.899 174.255 237.025 171.004 237.025 167.128C237.025 163.127 233.774 160.001 229.898 160.001Z" fill="#E4EEF3"/>
<path d="M156.755 207.638C153.755 210.639 151.879 214.765 151.879 219.391C151.879 228.518 159.256 235.895 168.383 235.895H257.905V202.762H168.383C163.882 202.887 159.756 204.637 156.755 207.638Z" fill="#FD4B1B"/>
<path d="M242.026 219.391C242.026 228.518 249.403 235.895 258.53 235.895H323.421V231.019H258.53C252.154 231.019 246.903 225.767 246.903 219.391C246.903 213.014 252.154 207.763 258.53 207.763H323.421V202.887H258.53C249.528 202.887 242.026 210.264 242.026 219.391V219.391Z" fill="#002CA7"/>
<path d="M241.901 202.887H204.892C200.766 203.137 197.14 205.012 194.389 207.763C191.389 210.764 189.513 214.89 189.513 219.516C189.513 228.268 196.265 235.395 204.767 236.02H241.776C233.274 235.395 226.522 228.143 226.522 219.516C226.522 214.89 228.398 210.764 231.399 207.763C234.024 204.887 237.775 203.137 241.901 202.887V202.887Z" fill="#DFEAFE"/>
<path d="M320.42 207.763H258.655C252.279 207.763 247.027 213.014 247.027 219.391C247.027 225.767 252.279 231.019 258.655 231.019H320.42C314.044 231.019 308.793 225.767 308.793 219.391C308.793 213.014 314.044 207.763 320.42 207.763V207.763Z" fill="#E4EEF3"/>
<path d="M140.876 282.032C137.875 285.032 136 289.158 136 293.784C136 302.912 143.377 310.288 152.504 310.288H257.655V277.155H152.504C148.003 277.155 143.877 279.031 140.876 282.032V282.032Z" fill="#002CA7"/>
<path d="M241.901 293.659C241.901 302.787 249.278 310.163 258.405 310.163H351.178V305.287H258.405C252.028 305.287 246.777 300.036 246.777 293.659C246.777 287.283 252.028 282.032 258.405 282.032H351.178V277.155H258.405C249.403 277.155 241.901 284.532 241.901 293.659V293.659Z" fill="#141633"/>
<path d="M348.303 282.031H258.53C252.154 282.031 246.903 287.283 246.903 293.659C246.903 300.036 252.154 305.287 258.53 305.287H348.303C341.926 305.287 336.675 300.036 336.675 293.659C336.675 287.283 341.801 282.031 348.303 282.031Z" fill="#E4EEF3"/>
<path d="M159.381 238.896C157.505 240.771 156.38 243.272 156.38 246.023C156.38 251.649 160.881 256.15 166.508 256.15H252.279V235.895H166.508C163.757 235.895 161.131 237.02 159.381 238.896V238.896Z" fill="#002CA7"/>
<path d="M242.651 246.148C242.651 251.774 247.152 256.275 252.779 256.275H330.173V253.274H252.779C248.778 253.274 245.652 250.023 245.652 246.148C245.652 242.272 248.903 239.021 252.779 239.021H330.173V236.02H252.779C247.152 235.895 242.651 240.521 242.651 246.148V246.148Z" fill="#141633"/>
<path d="M328.298 238.896H252.779C248.778 238.896 245.652 242.147 245.652 246.023C245.652 249.898 248.903 253.149 252.779 253.149H328.298C324.297 253.149 321.171 249.898 321.171 246.023C321.171 242.147 324.297 238.896 328.298 238.896Z" fill="#E4EEF3"/>
<path d="M306.917 310.288H234.149V315.165V343.172V348.048H306.917C317.42 348.048 325.797 339.546 325.797 329.168C325.797 318.79 317.42 310.288 306.917 310.288Z" fill="#002CA7"/>
<path d="M306.917 315.165H237.65V343.172H306.917C314.669 343.172 320.92 336.92 320.92 329.168C320.92 321.416 314.669 315.165 306.917 315.165Z" fill="#E4EEF3"/>
<path d="M238.776 315.165H149.754C157.506 315.165 163.757 321.416 163.757 329.168C163.757 336.92 157.506 343.172 149.754 343.172H238.776C246.528 343.172 252.779 336.92 252.779 329.168C252.779 321.416 246.528 315.165 238.776 315.165Z" fill="white"/>
<path d="M234.149 310.288H147.003V315.165H234.149V310.288Z" fill="#FF967A"/>
<path d="M234.149 343.172H147.003V348.048H234.149V343.172Z" fill="#FF967A"/>
<path d="M162.033 308.765C157.644 307.032 153.832 310.844 151.638 314.655C149.905 317.543 148.519 320.662 145.631 322.625C144.476 323.318 143.206 323.78 141.82 323.78C136.853 323.665 135.582 318.121 137.199 314.424C138.585 311.306 141.242 308.996 143.783 306.454C150.136 300.102 154.872 292.016 157.413 283.353C158.915 277.924 159.492 271.571 155.334 267.182C153.139 264.872 149.79 263.948 146.786 265.103C143.206 266.605 142.513 270.07 141.935 273.304C141.473 275.961 140.896 278.848 138.585 280.581C137.084 281.621 135.005 281.852 133.619 280.581C132.233 279.426 132.348 277.578 132.464 275.961C133.041 265.681 129.46 255.285 122.645 247.546C118.949 243.388 112.481 239.807 107.861 243.619C106.706 244.543 105.897 245.929 105.435 247.431C104.395 250.896 105.204 254.476 106.013 257.942L110.402 276.769C110.864 278.502 108.785 279.888 107.283 278.848L94.2309 269.839C92.9603 269.03 91.5742 268.453 90.1881 268.337C85.3369 267.991 83.9508 272.149 83.9508 275.73C83.8353 283.584 87.9935 290.977 93.5378 296.521C99.0821 302.065 106.013 306.108 112.712 310.266C114.791 311.537 116.986 312.923 117.794 315.348C118.256 316.735 117.91 318.352 116.87 319.276C115.022 320.893 112.365 319.738 110.402 318.467C104.395 314.54 99.4287 308.88 92.0362 307.263C89.3796 306.685 86.7229 306.801 84.1818 307.725C76.4428 310.844 76.9049 319.045 80.4856 324.358C84.2973 329.902 90.0726 333.599 95.5014 337.41C106.359 345.149 121.606 359.01 136.275 354.621C144.823 352.08 152.446 345.496 157.875 338.681C161.918 333.598 164.805 327.708 166.191 321.47C166.884 318.236 167.231 314.886 165.498 311.883C164.459 310.266 163.419 309.227 162.033 308.765V308.765Z" fill="#94D59D"/>
<path d="M120.797 268.031C120.566 268.031 120.451 268.261 120.451 268.493C127.035 302.682 128.998 337.681 126.226 372.448C126.226 372.679 126.342 372.795 126.573 372.91C126.804 372.91 126.919 372.795 126.919 372.564C129.576 337.681 127.612 302.567 121.028 268.377C121.144 268.146 121.028 268.031 120.797 268.031V268.031Z" fill="#4655EE"/>
<path d="M149.79 274.73C149.559 274.614 149.328 274.73 149.328 274.961C147.71 279.35 145.747 284.201 142.975 288.475C140.896 291.709 137.199 295.983 131.886 297.947C125.302 300.488 116.755 298.871 109.709 293.904C103.24 289.284 98.5046 282.815 93.9999 276.462C93.8844 276.347 93.6534 276.231 93.4223 276.347C93.1913 276.463 93.1913 276.694 93.3068 276.925C97.9271 283.277 102.663 289.861 109.247 294.597C114.214 298.178 119.873 300.026 125.187 300.026C127.612 300.026 129.922 299.679 132.117 298.755C137.661 296.676 141.358 292.287 143.552 288.937C146.44 284.663 148.288 279.697 149.905 275.307C150.021 275.076 149.905 274.845 149.79 274.73V274.73Z" fill="#4655EE"/>
<path d="M155.218 322.088C151.638 328.441 145.747 337.335 136.622 340.338C128.767 342.994 119.296 340.915 111.095 334.909L109.478 333.754C102.547 328.671 95.9635 323.936 89.1487 316.89C89.0331 316.774 88.8021 316.774 88.5711 316.89C88.3401 317.005 88.4556 317.236 88.5711 317.467C95.5015 324.513 102.085 329.365 109.016 334.447L110.633 335.602C116.639 339.991 123.339 342.301 129.576 342.301C132.117 342.301 134.543 341.955 136.853 341.146C146.209 338.028 152.215 329.018 155.796 322.434C155.911 322.203 155.796 321.972 155.68 321.857C155.565 321.857 155.334 321.857 155.218 322.088V322.088Z" fill="#4655EE"/>
<path d="M170.581 314.385C169.772 314.154 168.848 314.154 167.924 314.269L158.452 316.464C157.297 316.695 156.489 315.54 157.182 314.5L163.881 304.682C165.152 302.834 166.307 301.101 166.538 298.791C166.653 297.867 166.422 296.943 165.96 296.019C164.228 292.785 159.723 293.363 156.72 294.98C151.06 297.867 146.671 303.065 144.707 309.071C144.361 309.995 144.13 311.151 142.975 311.497C141.935 311.844 140.78 311.266 140.202 310.342C139.278 308.84 139.509 307.108 139.856 305.375C140.202 303.412 140.087 300.524 138.932 299.6C137.892 298.791 134.889 298.445 133.619 298.907C131.308 299.831 129.114 304.22 128.767 307.801C128.19 313.345 129.114 319.005 131.308 324.087C132.117 326.051 133.157 328.015 133.272 330.094C133.272 332.635 131.308 335.522 128.536 334.483C127.728 334.252 127.15 333.674 126.688 332.981C125.418 331.249 125.418 329.054 125.071 327.09C124.725 324.434 123.338 321.315 120.451 321.431C119.527 321.431 118.718 321.777 118.025 322.355C116.408 323.741 115.831 325.704 115.484 327.668C114.906 331.595 115.138 335.638 116.293 339.45C117.794 344.647 120.682 350.076 124.956 353.426C132.348 359.201 143.899 356.429 151.869 354.466C155.796 353.426 160.07 350.885 163.535 348.575C166.769 346.38 168.848 341.76 165.152 338.179C163.997 337.024 162.38 336.331 160.763 336.1C156.258 335.407 152.1 337.486 147.826 338.41C146.44 338.757 144.707 338.757 144.014 337.371C143.552 336.562 143.783 335.638 144.361 334.829C145.285 333.559 146.902 333.212 148.403 332.981C153.139 332.173 157.99 331.364 162.38 329.401C166.769 327.437 170.812 324.087 172.544 319.583C173.237 317.965 173.353 315.309 170.581 314.385V314.385Z" fill="url(#paint4_linear)"/>
<path d="M152.908 305.801C152.677 305.685 152.33 305.685 152.215 305.916C140.78 324.166 131.77 343.918 125.417 364.594C125.302 364.825 125.533 365.171 125.764 365.171H125.879C126.11 365.171 126.341 365.056 126.457 364.825C132.81 344.265 141.704 324.513 153.139 306.379C153.139 306.147 153.139 305.916 152.908 305.801V305.801Z" fill="#4655EE"/>
<path d="M165.96 316.659C161.918 319.315 157.875 321.972 153.139 323.127C148.057 324.398 142.975 323.473 139.856 320.586C137.315 318.276 136.275 315.042 135.813 312.731C135.236 309.728 135.236 306.494 135.236 303.606C135.236 303.375 135.005 303.144 134.774 303.144C134.543 303.144 134.312 303.375 134.312 303.606C134.312 306.494 134.196 309.844 134.889 312.962C135.351 315.388 136.506 318.853 139.278 321.279C141.127 323.011 143.783 324.051 146.555 324.513C148.75 324.86 151.06 324.629 153.486 324.051C158.337 322.78 162.495 320.124 166.654 317.467C166.885 317.352 166.885 317.005 166.769 316.774C166.538 316.543 166.192 316.428 165.96 316.659V316.659Z" fill="#4655EE"/>
<path d="M159.607 340.915C154.063 343.456 149.327 344.727 144.245 345.997L143.09 346.344C137.199 347.961 131.308 346.921 127.612 343.803C123.107 340.107 121.837 333.754 121.259 329.249C121.259 329.018 121.028 328.787 120.682 328.787C120.451 328.787 120.22 329.018 120.22 329.364C120.797 333.985 122.183 340.569 126.919 344.496C129.114 346.344 131.886 347.499 134.889 347.845C137.546 348.192 140.433 347.961 143.321 347.268L144.476 346.921C149.558 345.535 154.41 344.265 159.954 341.724C160.185 341.608 160.301 341.377 160.185 341.031C160.185 340.915 159.838 340.8 159.607 340.915V340.915Z" fill="#4655EE"/>
<path d="M133.041 336.179C132.579 335.948 132.117 335.717 131.655 335.833C130.038 335.948 129.46 337.796 129.345 339.298C129.345 340.453 129.345 341.723 128.767 342.763C128.536 343.225 128.19 343.572 127.843 343.687C126.342 344.38 124.956 342.878 124.84 341.492C124.725 340.337 125.187 339.182 125.533 338.027C126.457 335.024 126.688 331.79 125.995 328.671C125.649 326.708 124.725 324.628 122.761 323.935C121.721 323.589 120.566 323.82 119.758 324.628C118.834 325.668 119.18 326.823 119.527 327.978C119.758 328.902 120.104 329.942 119.642 330.75C119.296 331.328 118.718 331.674 118.141 331.559C117.563 331.443 117.332 330.866 116.986 330.288C115.484 327.054 112.712 324.282 109.362 323.011C107.514 322.318 104.973 322.203 104.164 324.166C103.933 324.628 103.933 325.206 104.049 325.784C104.28 327.054 105.089 327.978 105.897 328.902L110.286 334.1C110.748 334.562 110.286 335.371 109.709 335.255L104.28 334.562C103.818 334.447 103.24 334.562 102.778 334.793C101.277 335.486 101.508 336.988 102.085 338.143C103.356 340.568 105.782 342.185 108.438 343.11C111.095 343.918 113.867 344.149 116.524 344.265C117.332 344.38 118.256 344.38 118.949 345.073C119.296 345.42 119.527 345.997 119.296 346.459C118.949 347.268 118.025 347.383 117.217 347.268C114.676 347.037 112.25 345.997 109.709 346.69C108.785 346.921 107.976 347.383 107.399 348.076C105.551 350.271 106.937 352.812 108.9 353.852C110.979 355.007 113.29 355.238 115.6 355.469C120.22 356.162 127.15 358.01 130.962 354.314C133.157 352.119 134.427 348.885 135.005 345.882C135.467 343.687 135.351 341.377 134.774 339.182C134.427 337.912 133.965 336.872 133.041 336.179V336.179Z" fill="url(#paint5_linear)"/>
<path d="M112.827 329.826C112.712 329.71 112.481 329.595 112.25 329.71C112.134 329.826 112.019 330.057 112.134 330.288C119.642 339.875 125.88 350.386 130.615 361.706C130.731 361.821 130.846 361.937 130.962 361.937H131.077C131.308 361.821 131.424 361.59 131.308 361.475C126.688 350.155 120.335 339.529 112.827 329.826V329.826Z" fill="#4655EE"/>
<path d="M122.415 327.285C122.184 327.285 122.068 327.516 122.068 327.747C122.299 329.364 122.415 331.212 122.299 332.945C122.184 334.215 121.722 336.063 120.451 337.565C118.834 339.298 116.062 340.106 113.174 339.76C110.517 339.413 107.976 338.143 105.551 336.872C105.32 336.756 105.089 336.872 104.973 336.988C104.858 337.103 104.973 337.45 105.089 337.565C107.514 338.836 110.055 340.106 112.943 340.568C113.521 340.684 114.214 340.684 114.791 340.684C117.332 340.684 119.527 339.76 120.913 338.143C122.299 336.525 122.761 334.562 122.877 333.06C123.108 331.212 122.877 329.364 122.646 327.747C122.877 327.4 122.646 327.169 122.415 327.285V327.285Z" fill="#4655EE"/>
<path d="M131.886 341.03C131.655 341.03 131.54 341.146 131.424 341.377C131.309 343.918 130.962 347.498 128.767 349.924C126.804 351.888 123.685 352.812 120.22 352.234L119.527 352.119C116.639 351.657 113.752 351.195 110.517 350.155C110.286 350.04 110.055 350.155 110.055 350.386C109.94 350.617 110.055 350.848 110.286 350.848C113.636 352.003 116.408 352.465 119.411 352.927L120.104 353.043C120.913 353.158 121.606 353.274 122.415 353.158C125.187 353.158 127.612 352.119 129.345 350.502C131.771 347.96 132.233 344.149 132.233 341.492C132.233 341.145 132.117 341.03 131.886 341.03Z" fill="#4655EE"/>
<path d="M144.014 355.66H115.831C114.791 355.66 114.098 356.584 114.214 357.624L115.253 362.244C115.369 362.937 116.062 363.515 116.87 363.515H142.975C143.668 363.515 144.361 363.053 144.592 362.244L145.632 357.624C145.747 356.7 145.054 355.66 144.014 355.66Z" fill="#FD4B1B"/>
<path d="M119.527 379.224C119.643 380.263 120.567 381.072 121.722 381.072H138.239C139.279 381.072 140.203 380.263 140.434 379.224L142.744 363.515H117.448L119.527 379.224Z" fill="#FD4B1B"/>
<path d="M110.914 230.9C109.914 231.3 108.814 231.6 107.814 231.7C107.914 232.3 108.114 233.1 109.314 233.2C109.814 233.2 112.114 231.4 112.214 230.9C112.214 230 111.414 230.6 110.914 230.9V230.9Z" fill="#ACC7FB"/>
<path d="M114.714 235.3C114.514 235.2 111.714 233.4 110.314 232.7C109.214 232.1 107.914 231.8 106.614 231.1C106.514 231.1 104.214 234.4 103.714 235.6C105.614 236.6 115.314 242 114.914 239.6C114.914 239.4 116.614 240.3 116.714 239.2C116.714 239.2 117.214 239.1 117.514 238.6C117.814 238 117.714 237.4 117.114 236.9C116.714 236.6 115.214 235.7 114.714 235.3V235.3Z" fill="#ACC7FB"/>
<path d="M80.9142 210.8C80.8142 210.1 78.0142 189.3 72.5142 178.9C69.6142 173.4 59.5142 171.8 59.5142 182.3C59.5142 189.1 67.3141 207.6 71.8141 213.9C76.1141 220 95.6142 232 104.414 236.1L107.014 231.3C103.414 229.7 95.3141 222.9 88.8141 217.4C85.9141 214.8 83.1142 212.5 80.9142 210.8V210.8Z" fill="#ACC7FB"/>
<path d="M79.0142 141.6C79.0142 141.1 79.5142 140.5 79.4142 140C79.3142 139.5 78.6142 139.1 78.5142 138.6C78.4142 138.1 78.9142 137.4 78.7142 136.9C78.6142 136.4 77.8142 136.1 77.6142 135.6C77.4142 135.1 77.8142 134.4 77.6142 133.9C77.4142 133.4 76.6142 133.2 76.4142 132.8C76.2142 132.3 76.4142 131.6 76.1142 131.2C75.8142 130.8 75.0142 130.7 74.7142 130.3C74.4142 129.9 74.5142 129.1 74.2142 128.7C73.9142 128.3 73.1142 128.3 72.7142 128C72.3142 127.6 72.4142 126.8 72.0142 126.5C71.6142 126.2 70.8142 126.3 70.4142 126C70.0142 125.7 69.9142 124.9 69.5142 124.6C69.1142 124.3 68.3142 124.6 67.9142 124.3C67.4142 124.1 67.3141 123.3 66.8141 123.1C66.3141 122.9 65.6142 123.2 65.1142 123.1C64.6142 122.9 64.3141 122.2 63.8141 122C63.3141 121.9 62.7142 122.3 62.1142 122.2C61.6142 122.1 61.2142 121.4 60.7142 121.3C60.2142 121.2 59.6142 121.8 59.1142 121.7C58.6142 121.7 58.1142 121 57.6142 121C57.1142 121 56.6142 121.6 56.1142 121.7C55.6142 121.7 55.0142 121.2 54.5142 121.3C54.0142 121.4 53.6142 122.1 53.1142 122.2C52.6142 122.3 51.9142 121.8 51.4142 122C50.9142 122.1 50.6142 122.9 50.1142 123.1C49.6142 123.3 48.9142 122.9 48.4142 123.1C47.9142 123.3 47.7141 124.1 47.3141 124.3C46.8141 124.5 46.1142 124.3 45.7142 124.6C45.3142 124.9 45.2141 125.7 44.8141 126C44.4141 126.3 43.6142 126.2 43.2142 126.5C42.8142 126.8 42.8142 127.6 42.5142 128C42.1142 128.4 41.3142 128.3 41.0142 128.7C40.7142 129.1 40.8142 129.9 40.5142 130.3C40.2142 130.7 39.4142 130.8 39.1142 131.2C38.8142 131.6 39.1141 132.4 38.8141 132.8C38.6141 133.3 37.8142 133.4 37.6142 133.9C37.4142 134.4 37.7142 135.1 37.6142 135.6C37.4142 136.1 36.7142 136.4 36.5142 136.9C36.4142 137.4 36.8142 138 36.7142 138.6C36.6142 139.1 35.9141 139.5 35.8141 140C35.7141 140.5 36.3142 141.1 36.2142 141.6C36.2142 142.1 35.5142 142.6 35.5142 143.1C35.5142 143.6 36.1142 144.1 36.2142 144.6C36.2142 145.1 35.7141 145.7 35.8141 146.2C35.9141 146.7 36.6142 147.1 36.7142 147.6C36.8142 148.1 36.3142 148.8 36.5142 149.3C36.6142 149.8 37.4142 150.1 37.6142 150.6C37.8142 151.1 37.4142 151.8 37.6142 152.3C37.8142 152.8 38.6141 153 38.8141 153.4C39.0141 153.9 38.8142 154.6 39.1142 155C39.4142 155.4 40.2142 155.5 40.5142 155.9C40.8142 156.3 40.7142 157.1 41.0142 157.5C41.3142 157.9 42.1142 157.9 42.5142 158.2C42.9142 158.6 42.8142 159.4 43.2142 159.7C43.6142 160 44.4141 159.9 44.8141 160.2C45.2141 160.5 45.3142 161.3 45.7142 161.6C46.1142 161.9 46.9141 161.6 47.3141 161.9C47.8141 162.1 47.9142 162.9 48.4142 163.1C48.9142 163.3 49.6142 163 50.1142 163.1C50.6142 163.3 50.9142 164 51.4142 164.2C51.9142 164.3 52.5142 163.9 53.1142 164C53.6142 164.1 54.0142 164.8 54.5142 164.9C55.0142 165 55.6142 164.4 56.1142 164.5C56.6142 164.5 57.1142 165.2 57.6142 165.2C58.1142 165.2 58.6142 164.6 59.1142 164.5C59.6142 164.5 60.2142 165 60.7142 164.9C61.2142 164.8 61.6142 164.1 62.1142 164C62.6142 163.9 63.3141 164.4 63.8141 164.2C64.3141 164.1 64.6142 163.3 65.1142 163.1C65.6142 162.9 66.3141 163.3 66.8141 163.1C67.3141 162.9 67.5142 162.1 67.9142 161.9C68.4142 161.7 69.1142 161.9 69.5142 161.6C69.9142 161.3 70.0142 160.5 70.4142 160.2C70.8142 159.9 71.6142 160 72.0142 159.7C72.4142 159.4 72.4142 158.6 72.7142 158.2C73.1142 157.8 73.9142 157.9 74.2142 157.5C74.5142 157.1 74.4142 156.3 74.7142 155.9C75.0142 155.5 75.8142 155.4 76.1142 155C76.4142 154.6 76.1142 153.8 76.4142 153.4C76.6142 152.9 77.4142 152.8 77.6142 152.3C77.8142 151.8 77.5142 151.1 77.6142 150.6C77.8142 150.1 78.5142 149.8 78.7142 149.3C78.8142 148.8 78.4142 148.2 78.5142 147.6C78.6142 147.1 79.3142 146.7 79.4142 146.2C79.5142 145.7 78.9142 145.1 79.0142 144.6C79.0142 144.1 79.7142 143.6 79.7142 143.1C79.7142 142.6 79.0142 142.1 79.0142 141.6Z" fill="#262BA1"/>
<path d="M64.4529 374.017C63.7144 373.192 62.7647 372 62.7647 372L58.3335 374.109C58.3335 374.109 58.0169 374.567 58.2279 375.759C58.2279 375.759 57.5949 377.135 58.4389 378.327C58.8609 378.969 61.8152 380.069 63.0813 380.344C64.3474 380.711 66.1409 381.077 68.251 380.986C70.3612 380.894 72.9988 379.885 72.9988 378.877C73.1044 376.676 65.93 375.576 64.4529 374.017Z" fill="#141633"/>
<path d="M64.0141 369.6L58.4142 370.6C58.4142 370.6 58.3141 372.5 58.5141 373.8C58.5141 373.8 61.9141 374.2 62.8141 373.7C64.4141 372.8 64.4142 372 64.4142 372C63.4142 370.6 64.0141 369.6 64.0141 369.6Z" fill="#ACC7FB"/>
<path d="M46.7144 236.1V262.2C48.7144 263.7 53.5143 287.1 57.0143 311.8C61.1143 340.4 57.9144 370.7 57.9144 370.7C59.9144 372.9 64.0143 370.7 64.0143 370.5C64.0143 370.5 71.8143 342.4 74.3143 311.6C77.2143 275.9 75.0144 236.6 74.6144 233.8C71.2144 235.2 56.7144 236.7 46.7144 236.1V236.1Z" fill="#5F84F2"/>
<path d="M33.3231 373.231C32.6253 372.358 31.9275 371 31.9275 371L27.641 372.94C27.641 372.94 27.2422 373.328 27.3419 374.687C27.3419 374.687 26.6441 376.045 27.2422 377.403C27.641 378.179 30.1331 379.052 31.429 379.925C32.4259 380.605 34.2202 380.896 36.3136 380.993C38.3074 381.09 40.8992 380.217 40.9989 379.052C41.0986 376.627 34.5193 374.978 33.3231 373.231V373.231Z" fill="#141633"/>
<path d="M32.4143 369.1L26.9143 369.7C26.9143 369.7 26.8143 371.7 26.9143 373C26.9143 373 30.7143 373.9 31.6143 373.5C33.2143 372.8 33.0143 371.6 33.0143 371.6C32.0143 370.2 32.4143 369.1 32.4143 369.1V369.1Z" fill="#ACC7FB"/>
<path d="M26.8143 234.4C25.4143 276.5 27.7143 290.2 30.2143 311.1C33.7143 339.8 26.5143 369.8 26.5143 369.8C28.4143 372.2 32.6144 370.3 32.6144 370.1C32.6144 370.1 42.5143 342.9 47.4143 312.5C53.1143 277 67.1143 242.7 66.9143 239.8C63.5143 241.1 36.8143 235.9 26.8143 234.4V234.4Z" fill="#5F84F2"/>
<path d="M52.2143 155.9C52.5143 158.7 51.4143 166.4 50.4143 167.8C52.5143 173 60.9143 173.3 61.6143 170.3C60.4143 167 62.0143 161 62.0143 160.4C60.0143 160.7 52.9143 156.5 52.2143 155.9V155.9Z" fill="#ACC7FB"/>
<path d="M60.2144 146.2C56.1144 146.3 53.5144 149.8 53.7144 153.8L53.8144 158C53.9144 161.1 58.8144 165.7 61.4144 165.1C67.6144 163.6 68.6144 152 68.4144 150.7C67.6144 147.1 64.0144 146.1 60.2144 146.2V146.2Z" fill="#ACC7FB"/>
<path d="M68.4143 172.7C67.1143 171.9 61.6143 170.3 61.6143 170.3C61.6143 170.3 61.8143 172.2 57.7143 172.2C54.7143 172.2 50.4143 167.8 50.4143 167.8C50.4143 167.8 43.9143 169 41.8143 169.8C23.3143 176.5 18.9143 217.5 23.9143 272.2C25.0143 273.2 26.9143 273 28.6143 272.5L32.7143 236.7L33.2143 257.2C51.8143 265.1 72.1143 262.2 76.7143 256C76.7143 234.4 73.1143 198.9 73.1143 189.3C73.0143 183.6 73.5143 175.9 68.4143 172.7V172.7Z" fill="#FFBDAC"/>
<path d="M58.1143 171.9C55.1143 171.9 50.4142 167.8 50.4142 167.8C50.4142 167.8 47.1142 168.3 46.0142 168.5C43.7142 168.9 41.8142 169.7 41.8142 169.7C50.0142 174 62.3142 185.5 62.3142 185.5C62.3142 185.5 67.6142 178.5 68.2142 172.5C66.6142 171.6 61.5142 170.2 61.5142 170.2C61.5142 170.2 61.1143 171.9 58.1143 171.9V171.9Z" fill="#ACC7FB"/>
<path d="M53.0144 152.2C52.0144 152.4 51.2144 153.9 51.4144 155C51.6144 156 53.0144 157.3 54.0144 157.4C54.2144 156.2 54.7144 153.9 54.7144 152.5C54.1144 152.1 53.4144 152.1 53.0144 152.2Z" fill="#ACC7FB"/>
<path d="M37.6143 234C37.6143 235.632 38.4142 237.1 39.5142 237.1H83.2142C84.2142 237.1 85.1143 235.795 85.1143 234H37.6143Z" fill="#ACC7FB"/>
<path d="M89.7142 196.7L80.6143 234.7C80.4143 235.3 80.6142 237.1 82.8142 237.1L119.814 236.6V194.2H93.0142C91.5142 194.2 90.1142 195.2 89.7142 196.7V196.7Z" fill="#DFEAFE"/>
<path d="M140.014 194.2H92.7142C92.2142 194.2 91.8142 194.5 91.7142 195L82.0142 235.7C81.8142 236.4 82.3142 237.1 83.0142 237.1H127.114C129.514 237.1 131.614 235.5 132.314 233.2L141.214 195.6C141.214 194.9 140.714 194.2 140.014 194.2Z" fill="#262BA1"/>
<path d="M61.8142 203.7C57.3142 203.7 53.6143 207.9 53.1143 213.4H70.5142C70.0142 207.9 66.3142 203.7 61.8142 203.7Z" fill="white"/>
<path d="M53.4142 218H70.1142C70.3142 217.2 70.4142 216.5 70.5142 215.6H53.0142C53.1142 216.5 53.3142 217.2 53.4142 218Z" fill="white"/>
<path d="M55.1142 221.7H68.5142C68.9142 221.1 69.3142 220.4 69.6142 219.7H54.0142C54.3142 220.4 54.7142 221 55.1142 221.7Z" fill="white"/>
<path d="M61.814 225.6C63.914 225.6 65.814 224.7 67.314 223.2H56.4141C57.8141 224.7 59.714 225.6 61.814 225.6V225.6Z" fill="white"/>
<path d="M86.4142 230.9C85.4142 231.3 84.3142 231.6 83.3142 231.7C83.4142 232.3 83.6142 233.1 84.8142 233.2C85.3142 233.2 87.6142 231.4 87.7142 230.9C87.8142 230 87.0142 230.6 86.4142 230.9V230.9Z" fill="#ACC7FB"/>
<path d="M90.2144 235.3C90.0144 235.2 87.2143 233.4 85.8143 232.7C84.7143 232.1 83.4144 231.8 82.1144 231.1C82.0144 231.1 79.7144 234.4 79.2144 235.6C81.1144 236.6 90.8144 242 90.4144 239.6C90.4144 239.4 92.1144 240.3 92.2144 239.2C92.2144 239.2 92.7143 239.1 93.0143 238.6C93.3143 238 93.2144 237.4 92.6144 236.9C92.2144 236.6 90.8144 235.7 90.2144 235.3V235.3Z" fill="#ACC7FB"/>
<path d="M56.5142 210.8C56.4142 210.1 53.6143 189.3 48.1143 178.9C45.2143 173.4 35.1143 171.8 35.1143 182.3C35.1143 189.1 42.9142 207.6 47.4142 213.9C51.7142 220 71.2142 232 80.0142 236.1L82.6143 231.3C79.0143 229.7 70.9142 222.9 64.4142 217.4C61.4142 214.8 58.6142 212.5 56.5142 210.8V210.8Z" fill="#ACC7FB"/>
<path d="M268.966 112.743C259.097 110.33 200.3 117.897 176.209 125.407C165.905 128.585 168.108 141.687 177.938 144.397C204.122 151.587 236.267 148.772 258.3 144.621C277.44 140.995 279.615 115.36 268.966 112.743V112.743Z" fill="#FFCE77"/>
<path d="M179.609 223.396L173.685 220.899C173.685 220.899 172.591 223.074 171.753 224.073C170.189 225.985 159.641 224.894 159.261 227.769C159.078 229.157 162.43 230.508 165.008 230.848C167.387 231.162 171.848 231.751 173.236 231.935C175.12 232.184 178.128 233.085 178.913 232.483C180.934 230.934 178.954 228.353 179.19 226.568C179.499 224.995 179.609 223.396 179.609 223.396V223.396Z" fill="#141633"/>
<path d="M173.526 220.575C173.526 220.575 172.98 222.419 171.766 223.974C171.766 223.974 170.98 224.576 172.078 225.427C172.991 226.153 179.216 226.37 179.216 226.37C179.413 224.883 179.818 221.81 179.818 221.81L173.526 220.575Z" fill="#ACC7FB"/>
<path d="M277.44 114.265C267.328 112.93 209.715 126.806 186.599 136.866C176.758 141.114 180.316 153.89 190.389 155.523C217.164 159.765 253.211 159.482 274.541 153.019C293.347 147.333 288.345 115.706 277.44 114.265V114.265Z" fill="#FFCE77"/>
<path d="M179.779 147.263C174.983 191.213 171.455 224.034 171.455 224.034C173.354 225.697 177.022 226.181 180.049 226.177C180.049 226.177 190.819 193.506 201.795 156.222C209 131.453 181.752 129.266 179.779 147.263V147.263Z" fill="#FFCE77"/>
<path d="M177.3 98.821C177.023 99.3897 179.034 100.967 179.629 101.045C181.069 100.832 180.876 99.9994 182.291 99.9845C181.101 99.8274 179.851 99.3597 178.8 98.9183C178.158 98.4301 177.616 97.955 177.3 98.821Z" fill="#ACC7FB"/>
<path d="M179.026 100.259C177.276 100.533 173.622 101.462 173.299 101.621C172.566 101.827 170.59 102.272 170.042 102.603C169.706 102.861 169.079 103.787 169.113 104.296C169.133 104.904 169.801 105.194 169.801 105.194C169.597 105.974 171.705 106.051 171.679 106.249C171.277 107.003 172.289 107.742 175.123 106.906C175.334 106.833 182.88 106.215 185.265 105.723C185.164 104.197 183.42 99.8311 183.321 99.818C182.006 99.846 180.467 100.046 179.026 100.259V100.259Z" fill="#ACC7FB"/>
<path d="M223.811 84.9917C223.315 84.9263 222.793 85.0591 222.384 85.1058C215.362 87.1036 190.497 98.95 182.911 99.8647C183.701 102.289 184.245 104.277 184.333 105.903C196.873 104.13 227.75 96.4058 228.517 91.3628C229.133 86.7033 226.117 85.0946 223.811 84.9917Z" fill="#ACC7FB"/>
<path d="M241.007 48.7311C240.399 48.7517 239.877 48.8845 239.613 49.354C237.449 51.9933 234.205 58.2223 230.81 64.8347C227.316 71.434 223.783 78.3308 220.913 82.4909C220.412 83.2316 220.023 83.8863 219.621 84.6402C216.748 85.7737 213.003 87.3974 208.934 89.18C200.163 92.9642 189.352 97.6893 185.031 98.3291L186.892 107.149C197.694 105.549 222.447 99.135 228.983 93.9461C235.829 88.6973 258.962 65.5266 255.062 59.1612C253.552 56.8436 243.511 48.8601 241.007 48.7311Z" fill="#262BA1"/>
<path d="M264.5 25.5C263.628 25.9901 256.891 31.5631 254.538 31.0506C254.546 31.7576 254.203 38.168 252.503 41.8773C252.95 45.3659 262.546 46.028 265.526 40.2686C264.546 38.5252 263.784 28.6332 264.5 25.5Z" fill="#ACC7FB"/>
<path d="M275.092 43.4484C272.665 42.7245 265.526 40.2685 265.526 40.2685C265.526 40.2685 260.039 44.3856 256.702 44.4493C254.383 44.4455 252.516 41.7782 252.516 41.7782C252.516 41.7782 247.733 42.8612 246.128 43.5571C239.966 46.6772 238.401 52.4217 238.876 57.2252C240.595 73.9947 230.04 114.965 230.04 114.965C236.527 118.546 273.923 145.474 287.286 135.941C287.286 135.941 296.521 90.4589 286.794 58.712C284.764 52.6944 282.357 45.7191 275.092 43.4484V43.4484Z" fill="#262BA1"/>
<path d="M255.938 13.5834C250.694 12.8909 246.38 14.3386 245.115 18.408C244.68 19.8636 244.74 33.186 253.111 35.9055C256.727 36.9882 263.882 32.3855 264.341 28.9156L264.969 24.1569C265.478 19.3825 261.539 14.3232 255.938 13.5834V13.5834Z" fill="#ACC7FB"/>
<path d="M151.13 209.144L145.041 207.13C145.041 207.13 144.145 209.331 143.393 210.443C142.015 212.48 131.448 212.295 131.267 215.196C131.182 216.597 134.673 217.663 137.191 217.693C139.596 217.809 144.011 217.988 145.511 218.086C147.321 218.123 150.554 218.853 151.253 218.138C153.101 216.365 150.997 213.969 151.021 212.257C151.218 210.77 151.13 209.144 151.13 209.144V209.144Z" fill="#141633"/>
<path d="M144.869 206.905C144.869 206.905 144.508 208.875 143.492 210.456C143.492 210.456 142.806 211.071 144.003 211.935C144.929 212.562 151.22 212.283 151.22 212.283C151.317 210.783 151.412 207.769 151.412 207.769L144.869 206.905Z" fill="#ACC7FB"/>
<path d="M168.099 134.12C154.274 176.172 143.885 207.481 143.885 207.481C145.434 209.502 149.394 210.831 152.499 210.233C152.499 210.233 169.182 181.671 187.728 147.405C199.992 124.816 173.787 117.018 168.099 134.12V134.12Z" fill="#FFCE77"/>
<path d="M206.104 125.119C205.96 126.209 206.735 127.219 207.825 127.363L254.52 133.53C255.611 133.674 256.621 132.9 256.765 131.809L206.104 125.119Z" fill="#141633"/>
<path d="M206.482 83.3083C206.295 81.6697 204.952 80.3828 203.266 80.1603L174.615 76.3763L168.632 121.683L208.123 127.403C210.502 127.717 210.949 125.86 210.829 125.238L206.482 83.3083Z" fill="#141633"/>
<path d="M204.649 81.1497C204.615 80.6409 204.172 80.1789 203.676 80.1134L153.115 73.4359C152.322 73.3312 151.735 73.9597 151.828 74.779L156.043 116.187C156.41 118.757 158.467 120.744 161.045 121.084L208.136 127.304C208.929 127.408 209.516 126.78 209.423 125.961L204.649 81.1497Z" fill="#C1D6FB"/>
<path d="M275.894 56.4655C271.635 64.2751 264.796 70.2309 259.162 77.7581C251.437 88.1359 242.522 103.703 231.289 110.087C242.47 109.445 253.661 107.191 259.234 103.186C267.163 97.3744 286.48 71.7833 276.816 59.4116C276.339 58.4408 275.975 57.3839 275.894 56.4655V56.4655Z" fill="#141633"/>
<path d="M208.965 108.046C208.396 107.769 207.754 107.281 207.537 108.16C207.36 108.742 209.509 110.035 210.104 110.113C211.471 109.689 211.265 108.955 212.607 108.729C211.391 108.77 210.115 108.501 208.965 108.046V108.046Z" fill="#ACC7FB"/>
<path d="M213.624 108.662C212.296 108.789 210.843 109.101 209.376 109.513C207.711 109.898 204.092 111.337 203.881 111.41C203.134 111.715 201.245 112.272 200.783 112.715C200.446 112.973 200.005 114.025 200.039 114.534C200.059 115.141 200.74 115.332 200.74 115.332C200.635 116.125 202.77 116.004 202.644 116.189C202.341 116.956 203.366 117.596 206.14 116.449C206.352 116.376 213.705 114.926 216.017 114.223C215.903 112.796 213.723 108.675 213.624 108.662V108.662Z" fill="#ACC7FB"/>
<path d="M265.376 52.8573C261.603 58.512 254.638 79.1778 249.376 88.4688C242.934 99.8231 253.164 100.266 256.26 97.4474C264.299 90.0363 282.924 65.8668 279.495 61.2784C277.933 59.3573 266.016 51.8322 265.376 52.8573V52.8573Z" fill="#ACC7FB"/>
<path d="M252.258 89.5556C251.75 89.5893 251.228 89.7221 250.904 89.8811C244.088 92.6122 220.693 107.074 213.215 108.708C214.228 110.961 214.971 112.975 215.27 114.528C227.571 111.512 257.38 100.42 257.651 95.3113C257.758 90.6854 254.492 89.4471 252.258 89.5556V89.5556Z" fill="#ACC7FB"/>
<path d="M266.141 51.6471C265.533 51.6677 265.084 52.0118 264.834 52.3822C262.941 55.2591 252.131 82.8816 249.718 87.4046C249.316 88.1584 248.914 88.9123 248.611 89.6792C245.896 91.1364 242.298 93.1828 238.487 95.3021C230.193 100.057 219.945 105.865 215.67 106.915L218.476 115.456C229.026 112.713 252.917 103.663 258.936 97.801C265.18 91.7666 285.687 66.3326 281.126 60.3843C279.577 58.3641 268.685 51.4787 266.141 51.6471Z" fill="#262BA1"/>
<path d="M243.945 13.9433C248.225 5.52637 258.211 3.6966 263.799 8.94192C272.121 16.6269 263.918 25.059 263.799 32.5C263.799 32.5 263.442 20.8964 260.589 17.2369C247.868 23.5801 241.686 21.5063 238 18.2127C238 18.0908 241.448 19.0666 243.945 13.9433V13.9433Z" fill="#FEC051"/>
</g>
<defs>
<linearGradient id="paint0_linear" x1="97.9972" y1="381.751" x2="184.388" y2="102.358" gradientUnits="userSpaceOnUse">
<stop stop-color="#ECECEC"/>
<stop offset="1" stop-color="#F3F3F3" stop-opacity="0.16"/>
</linearGradient>
<linearGradient id="paint1_linear" x1="138.233" y1="364.67" x2="264.218" y2="364.67" gradientUnits="userSpaceOnUse">
<stop stop-color="#4D5EEE"/>
<stop offset="1" stop-color="#88E0FB"/>
</linearGradient>
<linearGradient id="paint2_linear" x1="197.565" y1="190.043" x2="327.863" y2="190.043" gradientUnits="userSpaceOnUse">
<stop stop-color="#3F49DC"/>
<stop offset="1" stop-color="#272CA3"/>
</linearGradient>
<linearGradient id="paint3_linear" x1="195.855" y1="267.041" x2="327.298" y2="267.041" gradientUnits="userSpaceOnUse">
<stop stop-color="#3F49DC"/>
<stop offset="1" stop-color="#272CA3"/>
</linearGradient>
<linearGradient id="paint4_linear" x1="115.026" y1="325.483" x2="172.953" y2="325.483" gradientUnits="userSpaceOnUse">
<stop stop-color="#3FDC6B"/>
<stop offset="1" stop-color="#27A33B"/>
</linearGradient>
<linearGradient id="paint5_linear" x1="101.584" y1="339.466" x2="135.75" y2="354.143" gradientUnits="userSpaceOnUse">
<stop stop-color="#17C772"/>
<stop offset="1" stop-color="#309F34"/>
</linearGradient>
<clipPath id="clip0">
<rect width="309" height="381" fill="white"/>
</clipPath>
</defs>
</svg>
