<svg fill="none" height="323" viewBox="0 0 249 323" width="249" xmlns="http://www.w3.org/2000/svg" xmlns:xlink="http://www.w3.org/1999/xlink"><linearGradient id="a" gradientUnits="userSpaceOnUse" x1="148.627" x2="38.1298" y1="335.03" y2="64.2643"><stop offset="0" stop-color="#f3f3f3"/><stop offset="1" stop-color="#f3f3f3" stop-opacity=".16"/></linearGradient><radialGradient id="b" cx="0" cy="0" gradientTransform="matrix(24.55585451 43.24756014 -39.17461423 22.24324619 32.0267 16.1262)" gradientUnits="userSpaceOnUse" r="1"><stop offset=".385417" stop-color="#ffce76"/><stop offset="1" stop-color="#ffce76" stop-opacity=".35"/></radialGradient><linearGradient id="c"><stop offset="0" stop-color="#fff"/><stop offset=".0390585" stop-color="#f3f3f3"/><stop offset=".3989" stop-color="#8d8d8d"/><stop offset=".6885" stop-color="#414141"/><stop offset=".8938" stop-color="#121212"/><stop offset=".9961"/><stop offset="1"/></linearGradient><linearGradient id="d" gradientUnits="userSpaceOnUse" x1="33.6817" x2="39.1151" xlink:href="#c" y1="9.53405" y2="14.9675"/><linearGradient id="e" gradientUnits="userSpaceOnUse" x1="35.9343" x2="42.867" xlink:href="#c" y1="13.1012" y2="20.0338"/><linearGradient id="f" gradientUnits="userSpaceOnUse" x1="21.7594" x2="28.7454" xlink:href="#c" y1="12.5128" y2="19.4988"/><linearGradient id="g" gradientUnits="userSpaceOnUse" x1="26.6663" x2="34.6945" xlink:href="#c" y1="14.5609" y2="22.5892"/><linearGradient id="h"><stop offset="0"/><stop offset=".003922"/><stop offset=".1062" stop-color="#121212"/><stop offset=".3115" stop-color="#414141"/><stop offset=".6011" stop-color="#8d8d8d"/><stop offset=".9609" stop-color="#f3f3f3"/><stop offset="1" stop-color="#fff"/></linearGradient><linearGradient id="i" gradientUnits="userSpaceOnUse" x1="39.4552" x2="39.4552" xlink:href="#h" y1="59.4084" y2="36.997"/><linearGradient id="j" gradientUnits="userSpaceOnUse" x1="48.1596" x2="48.1596" xlink:href="#h" y1="59.4084" y2="36.997"/><linearGradient id="k"><stop offset="0" stop-color="#88e0fb"/><stop offset="1" stop-color="#4d5eee"/></linearGradient><linearGradient id="l" gradientUnits="userSpaceOnUse" x1="187.341" x2="187.341" xlink:href="#k" y1="47.1407" y2="79.2034"/><linearGradient id="m" gradientUnits="userSpaceOnUse" x1="141.161" x2="141.161" y1="92.8077" y2="166.072"><stop offset="0" stop-color="#3c46d5"/><stop offset="1" stop-color="#272ca3"/></linearGradient><linearGradient id="n" gradientUnits="userSpaceOnUse" x1="167.148" x2="167.148" y1="92.8078" y2="166.072"><stop offset="0" stop-color="#3f49db"/><stop offset="1" stop-color="#4e53c6"/></linearGradient><linearGradient id="o" gradientUnits="userSpaceOnUse" x1="159.022" x2="159.022" xlink:href="#k" y1="42.1417" y2="74.204"/><linearGradient id="p" gradientUnits="userSpaceOnUse" x1="175.892" x2="175.892" y1="92.8086" y2="166.072"><stop offset="0" stop-color="#3e48d9"/><stop offset="1" stop-color="#272ca3"/></linearGradient><path d="m215.385 255.441h-.003c7.479-6.762 13.326-15.488 16.645-25.727 8.69-26.808-2.74-55.376-25.999-69.753l-131.4092-85.6985c-7.0062-5.6205-15.1468-10.0952-24.2195-13.0361-39.574-12.8277-81.9009 8.3826-94.54 47.3746-4.3193 13.325-4.6125 27.003-1.5474 39.747l-.0053-.005 18.3392 98.935c2.8073 19.928 16.4114 37.677 36.60129 45.147l-.01191.048 2.27402.737 49.8544 16.16 46.3884 15.037.592.191.002-.003c16.592 5.138 33.9.509 45.495-10.666v.002z" fill="url(#a)"/><g fill="#94d59d"><path d="m154.438 129.388c-5 2.3-9.5 4.6-12.9 7.1-6.8 5-12.4 14.2-4.5 20.5 21 17 37.2-25 61.5-49.1-3.2 2.8-22.6 12.5-28.1 14.7-5.5 2.3-11 4.5-16 6.8z"/><path d="m164.938 164.188c-5.7 1-10.9 3-15 6.6-6 5.9-11.8 18.4-5 20.3 6.7 2.9 10.6-2.9 15.4-5.8 7.7-6.7 15.4-14.4 25.9-16.5 4.4-1.3 8.2-1.9 10.9-1.1-4.2-1.6-9.2-3-14.5-3.7-5.8-.7-12-.8-17.7.2z"/><path d="m197.138 167.888c.4.2.8.3 1.1.5-.3-.3-.7-.4-1.1-.5z"/><path d="m118.138 177.688c-3.5-1.2-13.3-1.2-19.5002 1.8-13.8 6.7-17.9 17.5-17 26.5 18.2-18.1 40.3002.2 46.1002-8.4 5.7-6.7 1.3-16.1-9.6-19.9z"/><path d="m169.938 198.788c-10.6 2.9-25 15.4-17.3 25s13.4-7.7 19.8-14.9c6.1-6.5 13.3-11.4 20.9-7.7-7.1-4.3-15.7-4.3-23.4-2.4z"/><path d="m128.938 231.388c-3.1-1.9-7.1-2.5-11.7-1.8-9.2 1.5-13 5.9-14.4 14.3 4.8-3.4 9.5-1.4 14.1 1.3 4.6 2.6 9.3 6.4 13.7 5.1 9.1-2.5 7.3-13.1-1.7-18.9z"/><path d="m161.238 255.388c0 4.8 6.7 4.8 10.6 1 4.8-4.8 4.8-11.5 8.4-17 3.9-8.4 7-15.8 8.4-15.6-18.7-4.8-28.3 17.2-27.4 31.6z"/><path d="m134.338 270.388c-4.4 1.6-8.4 2.1-13 2.4-15.7 1.1-13.8 15.9-13.8 15.9s3.4-6.2 12.5-2.6c9 3.5 21.5 3.4 25.3-7.2 2.6-7.3-5.2-10.6-11-8.5z"/></g><path d="m178.038 168.388c-4 .4-7.6.5-11.4 2.1-10.2 4.2-27.5 17.6-23.5 53.4 0 0-3.4-13.6-3.9-19s-1.2-10.8-1.6-16.2c-.9-10.8-2.4-20.4.8-31.1 1.5-5.8 15.6-19.4 22-22.5-7.7 1.7-20.5 14.6-23.3 22-4.2 11.2-1.3 30.2.3 43.2.5 4.3 1.2 11.3 1.9 15.6-2.9-2.4-18.5-45.6-37.4-28.5 14.8-11.6 27.7 16.5 30.1 20.6 9.5 15.3 19.2 43.1 22.1 61.4-8.9-10.1-17.6-20.5-24-26.6-3.9-4-7.9-5.8-15.7-7.4 4.6 1.7 9.1 4.2 13.5 7.3 12.5 9 29.2 38.7 29.2 38.7s-23.5-8.5-33.1-.8c8.6-5.8 24.8.6 32.1 3.8 2 .9 2.1 16.7 2.1 16.7s3.2-5.2 8 2.5c-12.1-19 2.9-48.9 9.6-71-6.6 9-12.6 34.4-16.6 48.1-2.9-25.9-13.2-62.5 11.8-79.8-5.7 2.1-12.4 11.7-14 16.7-3.9 12.5-4.3 24.8-3.2 38.2-4.8-19.2-14.6-38.6-7.8-57.5 1.4-4.7 3.5-9.1 6.1-13.2s6.1-7.8 10.2-10.9c4.9-3.1 10.3-5.1 15.9-5.4.2-.2 0-.4-.2-.4z" fill="#141633"/><path d="m202.438 182.488c15.5-.2 28.9-11.6 35.2-24.3 4.2-8.4 11.1-12.9 15-14-44.3 9.2-37.9 19.2-50.2 38.3z" fill="#94d59d"/><path d="m213.438 187.088c-7.6 1.4-21.8 10.7-14.2 18.4 12.1 12.3 18.7-11.1 32.4-12.1 3.7-.5 10.2-.2 12 1.8-7.6-7.7-19.6-10-30.2-8.1z" fill="#94d59d"/><path d="m172.438 178.588c-15.7-2.2-14.8 10-22 13.9 2.7-1.3 10-3.2 13-2.7 8.9 1.7 11.8 12.1 18.3 7.8 3.4-2.1 3.1-17.2-9.3-19z" fill="#94d59d"/><path d="m212.038 212.688c-5 .6-11.6 3-16.3 6.2s-7.5 7.2-4.6 10.6c3.9 3.6 12.4-3.4 19.1-6.2 7.8-3.2 15.4-5 19 1-3.9-6-9.1-11.3-17.2-11.6z" fill="#94d59d"/><path d="m166.438 208.988c-6.6-2.4-12-.6-16.3 5.9 3-3.6 7.1.6 10.2 5.6 3.1 5.1.7 8.9 5.1 11.3 6.7 3.7 10.3-2.7 10.3-8.2.1-5.5-3.5-12.1-9.3-14.6z" fill="#94d59d"/><path d="m187.438 246.688c-3.6 4.1-6.4 13.5-2.7 15.9 6.9 4.5 13.6-1.9 18.2-11 3.8-7.5 5.1-10 12.2-10.3-9.4-7-21.4-1.8-27.7 5.4z" fill="#94d59d"/><path d="m161.438 255.888c-7.1-1.3-18.3-6.9-18.3-6.9s1.6 14.5 5.8 17.8 11.1 5.6 16.1.4c4.7-4.8 1.2-9.8-3.6-11.3z" fill="#94d59d"/><path d="m229.338 191.788c-16.4-1.8-38.3 16.8-46.8 32.6 6.3-17.3 18-41.7 32.7-54.4-14.2 9.7-25.2 28.8-31.8 44.3 1.5-14.2-2.1-29.9-16.7-30.8 29.1 7.6 9 52.4 7.7 72-2.6-15 .3-35.3-14.3-43 14.1 11.5 12.6 42.8 12.4 54.9-.1 4.8-.5 10.6-4.1 4-2.8-5.1-7.8-13.4-16.5-13.2 25.2 14.4 15.2 41.2 15.2 41.2l3.2.8c-.8-12.9 17.4-42.1 32.7-57.8-3.7 1.5-7.1 4.9-9.5 8.1-6.6 8.7-13.8 17.8-20.2 28.1 1.9-21.6 16.7-60.6 40.8-62-23.7-1-32.8 31.4-37.7 37.8.9-28.2 24.8-61.2 53.2-62.5-.1.1-.2 0-.3-.1z" fill="#141633"/><path d="m181.238 286.288h-36.7c-1.3 0-2.3 1.2-2 2.5l1.4 6c.2 1 1.1 1.6 2 1.6h34c1 0 1.8-.7 2-1.6l1.4-6c.2-1.3-.7-2.5-2.1-2.5z" fill="#ffce76"/><path d="m149.338 316.888c.2 1.4 1.4 2.4 2.8 2.4h21.5c1.4 0 2.6-1 2.8-2.4l3-20.5h-33z" fill="#ffce76"/><path d="m58.3731 4.13453c-4.3592-2.74137-9.3476-4.13453-14.381-4.13453-6.9208 0-13.7967 2.60655-19.0997 7.90953-8.5836 8.58367-10.1565 21.52647-4.7637 31.72797 1.2134 2.3369 2.8313 4.494 4.7637 6.4265 3.4155 3.4155 5.3929 9.2577 5.2581 13.5271h27.6833c-.1348-4.2694 1.8426-10.0667 5.258-13.5271 10.5161-10.5161 10.5161-27.6384 0-38.15447-1.4381-1.48304-3.0559-2.74137-4.7187-3.775z" fill="url(#b)"/><path d="m57.4742 59.4113h-26.8744c-1.1685 0-2.1572.9437-2.1572 2.1571v5.5277c0 6.4714 5.2131 11.6845 11.6845 11.6845h7.8197c6.4714 0 11.6845-5.2131 11.6845-11.6845v-5.5277c0-1.2134-.9887-2.1571-2.1571-2.1571z" fill="#2a4aae"/><path d="m57.4742 59.4113h-26.8744c-1.1685 0-2.1572.9437-2.1572 2.1571v2.247h17.8864c1.2133 0 2.202.9887 2.202 2.2021s-.9887 2.2021-2.202 2.2021h-17.8414c.1348 1.5729.6292 3.1009 1.3482 4.4491h16.1336c1.2134 0 2.2021.9887 2.2021 2.2021v3.9098c6.2917-.1798 11.3699-5.3479 11.3699-11.6845v-5.5277c.0899-1.2134-.8988-2.1571-2.0672-2.1571z" fill="#575bb4"/><path d="m38.0148 79.3648c.4494.4944.9886.8539 1.6628 1.0337l1.8875.4494c.8089.1798 1.6628 2.9211 2.5166 2.9211.8539 0 1.7078-2.6964 2.5167-2.9211l1.8875-.4494c.6292-.1348 1.2134-.4944 1.6628-1.0337l.9437-1.1235h-13.9764z" fill="#2a4aae"/><path d="m44.5762 83.3645h-1.0336c-.4494 0-.764.3595-.764.764v5.7074c0 .4494.3595.764.764.764h1.0336c.4494 0 .764-.3595.764-.764v-5.7074c0-.4045-.3596-.764-.764-.764z" fill="#2a4aae"/><g opacity=".55"><path d="m28.5325 10.9205c1.0336.8989 2.0223 1.7977 3.0559 2.6965 1.5729-1.8426 3.5503-3.3706 5.7524-4.40419-.4494-1.30327-.9437-2.65148-1.3932-3.95475-2.8761 1.30327-5.3928 3.28064-7.4151 5.66244z" fill="url(#d)" opacity=".55"/><path d="m32.1726 14.1113c1.0336.8988 2.0223 1.7976 3.056 2.6964 1.0336-1.2134 2.2919-2.202 3.73-2.8312-.4494-1.3033-.9437-2.6515-1.3931-3.9548-2.0673.9438-3.9099 2.3819-5.3929 4.0896z" fill="url(#e)" opacity=".55"/><path d="m23.5891 20.9873c1.3932.1348 2.7863.2696 4.1795.4045.4943-2.3819 1.483-4.6739 2.8762-6.6063-1.1235-.764-2.2021-1.5729-3.3256-2.3369-1.7977 2.5167-3.1009 5.4378-3.7301 8.5387z" fill="url(#f)" opacity=".55"/><path d="m28.6223 21.4816c1.3932.1348 2.7863.2696 4.1795.4045.3146-1.573.9437-3.0111 1.8875-4.3143-1.1235-.764-2.2021-1.5729-3.3256-2.3369-1.3932 1.8425-2.3369 3.9997-2.7414 6.2467z" fill="url(#g)" opacity=".55"/></g><path d="m39.4532 36.9861c-.7191 0-1.3482.5842-1.3482 1.3482v21.0771h2.6515v-21.0771c.0449-.719-.5843-1.3482-1.3033-1.3482z" fill="url(#i)"/><path d="m48.1715 36.9861c-.7191 0-1.3483.5842-1.3483 1.3482v21.0771h2.6515v-21.0771c0-.719-.5842-1.3482-1.3032-1.3482z" fill="url(#j)"/><path d="m31.9221 191.9h-20.8v3.7h20.8c1 0 1.7999-.8 1.7999-1.8s-.7999-1.9-1.7999-1.9z" fill="#fff"/><path d="m.722107 175.4.299983 8.5-6.59997 8h20.29998l6.6-6.7c.8-.8 1.1-1.8 1-2.9l-.7-7h-20.899993z" fill="#acc7fb"/><path d="m.722168 175.4.099976 3.1h21.200056l-.3-3.1z" fill="#262ba1"/><path d="m11.9221 191.9h-17.20006l6.70002-6.7c.8-.8 1.1-1.8 1-2.9l-.70002-7h-3.70001l.70001 7.2-6.70001 6.7c-.9.9-1.29997 2.1-1.09997 3.3.4 1.7 1.8 2.8 3.5 2.8h17.50004c1 0 1.7999-.8 1.7999-1.8 0-.7-.7999-1.6-1.7999-1.6z" fill="#dfeafe"/><path d="m58.6221 108.6c-.3-3.2-2.9-5.6-6.1-5.6h-94.4c-3.6 0-6.4001 3.1-6.1001 6.7l5.3 60.3c.3 3.2 2.9001 5.6 6.1001 5.6h94.4999c3.6 0 6.4001-3.1 6.1001-6.7z" fill="#dfeafe"/><path d="m61.522 108.6c0-.2-.1001-.4-.1001-.6-.5-2.9-3.1-5-6-5h-94.4c-3.6 0-6.4 3.1-6.1 6.7l5.3 60.3c.3 3.2 2.9 5.6 6.1 5.6h94.4c3.6 0 6.4-3.1 6.1-6.7z" fill="#acc7fb"/><path d="m57.922 108.9c-.1-1.3-1.1999-2.2-2.3999-2.2h-94.5c-.9 0-1.5.5-1.8.8s-.7.9-.6 1.9l.3 3.1 5 57.1c.1 1.3 1.2 2.2 2.5 2.2h94.4999c.9 0 1.5001-.5 1.8001-.8s.7-.9.6-1.9l-5-56.7z" fill="#6f0871"/><path d="m55.422 106.6h-94.5c-.9 0-1.5.5-1.8.8s-.7.9-.6 1.9l5.3 60.3c.1 1.3 1.2 2.2 2.4 2.2h94.5c.9 0 1.5001-.5 1.8001-.8s.6999-.9.5999-1.9l-5.3-60.3c0-1.2-1.1-2.2-2.4-2.2z" fill="#8aa6e6"/><path d="m55.422 106.6h-94.5c-.9 0-1.5.5-1.8.8s-.7.9-.6 1.9l.3 3.1h99.4l-.3-3.6c-.1-1.2-1.2-2.2-2.5-2.2z" fill="#4655ee" fill-opacity=".4"/><path d="m-20.178 108 .3001 3.1h55.8l-.3-3.1z" fill="#eaeffa"/><path d="m55.3219 108.6-1.9 2.1c-.1.1-.1.2 0 .3s.2001.1.3001 0l1.9-2.1c.1-.1.1-.2 0-.3s-.2001-.1-.3001 0z" fill="#fff"/><path d="m53.522 108.6c-.1-.1-.2-.1-.3 0s-.1.2 0 .3l2.3 2.1c.1.1.1999.1.2999 0s.1-.2 0-.3z" fill="#fff"/><path d="m50.3219 108.4c-.8 0-1.2999.6-1.2999 1.4s.8 1.4 1.5 1.4 1.2999-.6 1.2999-1.4-.8-1.4-1.5-1.4zm.2001 2.5c-.6 0-1.1001-.5-1.2001-1.1s.4-1.1 1-1.1 1.1001.5 1.2001 1.1c0 .6-.4 1.1-1 1.1z" fill="#fff"/><path d="m47.6221 110.7h-2.5c-.1 0-.2.1-.1.2 0 .1.1.2.2.2h2.5c.1 0 .2-.1.1-.2-.1-.2-.1-.2-.2-.2z" fill="#fff"/><path d="m6.82202 151.7h-18.80002c-.5 0-.8999.4-.8999.9s.5.9 1 .9h18.79996c.5 0 .89996-.4.89996-.9s-.5-.9-1-.9z" fill="#94d59d"/><path d="m2.72211 161.2h-13.90001c-.3 0-.4.2-.4.5s.2.5.5.5h13.89998c.3 0 .40003-.2.40003-.5s-.2-.5-.5-.5z" fill="#fff"/><path d="m3.02216 164.9h-13.89996c-.3 0-.4.2-.4.5s.2.5.5.5h13.89999c.3 0 .39997-.2.39997-.5-.1-.3-.3-.5-.5-.5z" fill="#fff"/><path d="m48.5222 152h-13.9c-.3 0-.4.2-.4.5s.2.5.5.5h13.9c.3 0 .4-.2.4-.5s-.2-.5-.5-.5z" fill="#fff"/><path d="m39.5221 155.7h-4.7c-.3 0-.4.2-.4.5s.2.5.5.5h4.7c.3 0 .4-.2.4-.5s-.2-.5-.5-.5z" fill="#ff967a"/><path d="m44.1221 155.7h-1.1c-.3 0-.4.2-.4.5s.2.5.5.5h1.0999c.3 0 .4001-.2.4001-.5s-.2-.5-.5-.5z" fill="#fff"/><path d="m49.0222 159.5h-13.9c-.3 0-.4.2-.4.5s.2.5.5.5h13.9c.3 0 .4-.2.4-.5s-.2-.5-.5-.5z" fill="#fff"/><path d="m17.9221 161h-4.2001c-.4 0-.5999.3-.5999.6s.2999.6.6999.6h4.2c.4 0 .6001-.3.6001-.6s-.3-.6-.7-.6z" fill="#94d59d"/><path d="m17.7221 158h-4.2c-.4 0-.6.3-.6.6 0 .4.3.6.7.6h4.2c.4 0 .6-.3.6-.6s-.3-.6-.7-.6z" fill="#4655ee"/><path d="m17.5222 154.9h-4.2001c-.4 0-.5999.3-.5999.6 0 .4.3.6.7.6h4.2c.4 0 .6-.3.6-.6s-.3-.6-.7-.6z" fill="#4655ee"/><path d="m17.322 151.9h-4.2c-.4 0-.6.3-.6.6 0 .4.3.6.7.6h4.2c.4 0 .6-.3.6-.6s-.4-.6-.7-.6z" fill="#94d59d"/><path d="m24.6221 151.9h-2.7c-.4 0-.6001.3-.6001.6 0 .4.3.6.7.6h2.7c.4 0 .6-.3.6-.6s-.2999-.6-.6999-.6z" fill="#4655ee"/><path d="m25.1221 158.6h-2.7c-.4 0-.6001.3-.6001.6 0 .4.3.6.7.6h2.7c.4 0 .6-.3.6-.6-.1-.3-.3999-.6-.6999-.6z" fill="#ff967a"/><path d="m-26.5779 114.8 2.6 30.8h74.8l-2.7-30.8z" fill="#fff" fill-opacity=".85"/><path d="m2.22198 118.7h-25.19998c-.3 0-.5.3-.5.6s.3.6.6.6h25.19996c.3 0 .5-.3.5-.6 0-.4-.19998-.6-.59998-.6z" fill="#b6bac6"/><path d="m11.522 118.7h-5.89993c-.3 0-.5.3-.5.6s.29998.6.59998.6h5.90005c.3 0 .5-.3.5-.6 0-.4-.3001-.6-.6001-.6z" fill="#b6bac6"/><path d="m43.622 118.7h-25.6c-.3 0-.5.3-.5.6s.3.6.6.6h25.6c.3 0 .5-.3.5-.6s-.3-.6-.6-.6z" fill="#b6bac6"/><path d="m10.1221 122.4h-32.8001c-.3 0-.5.3-.5.6s.3001.6.6001.6h32.7999c.3 0 .5-.3.5-.6s-.2999-.6-.5999-.6z" fill="#94d59d"/><path d="m32.1221 121.7h-17.7c-.3 0-.5.3-.5.6s.3.6.6.6h17.7c.3 0 .5-.3.5-.6s-.3-.6-.6-.6z" fill="#b6bac6"/><path d="m44.4221 121.7h-9c-.3 0-.5.3-.5.6s.3.6.6.6h9.0001c.3 0 .5-.3.5-.6s-.3001-.6-.6001-.6z" fill="#ff967a"/><path d="m20.322 126.9h-40.6999c-.3 0-.5.3-.5.6s.2999.6.5999.6h40.7001c.3 0 .5-.3.5-.6s-.3001-.6-.6001-.6z" fill="#b6bac6"/><path d="m40.3221 126.9h-13.9c-.3 0-.5.3-.5.6s.3.6.6.6h13.9c.3 0 .5-.3.5-.6s-.3-.6-.6-.6z" fill="#b6bac6"/><path d="m45.2221 131h-39.79998c-.3 0-.5.3-.5.6s.29997.6.59997.6h39.80001c.3 0 .5-.3.5-.6s-.3-.6-.6-.6z" fill="#b6bac6"/><path d="m22.9221 136.6h-44.3c-.3 0-.5.3-.5.6s.2999.6.5999.6h44.3c.3 0 .5-.3.5-.6s-.2999-.6-.5999-.6z" fill="#94d59d"/><path d="m44.422 139h-40.79993c-.3 0-.5.3-.5.6s.29998.6.59998.6h40.80005c.3 0 .5-.3.5-.6s-.3001-.6-.6001-.6z" fill="#b6bac6"/><path d="m10.6221 141.9h-22.7c-.3 0-.5.3-.5.6s.3.6.6.6h22.7c.3 0 .5-.3.5-.6s-.3-.6-.6-.6z" fill="#b6bac6"/><path d="m105.138 206.888h-4.8v112.9h4.8z" fill="#141633"/><path d="m100.338 206.888h-1.6002v112.9h1.6002z" fill="#acc7fb"/><path d="m63.5377 206.888h-1.6v112.9h1.6z" fill="#acc7fb"/><path d="m68.2377 206.888h-4.8v112.9h4.8z" fill="#141633"/><path d="m126.938 195.788h-230v6h230z" fill="#acc7fb"/><path d="m113.338 201.688h-208.6002v6h208.6002z" fill="#262ba1"/><path d="m48.7377 191.888h-97.1v3.9h97.1z" fill="#2a4aae"/><path d="m77.1377 305.388c.6 3.5 2.3 6.7 2.3 6.7.1.2 5.2-1.7 7.2-3.7 0 0-1.6-2.4-2.7-4.6-2.6-2.5-6.4 1.6-6.8 1.6z" fill="#acc7fb"/><path d="m86.3377 308.088c-1.4-1.3-3.3-1.8-5-1.2 0 0 0 0-.1 0-1.3.5-2.1 1.9-2 3.3.1 1.3.3 3 1 3.9.6.8 4 4.4 5.7 5.2 1.3.6 3.4.5 5.8.2s5.1-1.9 5-3.3c-.3-2.7-8.6-6.4-10.4-8.1z" fill="#2a4aae"/><path d="m85.2376 310.188c-2.3-1.6-6.3 1.2-3.6 4.9.5.7 3.4001 3.7 4.8001 4.4 1.1.5 2.9.4 4.9.2 2-.3 4.3-1.6 4.2-2.8-.3-2.4-8.0001-5.1-10.3001-6.7z" fill="#141633"/><path d="m24.1376 179.888c-.2.5 1.9 2.1 2.5 2.1 1.4-.3 1.3001-1.1 2.7001-1.2-1.2-.1-2.5001-.5-3.6001-1-.7-.3-1.3-.8-1.6.1z" fill="#acc7fb"/><path d="m26.0378 181.288c-1.7.3-5.5 1.5-5.7 1.6-.8.3-2.7.7-3.2 1.1-.3.2-.9 1.3-.9 1.8 0 .7.7.9.7.9-.2.8 2 .8 1.9 1-.3.8.6 1.5 3.6.5.2-.1 7.8-1.1 10.2-1.6-.2-1.5-2.1-5.9-2.2-5.9-1.5.1-3 .3-4.4.6z" fill="#acc7fb"/><path d="m70.8379 163.888c-.5 0-1 .1-1.4.2-7.1 2.3-31.8 15.5-39.6 16.7.9 2.4 1.4999 4.4 1.6999 6.1 12.7-2.3 43.8001-11.6 44.3001-16.7.5-4.8-2.7-6.3-5-6.3z" fill="#acc7fb"/><path d="m86.5378 127.488c-4.2 5.5-12.6 26-18.6 35.1-7.3 11.1 3.1 12.2 6.4 9.6 8.7-7 29.1002-30.3 26.0002-35.2-1.4002-2.2-13.0002-10.5-13.8002-9.5z" fill="#acc7fb"/><path d="m85.3379 123.488c-2.8 6.5-15.7001 33.7-18.6001 38.2-.5.8-.8999 1.5-1.2999 2.3-3 1.3-6.9 3.1-11 5-9 4.2-20.2001 9.5-24.7001 10.2l2.2001 9.1c11.2-2 36.8999-9.5 43.5999-15.1 7.1-5.7 27.5002-27.8 25.5002-35.4-3.5002-12.6-15.5001-14.8-15.7001-14.3z" fill="#dfeafe"/><path d="m105.138 198.688c-10.5003-.7-81.0002 11.6-105.1002469 25.2-9.7000031 5.5-3.6999831 19.6 6.7000169 18.1 18.50003-2.8 82.40003-1 95.60023-8 21.1-11.2 8.4-34.9 2.8-35.3z" fill="#262ba1"/><path d="m31.5376 304.188c.7 2.3.1 3.9.1 3.9 2 2 7.1 2.4 7.2 2.2 0 0 .8-3 .3-6.6-.4 0-5-1.9-7.6.5z" fill="#acc7fb"/><path d="m-3.6623 240.188c19 35.2 34.7 65.2 34.7 65.2 1.5.3 6.9-1.7 8.9-.4 0 0-8.8999-37.7-20.5999-71.5-7.8-22.4-30.8001-7.7-23.0001 6.7z" fill="#262ba1"/><path d="m42.0377 240.188c19 35.2 34.5 67.3 34.5 67.3 2-.9 6.4999-4 9.0999-2.5 0 0-8.8999-37.7-20.5999-71.5-7.8-22.4-30.8-7.7-23 6.7z" fill="#262ba1"/><path d="m32.7376 306.788c-.3.3-.9999.8-1.8999 1.7-1.8 1.8-9.3001 5-9.6001 7.7-.1 1.4 2.6 2.9 5 3.3 2.4.3 4.5.4 5.8-.2 1.7-.8 5-4.4 5.7-5.2 1.6-1.9 1-5.3 1-5.3-1.4-3.2-4.8-3-6-2z" fill="#2a4aae"/><path d="m32.7376 310.188c-2.4 1.7-10.0999 4.4-10.2999 6.7-.1 1.2 2.2 2.5 4.2 2.8s3.8.4 4.9-.2c1.4-.6 4.3-3.7 4.8-4.4 2.7-3.8-1.3001-6.5-3.6001-4.9z" fill="#141633"/><path d="m80.6377 105.488c-.8.6-9.2 5.3-11.7 5 0 .7 1.7 7.7.1 11.5.7 3.5 10.5 3.5 13.2-2.5-1.1-1.7-2.1-10.7-1.6-14z" fill="#acc7fb"/><path d="m69.2377 94.4879c-4.4-.3-8.7.8-9.7 4.9-.3 1.5001.2 17.1001 7.6 17.1001 3.2 0 8.9001-4.4 9.2001-7.9l.2999-4.9c.3-4.7001-2.6-8.9001-7.4-9.2001z" fill="#acc7fb"/><path d="m92.1378 121.888c-2.5-.5-9.9-2.3-9.9-2.3s-1.5 1.8-6 2.7c-4.1.8-7.2-.5-7.2-.5s-8.5999 2.4-10.0999 3.2c-6 3.2-6.1 5.4-6.5 12.9-.2 3.5-2.9 59.8-7.1 70.9 34.6 13.5 53.3999 13.1 70.3001 8.5 0-35.3-11.2-81.7-11.6-83.1-1.6-6-4.3002-10.8-11.9002-12.3z" fill="#c1d6fb"/><path d="m80.2377 89.2879c-6.9-5.4-17.7999-1-20.8999 6.1-2.3 5.3001-4.4001 1.6-4.2001.2-.7 3.5.8 6.6001 7.6 6.1001 1.4-.1-3.1999 1.3-3.1999 1.3s7.3 15.1 18.5 11.4c3.3-1.1 6.3-4.4 6.3-4.4s-3.6001.6-1.7001-2.4c3.7-5.7 3.7-13.5001-2.4-18.3001z" fill="#ff967a"/><path d="m-4.76241 178.188c-.4.5 1.4 2.4 2 2.6 1.5 0 1.49996-.8 2.899964-.6-1.200004-.4-2.299964-1-3.399964-1.7-.6-.4-1.1-1.1-1.5-.3z" fill="#acc7fb"/><path d="m-3.26226 179.988c-1.7 0-5.70002.3-5.90002.3-.8.1-2.79992.2-3.39992.4-.4.2-1.2001 1-1.3001 1.5-.1.6.5 1 .5 1-.3.8 1.8 1.2 1.6 1.4-.5.7.3 1.6 3.40001 1.3.2 0 7.900046.6 10.30005.6.1-1.5-.80003-6.2-.90003-6.2-1.399998-.2-2.79999-.3-4.29999-.3z" fill="#acc7fb"/><path d="m41.0378 171.288c-.5 0-1 .1-1.4.3-7 2.6-32.20001 7.4-39.900007 8.9 1 2.3 1.699967 4.4 1.899967 6 12.60004-2.8 44.30004-4 44.70004-9.2.3-4.7-2.9-6-5.3-6z" fill="#acc7fb"/><path d="m55.2377 134.288c-4 5.6-11.4999 26.5-17.0999 35.9-6.8 11.4 3.6 12.1 6.8 9.3 8.4-7.4 27.8-31.5 24.5-36.2-1.5-2.1-13.5001-10-14.2001-9z" fill="#acc7fb"/><path d="m53.8378 130.388c-2.5 6.6-17.9001 40.5-18.2001 41.3-2.9 1.4-30.29996 6.3-34.699956 7.2l1.199956 9.1c11.1-1 37.6-1.6 44-7.5 6.8-6 28.8-30.5 26-37.9-2.8-7.3-18.0999-12.7-18.2999-12.2z" fill="#c1d6fb"/><path d="m78.8379 238.288h34.1001c3 0 5.9 2.4 6.3 5.4l18.1 75.5-3.2.3-1.8.1-18.9-75.9c-.3-1.8.6-2.9-1.2-2.9h-32.7002c-1.8 0-3.5 1.5-3.8 3.3l-10.8999 75.6h-4l10.6-76c.5-2.9 4.4-5.4 7.4-5.4z" fill="#dfeafe"/><path d="m75.9379 238.288h33.4001c3 0 5.9 2.4 6.5 5.4l17.7 75.9-2.8.2-17.4-75.6c-.3-1.8-2.2-3.3-4-3.3h-33.4001c-1.8 0-3.5001 1.5-3.8001 3.3l-11.1999 75.6-2.7001-.4 11.4-75.6c.4-3 3.3001-5.5 6.3001-5.5z" fill="#87ddf6"/><path d="m116.238 238.088c3.4.1 4.9.2 6.1.2.1 0 6.3-26.2 6.8-30.5.2-1.7.4-3.1.5-3.8l.2-1.3 2.5.4-.2 1.3c-.1.7-.3 2-.5 3.7-2.7 21-4.9 32.6-8.5 32.6-1.3 0-3.7-.1-7.1-.1-8.8-.2-19.4003-.6-39.1003-.6h-1.3v-2.4h1.3c19.8 0 30.5003.3 39.3003.5z" fill="#dfeafe"/><path d="m124.338 227.588c1.1-5.5 1.9-16 2.5-20.2.2-1.7.4-3 .5-3.7l2.5.4c-.1.7-.3 2-.5 3.6-2.7 20.8-4.9 32.4-8.5 32.4h-46.2003v-2.5h46.1003c.2-.1 1.7-.7 3.6-10z" fill="#87ddf6"/><path d="m63.3378 232.688h55.5002c2.4 0 4.4 2 4.4 4.4s-2 4.4-4.4 4.4h-55.5002c-2.4 0-4.4001-2-4.4001-4.4s1.9001-4.4 4.4001-4.4z" fill="#4655ee"/><path d="m20.8378 237.088c2.8-2.9 6.9999-4.4 12.5999-4.4h35.6c2.1 0 3.8001 1.7 3.8001 3.8s-1.7001 3.8-3.8001 3.8h-35.6c-5.5 0-7.4 1.9-7.7 3.1l-.2 1.8h-7.6l.1-2.4c0-1 .6001-3.5 2.8001-5.7z" fill="#43455c"/><path d="m25.6377 243.288v.2c0-.1 0-.3 0-.4.1 0 .1.1 0 .2z" fill="#dfeafe"/><path d="m64.8376 237.588h-34.8v3.9h34.8z" fill="#43455c"/><path d="m72.2375 227.688c1.2-5.9 3.0001-16.3 3.6001-20.3.2-1.5.4-2.7.5-3.3l.2-1.3 2.5.4-.2 1.3c-.1.6-.3 1.8-.5 3.3-3 21.9-5.3 33.8-8.9 33.8h-1.3l-.1-2.6h1.3c.2-.1.8999-1.5 2.8999-11.3z" fill="#dfeafe"/><path d="m70.9377 227.888c1.1-5.6 1.9-16.1 2.5-20.4.2-1.7.4-3.1.5-3.8l2.5.4c-.1.7-.3 2-.5 3.7-2.7 21-4.9 32.6-8.5 32.6v-2.6c.1.1 1.7-.6 3.5-9.9z" fill="#87ddf6"/><path d="m34.3378 235.988 28.5999-.1c3 0 5.9 2.4 6.3 5.4l10.8 78-3.1999.3-3.4001.1-10-78.4c-.3-1.8.6-3.5-1.2-3.5l-27.2.6c-1.8 0-3.5 1.5-3.8 3.3l-14.1 78h-4l13.8-78.4c.3-3 4.4001-5.3 7.4001-5.3z" fill="#dfeafe"/><path d="m31.3378 235.888h27.8999c3 0 5.9 2.4 6.3 5.5l10.5 78-2.6999.4-10.3001-78c-.3-1.8-1.9999-3.2-3.6999-3.2h-27.9001c-1.8 0-3.5 1.5-3.7 3.2l-14.4 78-2.7-.4 14.6-78c.2-3 3.0001-5.5 6.1001-5.5z" fill="#87ddf6"/><path d="m86.5377 151.288h41.6003c7.6 0 10.5 4.8 11.2 7.9.2.9-4.5 1.2-4.7 2.2l-6.1 41.5-.3 2.2s-52.0003-.5-54.0003-.5-2.7999-1.4-3.3999-3.5c-.4-1.2 6.5-41.8 6.5-41.8.6-4.5 4.7999-8 9.1999-8z" fill="#43455c"/><path d="m91.0378 155.588h43.5002c4.4 0 7.5 3.6 6.9 8l-6.1 41.5s-6.3 3.1-25.4 3.1c-19.0001 0-34.2002-3.1-34.2002-3.1l6.1001-41.5c.6-4.4 4.6999-8 9.1999-8z" fill="#4655ee"/><path d="m202.066 67.488c-3.2-2-5.5-2.2-8.6-10.6-10.1-27.9-29.9-9.4-27.2-2 .7 1.8 2 2.6 2.9.2 1.6-4 9.9-9.5 9.5 9.4-.1 5-4.4 12.6 10.9 17.2 13.9 4.2 5 9.8 6.6 13.1 4.3 8.3 21.9-17.5 5.9-27.3z" fill="url(#l)"/><path d="m138.066 163.088c-.9 6.1 12.2 146.4 12.2 146.4.1.3 5.5 1.8 8.7-.6 0 0 .8-34.1 5.5-67 4.1-28.4 8.8-74.9 8.8-74.9-11.6.8-31.4-2.2-35.2-3.9z" fill="#ff967a"/><path d="m159.065 305.988c-.9.3-5.3.5-6.1.3 0-.5.101-1.2-.199-1.9-.8-.2-2.401-1.3-3.201-1.4.3 1.6.701 10.1-.899 11.3-2 1.5-5.8 1.5-6.4 1.5-3 0-3.701 1.7-3.701 2.4 0 1.1.701 1.5 1.601 1.5h14.699c1.6 0 3.2.2 4.5-1.3.5-.5.5-1.5.2-2.4-.4-1-.4-7.5-.5-10z" fill="#2a4aae"/><path d="m83.5655 58.088c-.6 0-1.0999 2.5-.8999 3.1.8 1.2 1.5.7 2.2 1.9-.4-1.1-.6-2.4-.6-3.7 0-.6.1999-1.4-.7001-1.3z" fill="#acc7fb"/><path d="m80.5656 58.088c-.5-.4-1.5-1.7-2.1-1.9-.3-.1-1.4-.2-1.9 0-.6.3-.6.9-.6.9-.8.2-.0999 1.8-.2999 1.8-.8.1-1.2001 1.1.6999 2.8.1.1 3.5 5.2 4.7 6.8 1.3-.8 4.6001-3.9 4.6001-4-.5-1-1.2-2-1.9-2.9-.8-1.1-3.1001-3.4-3.2001-3.5z" fill="#acc7fb"/><path d="m154.565 84.488c-6.8-.1-28.099 5.1-38.699 5.6-13.1.7-7.9 9.5999-3.9 10.6 10.6 2.8 40.999 5.6 43.099.2.8-2.3.7-16.4-.5-16.4z" fill="#acc7fb"/><path d="m154.566 84.488c-4.8-.1-17 2.1-27.4 2.7-.4 3.4-.5 8.3-.3 11.8.1 1.4.2 5.7.4 7.1 12.3 1.3 26.4-1.6 27.7-5.2.9-2.3.8-16.4-.4-16.4z" fill="url(#m)"/><path d="m115.966 92.488c-4.9-5.4-26.6004-22.4-30.9004-28.9-1.8 1.8-3.4 3.2-4.8 3.9 7.2 10.5 28.0004 34.7 32.8004 33.2 4.4-1.4 4.5-4.9 3.6-7-.1-.5-.4-.9-.7-1.2z" fill="#acc7fb"/><path d="m195.166 159.588c-3.8 1.7-24.6 1.2-36.2.4 0 0 5.4 61 7.9 73.5 6.4 32.1 18.2 74.7 18.2 74.7 3.2 1.8 7.2-1.1 7.2-1.3 0 0-.3-58.2-2.9-71.8-2.1-11.1 8-54.8 5.8-75.5z" fill="#ff967a"/><path d="m137.166 163.088-1.601 16.4s25.1 10.5 63 .2l-1.299-20.1z" fill="#dfeafe"/><path d="m166.766 67.488c-.8.6-9.1 5.2001-11.5 4.8001 0 .7 1.6 7.9.1 11.7 1.5 5.9 10.3 3.2 13-2.7-1.1-1.7-2-10.6001-1.6-13.8001z" fill="#acc7fb"/><path d="m158.066 55.8881c-4.4-.3-8.6.7-9.6 4.8-.3 1.5.3 14.8 7.4 16.9 3 .9 8.8-4.3 9-7.8l.3-4.8c.4-4.7-2.4-8.8-7.1-9.1z" fill="#acc7fb"/><path d="m191.266 98.8881c-2.7-8.3-5.801-12.7001-13.201-14.7001-2.5-.7-9.799-2.8999-9.799-2.8999s-5.2 5.0999-8.6 5.3999c-2.4.2-4.4-2.6999-4.4-2.6999s-8.5 2.9-10 3.9c-6 3.9-6.201 10.5-6.401 15.9999-1.9 41.2-4.199 67.6-4.199 67.6 3.7 7.4 52.299 9.1 64.699 0 .1 0-7.199-70-8.099-72.5999z" fill="url(#n)"/><path d="m167.866 53.688c-6.4-5.8-16.3.3-16.3.3-7.5 1.4-5.9 12.5-2.4 14.1-1.6-8.1 3.9-10.7 3.9-10.7 10.2-.1 13.8 12 13.1 15.2 0 0 11.4-10.2 1.7-18.9z" fill="url(#o)"/><path d="m165.065 63.088c-.5 0-1.3.2-2 .7.4 1.6 1.5 4.1 2 5.4 1.1-.4 2.4-2.2 2.4-3.3.1-1.3-1.2-2.8-2.4-2.8z" fill="#acc7fb"/><path d="m167.965 50.9881c-.6-.4-1.199-.5-1.699-.4-1.3.1-2.201 1.1-2.201 1.1 3.1 1 5.701 3.9 5.701 3.9.6-1.6.599-3.2-1.801-4.6z" fill="#141633"/><path d="m130.265 154.088c-.7-.2-1.3-.5-1.4.4-.1.6 2.201 1.6 2.801 1.5 1.3-.6.999-1.4 2.299-1.7-1.2.1-2.5 0-3.7-.2z" fill="#acc7fb"/><path d="m134.966 153.888c-1.3.4-2.7.9-4 1.5-1.6.7-4.9 2.6-5.2 2.7-.7.4-2.5 1.3-2.9 1.8-.3.3-.6 1.4-.5 1.9.1.6.9.7.9.7 0 .8 2.1.4 2 .6-.2.8.9 1.3 3.5-.2.2-.1 7.3-2.7 9.5-3.7-.4-1.5-3.2-5.3-3.3-5.3z" fill="#acc7fb"/><path d="m169.065 91.488c-1.4 6.6-1.399 27.7-2.899 38.3-1.8 13 7.899 9.6 9.699 5.9 4.8-9.9 12.1-37.8001 9.4-41.5001-1.4-1.9-15.9-3.8999-16.2-2.6999z" fill="#acc7fb"/><path d="m167.266 90.6879c-2.6 4-1.2 17.1001-2.6 27.5001 4.2 2.4 12.2 4.2 18.6 3.5 3.6-11.9 4.4-22.9001 3.4-26.6001-2.6-9.5-16.1-9.6-19.4-4.4z" fill="url(#p)"/><path d="m170.365 129.188c-.5.1-1 .3-1.3.5-6.3 3.7-27.3 21.6-34.5 24.4 1.4 2.1 2.4 3.9 2.9 5.5 11.8-4.9 39.7-20.4 39.1-25.5-.5-4.7-3.9-5.4-6.2-4.9z" fill="#acc7fb"/><path d="m192.565 304.988c-.9.3-4.3.9-5.6.5-.1-.5 0-1.2-.4-1.9-.8-.2-2.399-1.2-3.299-1.2.4 1.6 1.299 10-.201 11.4-1.9 1.6-5.699 1.9-6.299 1.9-3 .2-3.6 1.9-3.5 2.6.1 1.1.799 1.5 1.699 1.5 3.7-.2 12.101-.8 14.701-.9 1.6-.1 3.199 0 4.399-1.6.4-.6.401-1.5.101-2.4-.6-1-1.401-7.4-1.601-9.9z" fill="#2a4aae"/></svg>