<svg width="249" height="320" viewBox="0 0 249 320" fill="none" xmlns="http://www.w3.org/2000/svg">
<g clip-path="url(#clip0)">
<g clip-path="url(#clip1)">
<path d="M219.903 235.635H219.9C228.737 227.722 235.646 217.512 239.568 205.531C249.836 174.162 236.33 140.734 208.846 123.911L53.5682 23.6331C45.2895 17.0564 35.6702 11.8205 24.9495 8.37929C-21.8125 -6.63075 -71.8277 18.1879 -86.7626 63.8136C-91.8665 79.4057 -92.2129 95.4104 -88.591 110.323L-88.5974 110.317L-66.9271 226.083C-63.6098 249.401 -47.5346 270.171 -23.6775 278.912L-23.6916 278.967L-21.0045 279.83L37.9055 298.739L92.72 316.334L93.4193 316.558L93.4222 316.554C113.027 322.567 133.479 317.15 147.181 304.074V304.076L219.903 235.635Z" fill="url(#paint0_linear)"/>
<path d="M154.438 129.388C149.438 131.688 144.938 133.988 141.538 136.488C134.738 141.488 129.138 150.688 137.038 156.988C158.038 173.988 174.238 131.988 198.538 107.888C195.338 110.688 175.938 120.388 170.438 122.588C164.938 124.888 159.438 127.088 154.438 129.388Z" fill="#94D59D"/>
<path d="M164.938 164.188C159.238 165.188 154.038 167.188 149.938 170.788C143.938 176.688 138.138 189.188 144.938 191.088C151.638 193.988 155.538 188.188 160.338 185.288C168.038 178.588 175.738 170.888 186.238 168.788C190.638 167.488 194.438 166.888 197.138 167.688C192.938 166.088 187.938 164.688 182.638 163.988C176.838 163.288 170.638 163.188 164.938 164.188V164.188Z" fill="#94D59D"/>
<path d="M197.138 167.888C197.538 168.088 197.938 168.188 198.238 168.388C197.938 168.088 197.538 167.988 197.138 167.888Z" fill="#94D59D"/>
<path d="M118.138 177.688C114.638 176.488 104.838 176.488 98.6378 179.488C84.8378 186.188 80.7378 196.988 81.6378 205.988C99.8378 187.888 121.938 206.188 127.738 197.588C133.438 190.888 129.038 181.488 118.138 177.688Z" fill="#94D59D"/>
<path d="M169.938 198.788C159.338 201.688 144.938 214.188 152.638 223.788C160.338 233.388 166.038 216.088 172.438 208.888C178.538 202.388 185.738 197.488 193.338 201.188C186.238 196.888 177.638 196.888 169.938 198.788Z" fill="#94D59D"/>
<path d="M128.938 231.388C125.838 229.488 121.838 228.888 117.238 229.588C108.038 231.088 104.238 235.488 102.838 243.888C107.638 240.488 112.338 242.488 116.938 245.188C121.538 247.788 126.238 251.588 130.638 250.288C139.738 247.788 137.938 237.188 128.938 231.388Z" fill="#94D59D"/>
<path d="M161.238 255.388C161.238 260.188 167.938 260.188 171.838 256.388C176.638 251.588 176.638 244.888 180.238 239.388C184.138 230.988 187.238 223.588 188.638 223.788C169.938 218.988 160.338 240.988 161.238 255.388V255.388Z" fill="#94D59D"/>
<path d="M134.338 270.388C129.938 271.988 125.938 272.488 121.338 272.788C105.638 273.888 107.538 288.688 107.538 288.688C107.538 288.688 110.938 282.488 120.038 286.088C129.038 289.588 141.538 289.488 145.338 278.888C147.938 271.588 140.138 268.288 134.338 270.388V270.388Z" fill="#94D59D"/>
<path d="M178.038 168.388C174.038 168.788 170.438 168.888 166.638 170.488C156.438 174.688 139.138 188.088 143.138 223.888C143.138 223.888 139.738 210.288 139.238 204.888C138.738 199.488 138.038 194.088 137.638 188.688C136.738 177.888 135.238 168.288 138.438 157.588C139.938 151.788 154.038 138.188 160.438 135.088C152.738 136.788 139.938 149.688 137.138 157.088C132.938 168.288 135.838 187.288 137.438 200.288C137.938 204.588 138.638 211.588 139.338 215.888C136.438 213.488 120.838 170.288 101.938 187.388C116.738 175.788 129.638 203.888 132.038 207.988C141.538 223.288 151.238 251.088 154.138 269.388C145.238 259.288 136.538 248.888 130.138 242.788C126.238 238.788 122.238 236.988 114.438 235.388C119.038 237.088 123.538 239.588 127.938 242.688C140.438 251.688 157.138 281.388 157.138 281.388C157.138 281.388 133.638 272.888 124.038 280.588C132.638 274.788 148.838 281.188 156.138 284.388C158.138 285.288 158.238 301.088 158.238 301.088C158.238 301.088 161.438 295.888 166.238 303.588C154.138 284.588 169.138 254.688 175.838 232.588C169.238 241.588 163.238 266.988 159.238 280.688C156.338 254.788 146.038 218.188 171.038 200.888C165.338 202.988 158.638 212.588 157.038 217.588C153.138 230.088 152.738 242.388 153.838 255.788C149.038 236.588 139.238 217.188 146.038 198.288C147.438 193.588 149.538 189.188 152.138 185.088C154.738 180.988 158.238 177.288 162.338 174.188C167.238 171.088 172.638 169.088 178.238 168.788C178.438 168.588 178.238 168.388 178.038 168.388V168.388Z" fill="#141633"/>
<path d="M202.438 182.488C217.938 182.288 231.338 170.888 237.638 158.188C241.838 149.788 248.738 145.288 252.638 144.188C208.338 153.388 214.738 163.388 202.438 182.488Z" fill="#94D59D"/>
<path d="M213.438 187.088C205.838 188.488 191.638 197.788 199.238 205.488C211.338 217.788 217.938 194.388 231.638 193.388C235.338 192.888 241.838 193.188 243.638 195.188C236.038 187.488 224.038 185.188 213.438 187.088V187.088Z" fill="#94D59D"/>
<path d="M172.438 178.588C156.738 176.388 157.638 188.588 150.438 192.488C153.138 191.188 160.438 189.288 163.438 189.788C172.338 191.488 175.238 201.888 181.738 197.588C185.138 195.488 184.838 180.388 172.438 178.588V178.588Z" fill="#94D59D"/>
<path d="M212.038 212.688C207.038 213.288 200.438 215.688 195.738 218.888C191.038 222.088 188.238 226.088 191.138 229.488C195.038 233.088 203.538 226.088 210.238 223.288C218.038 220.088 225.638 218.288 229.238 224.288C225.338 218.288 220.138 212.988 212.038 212.688Z" fill="#94D59D"/>
<path d="M166.438 208.988C159.838 206.588 154.438 208.388 150.138 214.888C153.138 211.288 157.238 215.488 160.338 220.488C163.438 225.588 161.038 229.388 165.438 231.788C172.138 235.488 175.738 229.088 175.738 223.588C175.838 218.088 172.238 211.488 166.438 208.988V208.988Z" fill="#94D59D"/>
<path d="M187.438 246.688C183.838 250.788 181.038 260.188 184.738 262.588C191.638 267.088 198.338 260.688 202.938 251.588C206.738 244.088 208.038 241.588 215.138 241.288C205.738 234.288 193.738 239.488 187.438 246.688V246.688Z" fill="#94D59D"/>
<path d="M161.438 255.888C154.338 254.588 143.138 248.988 143.138 248.988C143.138 248.988 144.738 263.488 148.938 266.788C153.138 270.088 160.038 272.388 165.038 267.188C169.738 262.388 166.238 257.388 161.438 255.888V255.888Z" fill="#94D59D"/>
<path d="M229.338 191.788C212.938 189.988 191.038 208.588 182.538 224.388C188.838 207.088 200.538 182.688 215.238 169.988C201.038 179.688 190.038 198.788 183.438 214.288C184.938 200.088 181.338 184.388 166.738 183.488C195.838 191.088 175.738 235.888 174.438 255.488C171.838 240.488 174.738 220.188 160.138 212.488C174.238 223.988 172.738 255.288 172.538 267.388C172.438 272.188 172.038 277.988 168.438 271.388C165.638 266.288 160.638 257.988 151.938 258.188C177.138 272.588 167.138 299.388 167.138 299.388L170.338 300.188C169.538 287.288 187.738 258.088 203.038 242.388C199.338 243.888 195.938 247.288 193.538 250.488C186.938 259.188 179.738 268.288 173.338 278.588C175.238 256.988 190.038 217.988 214.138 216.588C190.438 215.588 181.338 247.988 176.438 254.388C177.338 226.188 201.238 193.188 229.638 191.888C229.538 191.988 229.438 191.888 229.338 191.788V191.788Z" fill="#141633"/>
<path d="M181.238 286.288H144.538C143.238 286.288 142.238 287.488 142.538 288.788L143.938 294.788C144.138 295.788 145.038 296.388 145.938 296.388H179.938C180.938 296.388 181.738 295.688 181.938 294.788L183.338 288.788C183.538 287.488 182.638 286.288 181.238 286.288V286.288Z" fill="#FFCE76"/>
<path d="M149.338 316.888C149.538 318.288 150.738 319.288 152.138 319.288H173.638C175.038 319.288 176.238 318.288 176.438 316.888L179.438 296.388H146.438L149.338 316.888Z" fill="#FFCE76"/>
<path d="M58.3731 4.13453C54.0139 1.39316 49.0255 0 43.9921 0C37.0713 0 30.1954 2.60655 24.8924 7.90953C16.3088 16.4932 14.7359 29.436 20.1287 39.6375C21.3421 41.9744 22.96 44.1315 24.8924 46.064C28.3079 49.4795 30.2853 55.3217 30.1505 59.5911H57.8338C57.699 55.3217 59.6764 49.5244 63.0918 46.064C73.6079 35.5479 73.6079 18.4256 63.0918 7.90953C61.6537 6.42649 60.0359 5.16816 58.3731 4.13453V4.13453Z" fill="url(#paint1_radial)"/>
<path d="M57.4742 59.4113H30.5998C29.4313 59.4113 28.4426 60.355 28.4426 61.5684V67.0961C28.4426 73.5675 33.6557 78.7806 40.1271 78.7806H47.9468C54.4182 78.7806 59.6313 73.5675 59.6313 67.0961V61.5684C59.6313 60.355 58.6426 59.4113 57.4742 59.4113V59.4113Z" fill="#2A4AAE"/>
<path d="M57.4742 59.4113H30.5998C29.4313 59.4113 28.4426 60.355 28.4426 61.5684V63.8154H46.329C47.5423 63.8154 48.531 64.8041 48.531 66.0175C48.531 67.2309 47.5423 68.2196 46.329 68.2196H28.4876C28.6224 69.7925 29.1168 71.3205 29.8358 72.6687H45.9694C47.1828 72.6687 48.1715 73.6574 48.1715 74.8708V78.7806C54.4632 78.6008 59.5414 73.4327 59.5414 67.0961V61.5684C59.6313 60.355 58.6426 59.4113 57.4742 59.4113V59.4113Z" fill="#575BB4"/>
<path d="M38.0148 79.3648C38.4642 79.8592 39.0034 80.2187 39.6776 80.3985L41.5651 80.8479C42.374 81.0277 43.2279 83.769 44.0817 83.769C44.9356 83.769 45.7895 81.0726 46.5984 80.8479L48.4859 80.3985C49.1151 80.2637 49.6993 79.9041 50.1487 79.3648L51.0924 78.2413H37.116L38.0148 79.3648Z" fill="#2A4AAE"/>
<path d="M44.5762 83.3645H43.5426C43.0932 83.3645 42.7786 83.724 42.7786 84.1285V89.8359C42.7786 90.2853 43.1381 90.5999 43.5426 90.5999H44.5762C45.0256 90.5999 45.3402 90.2404 45.3402 89.8359V84.1285C45.3402 83.724 44.9806 83.3645 44.5762 83.3645Z" fill="#2A4AAE"/>
<g opacity="0.55">
<path opacity="0.55" d="M28.5325 10.9205C29.5661 11.8194 30.5548 12.7182 31.5884 13.617C33.1613 11.7744 35.1387 10.2464 37.3408 9.21281C36.8914 7.90954 36.3971 6.56133 35.9476 5.25806C33.0715 6.56133 30.5548 8.5387 28.5325 10.9205V10.9205Z" fill="url(#paint2_linear)"/>
<path opacity="0.55" d="M32.1726 14.1113C33.2062 15.0101 34.1949 15.9089 35.2286 16.8077C36.2622 15.5943 37.5205 14.6057 38.9586 13.9765C38.5092 12.6732 38.0149 11.325 37.5655 10.0217C35.4982 10.9655 33.6556 12.4036 32.1726 14.1113Z" fill="url(#paint3_linear)"/>
<path opacity="0.55" d="M23.5891 20.9873C24.9823 21.1221 26.3754 21.2569 27.7686 21.3918C28.2629 19.0099 29.2516 16.7179 30.6448 14.7855C29.5213 14.0215 28.4427 13.2126 27.3192 12.4486C25.5215 14.9653 24.2183 17.8864 23.5891 20.9873V20.9873Z" fill="url(#paint4_linear)"/>
<path opacity="0.55" d="M28.6223 21.4816C30.0155 21.6164 31.4086 21.7512 32.8018 21.8861C33.1164 20.3131 33.7455 18.875 34.6893 17.5718C33.5658 16.8078 32.4872 15.9989 31.3637 15.2349C29.9705 17.0774 29.0268 19.2346 28.6223 21.4816V21.4816Z" fill="url(#paint5_linear)"/>
</g>
<path d="M39.4532 36.9861C38.7341 36.9861 38.105 37.5703 38.105 38.3343V59.4114H40.7565V38.3343C40.8014 37.6153 40.1722 36.9861 39.4532 36.9861Z" fill="url(#paint6_linear)"/>
<path d="M48.1715 36.9861C47.4524 36.9861 46.8232 37.5703 46.8232 38.3343V59.4114H49.4747V38.3343C49.4747 37.6153 48.8905 36.9861 48.1715 36.9861Z" fill="url(#paint7_linear)"/>
<path d="M31.9221 191.9H11.1221V195.6H31.9221C32.9221 195.6 33.722 194.8 33.722 193.8C33.722 192.8 32.9221 191.9 31.9221 191.9V191.9Z" fill="white"/>
<path d="M0.722106 175.4L1.02209 183.9L-5.57788 191.9H14.7221L21.3221 185.2C22.1221 184.4 22.4221 183.4 22.3221 182.3L21.6221 175.3H0.722106V175.4Z" fill="#ACC7FB"/>
<path d="M0.722168 175.4L0.822144 178.5H22.0222L21.7222 175.4H0.722168Z" fill="#262BA1"/>
<path d="M11.9221 191.9H-5.27796L1.42206 185.2C2.22206 184.4 2.52206 183.4 2.42206 182.3L1.72204 175.3H-1.97797L-1.27796 182.5L-7.97797 189.2C-8.87797 190.1 -9.27794 191.3 -9.07794 192.5C-8.67794 194.2 -7.27794 195.3 -5.57794 195.3H11.9221C12.9221 195.3 13.722 194.5 13.722 193.5C13.722 192.8 12.9221 191.9 11.9221 191.9Z" fill="#DFEAFE"/>
<path d="M58.6221 108.6C58.3221 105.4 55.7221 103 52.5221 103H-41.8779C-45.4779 103 -48.278 106.1 -47.978 109.7L-42.678 170C-42.378 173.2 -39.7779 175.6 -36.5779 175.6H57.922C61.522 175.6 64.3221 172.5 64.0221 168.9L58.6221 108.6Z" fill="#DFEAFE"/>
<path d="M61.522 108.6C61.522 108.4 61.4219 108.2 61.4219 108C60.9219 105.1 58.3219 103 55.4219 103H-38.9781C-42.5781 103 -45.3781 106.1 -45.0781 109.7L-39.7781 170C-39.4781 173.2 -36.8781 175.6 -33.6781 175.6H60.7219C64.3219 175.6 67.1219 172.5 66.8219 168.9L61.522 108.6Z" fill="#ACC7FB"/>
<path d="M57.922 108.9C57.822 107.6 56.7221 106.7 55.5221 106.7H-38.9779C-39.8779 106.7 -40.4779 107.2 -40.7779 107.5C-41.0779 107.8 -41.4779 108.4 -41.3779 109.4L-41.0779 112.5L-36.0779 169.6C-35.9779 170.9 -34.8779 171.8 -33.5779 171.8H60.922C61.822 171.8 62.4221 171.3 62.7221 171C63.0221 170.7 63.4221 170.1 63.3221 169.1L58.3221 112.4L57.922 108.9Z" fill="#6F0871"/>
<path d="M55.422 106.6H-39.078C-39.978 106.6 -40.578 107.1 -40.878 107.4C-41.178 107.7 -41.578 108.3 -41.478 109.3L-36.178 169.6C-36.078 170.9 -34.978 171.8 -33.778 171.8H60.722C61.622 171.8 62.2221 171.3 62.5221 171C62.8221 170.7 63.222 170.1 63.122 169.1L57.822 108.8C57.822 107.6 56.722 106.6 55.422 106.6V106.6Z" fill="#8AA6E6"/>
<path d="M55.422 106.6H-39.078C-39.978 106.6 -40.578 107.1 -40.878 107.4C-41.178 107.7 -41.578 108.3 -41.478 109.3L-41.178 112.4H58.222L57.922 108.8C57.822 107.6 56.722 106.6 55.422 106.6V106.6Z" fill="#4655EE" fill-opacity="0.4"/>
<path d="M-20.178 108L-19.8779 111.1H35.9221L35.6221 108H-20.178Z" fill="#EAEFFA"/>
<path d="M55.3219 108.6L53.4219 110.7C53.3219 110.8 53.3219 110.9 53.4219 111C53.5219 111.1 53.622 111.1 53.722 111L55.622 108.9C55.722 108.8 55.722 108.7 55.622 108.6C55.522 108.5 55.4219 108.5 55.3219 108.6Z" fill="white"/>
<path d="M53.522 108.6C53.422 108.5 53.322 108.5 53.222 108.6C53.122 108.7 53.122 108.8 53.222 108.9L55.522 111C55.622 111.1 55.7219 111.1 55.8219 111C55.9219 110.9 55.9219 110.8 55.8219 110.7L53.522 108.6Z" fill="white"/>
<path d="M50.3219 108.4C49.5219 108.4 49.022 109 49.022 109.8C49.022 110.6 49.822 111.2 50.522 111.2C51.222 111.2 51.8219 110.6 51.8219 109.8C51.8219 109 51.0219 108.4 50.3219 108.4ZM50.522 110.9C49.922 110.9 49.4219 110.4 49.3219 109.8C49.2219 109.2 49.7219 108.7 50.3219 108.7C50.9219 108.7 51.422 109.2 51.522 109.8C51.522 110.4 51.122 110.9 50.522 110.9Z" fill="white"/>
<path d="M47.6221 110.7H45.1221C45.0221 110.7 44.9221 110.8 45.0221 110.9C45.0221 111 45.1221 111.1 45.2221 111.1H47.7221C47.8221 111.1 47.9221 111 47.8221 110.9C47.7221 110.7 47.7221 110.7 47.6221 110.7Z" fill="white"/>
<path d="M6.82202 151.7H-11.978C-12.478 151.7 -12.8779 152.1 -12.8779 152.6C-12.8779 153.1 -12.3779 153.5 -11.8779 153.5H6.92206C7.42206 153.5 7.82202 153.1 7.82202 152.6C7.82202 152.1 7.32202 151.7 6.82202 151.7V151.7Z" fill="#94D59D"/>
<path d="M2.72211 161.2H-11.1779C-11.4779 161.2 -11.5779 161.4 -11.5779 161.7C-11.5779 162 -11.3779 162.2 -11.0779 162.2H2.82208C3.12208 162.2 3.22211 162 3.22211 161.7C3.22211 161.4 3.02211 161.2 2.72211 161.2V161.2Z" fill="white"/>
<path d="M3.02216 164.9H-10.8778C-11.1778 164.9 -11.2778 165.1 -11.2778 165.4C-11.2778 165.7 -11.0778 165.9 -10.7778 165.9H3.12219C3.42219 165.9 3.52216 165.7 3.52216 165.4C3.42216 165.1 3.22216 164.9 3.02216 164.9Z" fill="white"/>
<path d="M48.5222 152H34.6222C34.3222 152 34.2222 152.2 34.2222 152.5C34.2222 152.8 34.4222 153 34.7222 153H48.6222C48.9222 153 49.0222 152.8 49.0222 152.5C49.0222 152.2 48.8222 152 48.5222 152Z" fill="white"/>
<path d="M39.5221 155.7H34.8221C34.5221 155.7 34.4221 155.9 34.4221 156.2C34.4221 156.5 34.6221 156.7 34.9221 156.7H39.6221C39.9221 156.7 40.0221 156.5 40.0221 156.2C40.0221 155.9 39.8221 155.7 39.5221 155.7Z" fill="#FF967A"/>
<path d="M44.1221 155.7H43.0221C42.7221 155.7 42.6221 155.9 42.6221 156.2C42.6221 156.5 42.8221 156.7 43.1221 156.7H44.222C44.522 156.7 44.6221 156.5 44.6221 156.2C44.6221 155.9 44.4221 155.7 44.1221 155.7Z" fill="white"/>
<path d="M49.0222 159.5H35.1222C34.8222 159.5 34.7222 159.7 34.7222 160C34.7222 160.3 34.9222 160.5 35.2222 160.5H49.1222C49.4222 160.5 49.5222 160.3 49.5222 160C49.5222 159.7 49.3222 159.5 49.0222 159.5Z" fill="white"/>
<path d="M17.9221 161H13.722C13.322 161 13.1221 161.3 13.1221 161.6C13.1221 161.9 13.422 162.2 13.822 162.2H18.022C18.422 162.2 18.6221 161.9 18.6221 161.6C18.6221 161.3 18.3221 161 17.9221 161V161Z" fill="#94D59D"/>
<path d="M17.7221 158H13.5221C13.1221 158 12.9221 158.3 12.9221 158.6C12.9221 159 13.2221 159.2 13.6221 159.2H17.8221C18.2221 159.2 18.4221 158.9 18.4221 158.6C18.4221 158.3 18.1221 158 17.7221 158V158Z" fill="#4655EE"/>
<path d="M17.5222 154.9H13.3221C12.9221 154.9 12.7222 155.2 12.7222 155.5C12.7222 155.9 13.0222 156.1 13.4222 156.1H17.6222C18.0222 156.1 18.2222 155.8 18.2222 155.5C18.2222 155.2 17.9222 154.9 17.5222 154.9V154.9Z" fill="#4655EE"/>
<path d="M17.322 151.9H13.122C12.722 151.9 12.522 152.2 12.522 152.5C12.522 152.9 12.822 153.1 13.222 153.1H17.422C17.822 153.1 18.022 152.8 18.022 152.5C18.022 152.2 17.622 151.9 17.322 151.9V151.9Z" fill="#94D59D"/>
<path d="M24.6221 151.9H21.9221C21.5221 151.9 21.322 152.2 21.322 152.5C21.322 152.9 21.622 153.1 22.022 153.1H24.722C25.122 153.1 25.322 152.8 25.322 152.5C25.322 152.2 25.0221 151.9 24.6221 151.9Z" fill="#4655EE"/>
<path d="M25.1221 158.6H22.4221C22.0221 158.6 21.822 158.9 21.822 159.2C21.822 159.6 22.122 159.8 22.522 159.8H25.222C25.622 159.8 25.822 159.5 25.822 159.2C25.722 158.9 25.4221 158.6 25.1221 158.6Z" fill="#FF967A"/>
<path d="M-26.5779 114.8L-23.9779 145.6H50.8221L48.1221 114.8H-26.5779Z" fill="white" fill-opacity="0.85"/>
<path d="M2.22198 118.7H-22.978C-23.278 118.7 -23.478 119 -23.478 119.3C-23.478 119.6 -23.178 119.9 -22.878 119.9H2.32196C2.62196 119.9 2.82196 119.6 2.82196 119.3C2.82196 118.9 2.62198 118.7 2.22198 118.7V118.7Z" fill="#B6BAC6"/>
<path d="M11.522 118.7H5.62207C5.32207 118.7 5.12207 119 5.12207 119.3C5.12207 119.6 5.42205 119.9 5.72205 119.9H11.6221C11.9221 119.9 12.1221 119.6 12.1221 119.3C12.1221 118.9 11.822 118.7 11.522 118.7Z" fill="#B6BAC6"/>
<path d="M43.622 118.7H18.022C17.722 118.7 17.522 119 17.522 119.3C17.522 119.6 17.822 119.9 18.122 119.9H43.722C44.022 119.9 44.222 119.6 44.222 119.3C44.222 119 43.922 118.7 43.622 118.7Z" fill="#B6BAC6"/>
<path d="M10.1221 122.4H-22.678C-22.978 122.4 -23.178 122.7 -23.178 123C-23.178 123.3 -22.8779 123.6 -22.5779 123.6H10.222C10.522 123.6 10.722 123.3 10.722 123C10.722 122.7 10.4221 122.4 10.1221 122.4V122.4Z" fill="#94D59D"/>
<path d="M32.1221 121.7H14.4221C14.1221 121.7 13.9221 122 13.9221 122.3C13.9221 122.6 14.2221 122.9 14.5221 122.9H32.2221C32.5221 122.9 32.7221 122.6 32.7221 122.3C32.7221 122 32.4221 121.7 32.1221 121.7Z" fill="#B6BAC6"/>
<path d="M44.4221 121.7H35.4221C35.1221 121.7 34.9221 122 34.9221 122.3C34.9221 122.6 35.2221 122.9 35.5221 122.9H44.5222C44.8222 122.9 45.0222 122.6 45.0222 122.3C45.0222 122 44.7221 121.7 44.4221 121.7Z" fill="#FF967A"/>
<path d="M20.322 126.9H-20.3779C-20.6779 126.9 -20.8779 127.2 -20.8779 127.5C-20.8779 127.8 -20.578 128.1 -20.278 128.1H20.4221C20.7221 128.1 20.9221 127.8 20.9221 127.5C20.9221 127.2 20.622 126.9 20.322 126.9Z" fill="#B6BAC6"/>
<path d="M40.3221 126.9H26.4221C26.1221 126.9 25.9221 127.2 25.9221 127.5C25.9221 127.8 26.2221 128.1 26.5221 128.1H40.4221C40.7221 128.1 40.9221 127.8 40.9221 127.5C40.9221 127.2 40.6221 126.9 40.3221 126.9Z" fill="#B6BAC6"/>
<path d="M45.2221 131H5.42212C5.12212 131 4.92212 131.3 4.92212 131.6C4.92212 131.9 5.22209 132.2 5.52209 132.2H45.3221C45.6221 132.2 45.8221 131.9 45.8221 131.6C45.8221 131.3 45.5221 131 45.2221 131Z" fill="#B6BAC6"/>
<path d="M22.9221 136.6H-21.3779C-21.6779 136.6 -21.8779 136.9 -21.8779 137.2C-21.8779 137.5 -21.578 137.8 -21.278 137.8H23.022C23.322 137.8 23.522 137.5 23.522 137.2C23.522 136.9 23.2221 136.6 22.9221 136.6Z" fill="#94D59D"/>
<path d="M44.422 139H3.62207C3.32207 139 3.12207 139.3 3.12207 139.6C3.12207 139.9 3.42205 140.2 3.72205 140.2H44.5221C44.8221 140.2 45.0221 139.9 45.0221 139.6C45.0221 139.3 44.722 139 44.422 139Z" fill="#B6BAC6"/>
<path d="M10.6221 141.9H-12.0779C-12.3779 141.9 -12.5779 142.2 -12.5779 142.5C-12.5779 142.8 -12.2779 143.1 -11.9779 143.1H10.7221C11.0221 143.1 11.2221 142.8 11.2221 142.5C11.2221 142.2 10.9221 141.9 10.6221 141.9Z" fill="#B6BAC6"/>
<path d="M105.138 206.888H100.338V319.788H105.138V206.888Z" fill="#141633"/>
<path d="M100.338 206.888H98.7378V319.788H100.338V206.888Z" fill="#ACC7FB"/>
<path d="M63.5377 206.888H61.9377V319.788H63.5377V206.888Z" fill="#ACC7FB"/>
<path d="M68.2377 206.888H63.4377V319.788H68.2377V206.888Z" fill="#141633"/>
<path d="M126.938 195.788H-103.062V201.788H126.938V195.788Z" fill="#ACC7FB"/>
<path d="M113.338 201.688H-95.2622V207.688H113.338V201.688Z" fill="#262BA1"/>
<path d="M48.7377 191.888H-48.3623V195.788H48.7377V191.888Z" fill="#2A4AAE"/>
<path d="M77.1377 305.388C77.7377 308.888 79.4377 312.088 79.4377 312.088C79.5377 312.288 84.6377 310.388 86.6377 308.388C86.6377 308.388 85.0377 305.988 83.9377 303.788C81.3377 301.288 77.5377 305.388 77.1377 305.388Z" fill="#ACC7FB"/>
<path d="M86.3377 308.088C84.9377 306.788 83.0377 306.288 81.3377 306.888C81.3377 306.888 81.3377 306.888 81.2377 306.888C79.9377 307.388 79.1377 308.788 79.2377 310.188C79.3377 311.488 79.5377 313.188 80.2377 314.088C80.8377 314.888 84.2377 318.488 85.9377 319.288C87.2377 319.888 89.3377 319.788 91.7377 319.488C94.1377 319.188 96.8377 317.588 96.7377 316.188C96.4377 313.488 88.1377 309.788 86.3377 308.088V308.088Z" fill="#2A4AAE"/>
<path d="M85.5616 310.454C83.2314 308.874 79.1789 311.64 81.9144 315.294C82.4209 315.986 85.3591 318.949 86.7774 319.641C87.8919 320.134 89.7155 320.036 91.7417 319.838C93.768 319.542 96.0981 318.258 95.9968 317.072C95.6929 314.702 87.8918 312.035 85.5616 310.454V310.454Z" fill="#141633"/>
<path d="M24.1376 179.888C23.9376 180.388 26.0376 181.988 26.6376 181.988C28.0376 181.688 27.9377 180.888 29.3377 180.788C28.1377 180.688 26.8376 180.288 25.7376 179.788C25.0376 179.488 24.4376 178.988 24.1376 179.888V179.888Z" fill="#ACC7FB"/>
<path d="M26.0378 181.288C24.3378 181.588 20.5378 182.788 20.3378 182.888C19.5378 183.188 17.6378 183.588 17.1378 183.988C16.8378 184.188 16.2378 185.288 16.2378 185.788C16.2378 186.488 16.9378 186.688 16.9378 186.688C16.7378 187.488 18.9378 187.488 18.8378 187.688C18.5378 188.488 19.4378 189.188 22.4378 188.188C22.6378 188.088 30.2378 187.088 32.6378 186.588C32.4378 185.088 30.5378 180.688 30.4378 180.688C28.9378 180.788 27.4378 180.988 26.0378 181.288V181.288Z" fill="#ACC7FB"/>
<path d="M70.8379 163.888C70.3379 163.888 69.8379 163.988 69.4379 164.088C62.3379 166.388 37.6379 179.588 29.8379 180.788C30.7379 183.188 31.3378 185.188 31.5378 186.888C44.2378 184.588 75.3379 175.288 75.8379 170.188C76.3379 165.388 73.1379 163.888 70.8379 163.888V163.888Z" fill="#ACC7FB"/>
<path d="M86.5378 127.488C82.3378 132.988 73.9378 153.488 67.9378 162.588C60.6378 173.688 71.0378 174.788 74.3378 172.188C83.0378 165.188 103.438 141.888 100.338 136.988C98.9378 134.788 87.3378 126.488 86.5378 127.488V127.488Z" fill="#ACC7FB"/>
<path d="M85.3379 123.488C82.5379 129.988 69.6378 157.188 66.7378 161.688C66.2378 162.488 65.8379 163.188 65.4379 163.988C62.4379 165.288 58.5379 167.088 54.4379 168.988C45.4379 173.188 34.2378 178.488 29.7378 179.188L31.9379 188.288C43.1379 186.288 68.8378 178.788 75.5378 173.188C82.6378 167.488 103.038 145.388 101.038 137.788C97.5378 125.188 85.5379 122.988 85.3379 123.488V123.488Z" fill="#DFEAFE"/>
<path d="M105.138 198.688C94.6377 197.988 24.1378 210.288 0.0377526 223.888C-9.66225 229.388 -3.66223 243.488 6.73777 241.988C25.2378 239.188 89.1378 240.988 102.338 233.988C123.438 222.788 110.738 199.088 105.138 198.688V198.688Z" fill="#262BA1"/>
<path d="M31.5376 304.188C32.2376 306.488 31.6376 308.088 31.6376 308.088C33.6376 310.088 38.7376 310.488 38.8376 310.288C38.8376 310.288 39.6376 307.288 39.1376 303.688C38.7376 303.688 34.1376 301.788 31.5376 304.188V304.188Z" fill="#ACC7FB"/>
<path d="M-3.6623 240.188C15.3377 275.388 31.0377 305.388 31.0377 305.388C32.5377 305.688 37.9377 303.688 39.9377 304.988C39.9377 304.988 31.0378 267.288 19.3378 233.488C11.5378 211.088 -11.4623 225.788 -3.6623 240.188V240.188Z" fill="#262BA1"/>
<path d="M42.0377 240.188C61.0377 275.388 76.5377 307.488 76.5377 307.488C78.5377 306.588 83.0376 303.488 85.6376 304.988C85.6376 304.988 76.7377 267.288 65.0377 233.488C57.2377 211.088 34.2377 225.788 42.0377 240.188Z" fill="#262BA1"/>
<path d="M32.7376 306.788C32.4376 307.088 31.7377 307.588 30.8377 308.488C29.0377 310.288 21.5376 313.488 21.2376 316.188C21.1376 317.588 23.8376 319.088 26.2376 319.488C28.6376 319.788 30.7376 319.888 32.0376 319.288C33.7376 318.488 37.0376 314.888 37.7376 314.088C39.3376 312.188 38.7376 308.788 38.7376 308.788C37.3376 305.588 33.9376 305.788 32.7376 306.788Z" fill="#2A4AAE"/>
<path d="M32.7376 310.188C30.3376 311.888 22.6377 314.588 22.4377 316.888C22.3377 318.088 24.6377 319.388 26.6377 319.688C28.6377 319.988 30.4377 320.088 31.5377 319.488C32.9377 318.888 35.8377 315.788 36.3377 315.088C39.0377 311.288 35.0376 308.588 32.7376 310.188V310.188Z" fill="#141633"/>
<path d="M80.6377 105.488C79.8377 106.088 71.4377 110.788 68.9377 110.488C68.9377 111.188 70.6377 118.188 69.0377 121.988C69.7377 125.488 79.5377 125.488 82.2377 119.488C81.1377 117.788 80.1377 108.788 80.6377 105.488Z" fill="#ACC7FB"/>
<path d="M69.2377 94.4879C64.8377 94.1879 60.5377 95.2879 59.5377 99.3879C59.2377 100.888 59.7377 116.488 67.1377 116.488C70.3377 116.488 76.0378 112.088 76.3378 108.588L76.6377 103.688C76.9377 98.9879 74.0377 94.7879 69.2377 94.4879V94.4879Z" fill="#ACC7FB"/>
<path d="M92.1378 121.888C89.6378 121.388 82.2378 119.588 82.2378 119.588C82.2378 119.588 80.7378 121.388 76.2378 122.288C72.1378 123.088 69.0378 121.788 69.0378 121.788C69.0378 121.788 60.4379 124.188 58.9379 124.988C52.9379 128.188 52.8379 130.388 52.4379 137.888C52.2379 141.388 49.5379 197.688 45.3379 208.788C79.9379 222.288 98.7378 221.888 115.638 217.288C115.638 181.988 104.438 135.588 104.038 134.188C102.438 128.188 99.7378 123.388 92.1378 121.888V121.888Z" fill="#C1D6FB"/>
<path d="M80.2377 89.2879C73.3377 83.8879 62.4378 88.2879 59.3378 95.3879C57.0378 100.688 54.9377 96.9879 55.1377 95.5879C54.4377 99.0879 55.9377 102.188 62.7377 101.688C64.1377 101.588 59.5378 102.988 59.5378 102.988C59.5378 102.988 66.8378 118.088 78.0378 114.388C81.3378 113.288 84.3378 109.988 84.3378 109.988C84.3378 109.988 80.7377 110.588 82.6377 107.588C86.3377 101.888 86.3377 94.0879 80.2377 89.2879V89.2879Z" fill="#FD4B1B"/>
<path d="M-4.76241 178.188C-5.16241 178.688 -3.36241 180.588 -2.76241 180.788C-1.26241 180.788 -1.26245 179.988 0.137555 180.188C-1.06245 179.788 -2.16241 179.188 -3.26241 178.488C-3.86241 178.088 -4.36241 177.388 -4.76241 178.188Z" fill="#ACC7FB"/>
<path d="M-3.26225 179.988C-4.96225 179.988 -8.96227 180.288 -9.16227 180.288C-9.96227 180.388 -11.9622 180.488 -12.5622 180.688C-12.9622 180.888 -13.7623 181.688 -13.8623 182.188C-13.9623 182.788 -13.3623 183.188 -13.3623 183.188C-13.6623 183.988 -11.5623 184.388 -11.7623 184.588C-12.2623 185.288 -11.4623 186.188 -8.36228 185.888C-8.16228 185.888 -0.462237 186.488 1.93777 186.488C2.03777 184.988 1.13774 180.288 1.03774 180.288C-0.36226 180.088 -1.76225 179.988 -3.26225 179.988V179.988Z" fill="#ACC7FB"/>
<path d="M41.0378 171.288C40.5378 171.288 40.0378 171.388 39.6378 171.588C32.6378 174.188 7.43779 178.988 -0.262207 180.488C0.737793 182.788 1.43776 184.888 1.63776 186.488C14.2378 183.688 45.9378 182.488 46.3378 177.288C46.6378 172.588 43.4378 171.288 41.0378 171.288V171.288Z" fill="#ACC7FB"/>
<path d="M55.2377 134.288C51.2377 139.888 43.7378 160.788 38.1378 170.188C31.3378 181.588 41.7378 182.288 44.9378 179.488C53.3378 172.088 72.7378 147.988 69.4378 143.288C67.9378 141.188 55.9377 133.288 55.2377 134.288Z" fill="#ACC7FB"/>
<path d="M53.8378 130.388C51.3378 136.988 35.9377 170.888 35.6377 171.688C32.7377 173.088 5.33774 177.988 0.937744 178.888L2.1377 187.988C13.2377 186.988 39.7377 186.388 46.1377 180.488C52.9377 174.488 74.9377 149.988 72.1377 142.588C69.3377 135.288 54.0378 129.888 53.8378 130.388V130.388Z" fill="#C1D6FB"/>
<path d="M78.8379 238.288H112.938C115.938 238.288 118.838 240.688 119.238 243.688L137.338 319.188L134.138 319.488L132.338 319.588L113.438 243.688C113.138 241.888 114.038 240.788 112.238 240.788H79.5378C77.7378 240.788 76.0378 242.288 75.7378 244.088L64.8379 319.688H60.8379L71.4379 243.688C71.9379 240.788 75.8379 238.288 78.8379 238.288V238.288Z" fill="#DFEAFE"/>
<path d="M75.9379 238.288H109.338C112.338 238.288 115.238 240.688 115.838 243.688L133.538 319.588L130.738 319.788L113.338 244.188C113.038 242.388 111.138 240.888 109.338 240.888H75.9379C74.1379 240.888 72.4378 242.388 72.1378 244.188L60.9379 319.788L58.2378 319.388L69.6378 243.788C70.0378 240.788 72.9379 238.288 75.9379 238.288V238.288Z" fill="#87DDF6"/>
<path d="M116.238 238.088C119.638 238.188 121.138 238.288 122.338 238.288C122.438 238.288 128.638 212.088 129.138 207.788C129.338 206.088 129.538 204.688 129.638 203.988L129.838 202.688L132.338 203.088L132.138 204.388C132.038 205.088 131.838 206.388 131.638 208.088C128.938 229.088 126.738 240.688 123.138 240.688C121.838 240.688 119.438 240.588 116.038 240.588C107.238 240.388 96.6377 239.988 76.9377 239.988H75.6377V237.588H76.9377C96.7377 237.588 107.438 237.888 116.238 238.088V238.088Z" fill="#DFEAFE"/>
<path d="M124.338 227.588C125.438 222.088 126.238 211.588 126.838 207.388C127.038 205.688 127.238 204.388 127.338 203.688L129.838 204.088C129.738 204.788 129.538 206.088 129.338 207.688C126.638 228.488 124.438 240.088 120.838 240.088H74.6377V237.588H120.738C120.938 237.488 122.438 236.888 124.338 227.588V227.588Z" fill="#87DDF6"/>
<path d="M63.3378 232.688H118.838C121.238 232.688 123.238 234.688 123.238 237.088C123.238 239.488 121.238 241.488 118.838 241.488H63.3378C60.9378 241.488 58.9377 239.488 58.9377 237.088C58.9377 234.688 60.8378 232.688 63.3378 232.688V232.688Z" fill="#4655EE"/>
<path d="M20.8378 237.088C23.6378 234.188 27.8377 232.688 33.4377 232.688H69.0377C71.1377 232.688 72.8378 234.388 72.8378 236.488C72.8378 238.588 71.1377 240.288 69.0377 240.288H33.4377C27.9377 240.288 26.0377 242.188 25.7377 243.388L25.5377 245.188H17.9377L18.0377 242.788C18.0377 241.788 18.6378 239.288 20.8378 237.088V237.088Z" fill="#43455C"/>
<path d="M25.6377 243.288V243.488C25.6377 243.388 25.6377 243.188 25.6377 243.088C25.7377 243.088 25.7377 243.188 25.6377 243.288V243.288Z" fill="#DFEAFE"/>
<path d="M64.8376 237.588H30.0376V241.488H64.8376V237.588Z" fill="#43455C"/>
<path d="M72.2375 227.688C73.4375 221.788 75.2376 211.388 75.8376 207.388C76.0376 205.888 76.2376 204.688 76.3376 204.088L76.5376 202.788L79.0376 203.188L78.8376 204.488C78.7376 205.088 78.5376 206.288 78.3376 207.788C75.3376 229.688 73.0376 241.588 69.4376 241.588H68.1376L68.0376 238.988H69.3376C69.5376 238.888 70.2375 237.488 72.2375 227.688V227.688Z" fill="#DFEAFE"/>
<path d="M70.9377 227.888C72.0377 222.288 72.8377 211.788 73.4377 207.488C73.6377 205.788 73.8377 204.388 73.9377 203.688L76.4377 204.088C76.3377 204.788 76.1377 206.088 75.9377 207.788C73.2377 228.788 71.0377 240.388 67.4377 240.388V237.788C67.5377 237.888 69.1377 237.188 70.9377 227.888V227.888Z" fill="#87DDF6"/>
<path d="M34.3378 235.988L62.9377 235.888C65.9377 235.888 68.8377 238.288 69.2377 241.288L80.0377 319.288L76.8378 319.588L73.4377 319.688L63.4377 241.288C63.1377 239.488 64.0377 237.788 62.2377 237.788L35.0377 238.388C33.2377 238.388 31.5377 239.888 31.2377 241.688L17.1377 319.688H13.1377L26.9377 241.288C27.2377 238.288 31.3378 235.988 34.3378 235.988V235.988Z" fill="#DFEAFE"/>
<path d="M31.3378 235.888H59.2377C62.2377 235.888 65.1377 238.288 65.5377 241.388L76.0377 319.388L73.3378 319.788L63.0377 241.788C62.7377 239.988 61.0378 238.588 59.3378 238.588H31.4377C29.6377 238.588 27.9377 240.088 27.7377 241.788L13.3377 319.788L10.6377 319.388L25.2377 241.388C25.4377 238.388 28.2378 235.888 31.3378 235.888V235.888Z" fill="#87DDF6"/>
<path d="M86.5377 151.288H128.138C135.738 151.288 138.638 156.088 139.338 159.188C139.538 160.088 134.838 160.388 134.638 161.388L128.538 202.888L128.238 205.088C128.238 205.088 76.2377 204.588 74.2377 204.588C72.2377 204.588 71.4378 203.188 70.8378 201.088C70.4378 199.888 77.3378 159.288 77.3378 159.288C77.9378 154.788 82.1377 151.288 86.5377 151.288V151.288Z" fill="#43455C"/>
<path d="M91.0378 155.588H134.538C138.938 155.588 142.038 159.188 141.438 163.588L135.338 205.088C135.338 205.088 129.038 208.188 109.938 208.188C90.9379 208.188 75.7378 205.088 75.7378 205.088L81.8379 163.588C82.4379 159.188 86.5378 155.588 91.0378 155.588V155.588Z" fill="#4655EE"/>
<path d="M202.066 67.488C198.866 65.488 196.566 65.288 193.466 56.888C183.366 28.988 163.566 47.488 166.266 54.888C166.966 56.688 168.266 57.488 169.166 55.088C170.766 51.088 179.066 45.588 178.666 64.488C178.566 69.488 174.266 77.088 189.566 81.688C203.466 85.888 194.566 91.488 196.166 94.788C200.466 103.088 218.066 77.288 202.066 67.488V67.488Z" fill="#262BA1"/>
<path d="M138.066 163.088C137.166 169.188 150.266 309.488 150.266 309.488C150.366 309.788 155.766 311.288 158.966 308.888C158.966 308.888 159.766 274.788 164.466 241.888C168.566 213.488 173.266 166.988 173.266 166.988C161.666 167.788 141.866 164.788 138.066 163.088V163.088Z" fill="#FFA78F"/>
<path d="M159.302 306.052C158.411 306.358 154.053 306.561 153.261 306.357C153.261 305.849 153.361 305.137 153.064 304.424C152.272 304.221 150.686 303.102 149.894 303C150.191 304.628 150.588 313.276 149.003 314.497C147.023 316.023 143.259 316.023 142.665 316.023C139.694 316.023 139 317.753 139 318.465C139 319.584 139.694 319.991 140.586 319.991H155.143C156.727 319.991 158.312 320.194 159.599 318.668C160.094 318.16 160.094 317.142 159.797 316.227C159.401 315.209 159.401 308.596 159.302 306.052V306.052Z" fill="#2A4AAE"/>
<path d="M83.5655 58.088C82.9655 58.088 82.4656 60.588 82.6656 61.188C83.4656 62.388 84.1656 61.888 84.8656 63.088C84.4656 61.988 84.2656 60.688 84.2656 59.388C84.2656 58.788 84.4655 57.988 83.5655 58.088Z" fill="#ACC7FB"/>
<path d="M80.5656 58.088C80.0656 57.688 79.0656 56.388 78.4656 56.188C78.1656 56.088 77.0656 55.988 76.5656 56.188C75.9656 56.488 75.9656 57.088 75.9656 57.088C75.1656 57.288 75.8657 58.888 75.6657 58.888C74.8657 58.988 74.4656 59.988 76.3656 61.688C76.4656 61.788 79.8656 66.888 81.0656 68.488C82.3656 67.688 85.6657 64.588 85.6657 64.488C85.1657 63.488 84.4657 62.488 83.7657 61.588C82.9657 60.488 80.6656 58.188 80.5656 58.088Z" fill="#ACC7FB"/>
<path d="M154.565 84.488C147.765 84.388 126.466 89.588 115.866 90.088C102.766 90.788 107.966 99.6879 111.966 100.688C122.566 103.488 152.965 106.288 155.065 100.888C155.865 98.588 155.765 84.488 154.565 84.488Z" fill="#ACC7FB"/>
<path d="M154.566 84.488C149.766 84.388 137.566 86.588 127.166 87.188C126.766 90.588 126.666 95.488 126.866 98.988C126.966 100.388 127.066 104.688 127.266 106.088C139.566 107.388 153.666 104.488 154.966 100.888C155.866 98.588 155.766 84.488 154.566 84.488Z" fill="#262BA1"/>
<path d="M115.966 92.488C111.066 87.088 89.3656 70.088 85.0656 63.588C83.2656 65.388 81.6656 66.788 80.2656 67.488C87.4656 77.988 108.266 102.188 113.066 100.688C117.466 99.288 117.566 95.788 116.666 93.688C116.566 93.188 116.266 92.788 115.966 92.488Z" fill="#ACC7FB"/>
<path d="M195.166 159.588C191.366 161.288 170.566 160.788 158.966 159.988C158.966 159.988 164.366 220.988 166.866 233.488C173.266 265.588 185.066 308.188 185.066 308.188C188.266 309.988 192.266 307.088 192.266 306.888C192.266 306.888 191.966 248.688 189.366 235.088C187.266 223.988 197.366 180.288 195.166 159.588V159.588Z" fill="#FFA78F"/>
<path d="M137.166 163.088L135.565 179.488C135.565 179.488 160.665 189.988 198.565 179.688L197.266 159.588L137.166 163.088Z" fill="white"/>
<path d="M166.766 67.488C165.966 68.088 157.666 72.6881 155.266 72.2881C155.266 72.9881 156.866 80.1881 155.366 83.9881C156.866 89.8881 165.666 87.1881 168.366 81.2881C167.266 79.5881 166.366 70.688 166.766 67.488Z" fill="#ACC7FB"/>
<path d="M158.066 55.8881C153.666 55.5881 149.466 56.5881 148.466 60.6881C148.166 62.1881 148.766 75.4881 155.866 77.5881C158.866 78.4881 164.666 73.2881 164.866 69.7881L165.166 64.9881C165.566 60.2881 162.766 56.1881 158.066 55.8881V55.8881Z" fill="#ACC7FB"/>
<path d="M191.266 98.8881C188.566 90.5881 185.465 86.188 178.065 84.188C175.565 83.488 168.266 81.2881 168.266 81.2881C168.266 81.2881 163.066 86.388 159.666 86.688C157.266 86.888 155.266 83.9881 155.266 83.9881C155.266 83.9881 146.766 86.8881 145.266 87.8881C139.266 91.7881 139.065 98.3881 138.865 103.888C136.965 145.088 134.666 171.488 134.666 171.488C138.366 178.888 186.965 180.588 199.365 171.488C199.465 171.488 192.166 101.488 191.266 98.8881V98.8881Z" fill="#262BA1"/>
<path d="M167.866 53.688C161.466 47.888 151.566 53.988 151.566 53.988C144.066 55.388 145.666 66.488 149.166 68.088C147.566 59.988 153.066 57.388 153.066 57.388C163.266 57.288 166.866 69.388 166.166 72.588C166.166 72.588 177.566 62.388 167.866 53.688V53.688Z" fill="#262BA1"/>
<path d="M165.065 63.088C164.565 63.088 163.765 63.288 163.065 63.788C163.465 65.388 164.565 67.888 165.065 69.188C166.165 68.788 167.465 66.988 167.465 65.888C167.565 64.588 166.265 63.088 165.065 63.088V63.088Z" fill="#ACC7FB"/>
<path d="M167.965 50.9881C167.365 50.5881 166.766 50.4881 166.266 50.5881C164.966 50.6881 164.065 51.6881 164.065 51.6881C167.165 52.6881 169.766 55.5881 169.766 55.5881C170.366 53.9881 170.365 52.3881 167.965 50.9881Z" fill="#141633"/>
<path d="M130.265 154.088C129.565 153.888 128.965 153.588 128.865 154.488C128.765 155.088 131.066 156.088 131.666 155.988C132.966 155.388 132.665 154.588 133.965 154.288C132.765 154.388 131.465 154.288 130.265 154.088V154.088Z" fill="#ACC7FB"/>
<path d="M134.966 153.888C133.666 154.288 132.266 154.788 130.966 155.388C129.366 156.088 126.066 157.988 125.766 158.088C125.066 158.488 123.266 159.388 122.866 159.888C122.566 160.188 122.266 161.288 122.366 161.788C122.466 162.388 123.266 162.488 123.266 162.488C123.266 163.288 125.366 162.888 125.266 163.088C125.066 163.888 126.166 164.388 128.766 162.888C128.966 162.788 136.066 160.188 138.266 159.188C137.866 157.688 135.066 153.888 134.966 153.888Z" fill="#ACC7FB"/>
<path d="M169.065 91.488C167.665 98.088 167.666 119.188 166.166 129.788C164.366 142.788 174.065 139.388 175.865 135.688C180.665 125.788 187.965 97.8879 185.265 94.1879C183.865 92.2879 169.365 90.288 169.065 91.488V91.488Z" fill="#ACC7FB"/>
<path d="M167.266 90.6879C164.666 94.6879 166.066 107.788 164.666 118.188C168.866 120.588 176.866 122.388 183.266 121.688C186.866 109.788 187.666 98.7879 186.666 95.0879C184.066 85.5879 170.566 85.4879 167.266 90.6879Z" fill="#262BA1"/>
<path d="M170.365 129.188C169.865 129.288 169.365 129.488 169.065 129.688C162.765 133.388 141.765 151.288 134.565 154.088C135.965 156.188 136.965 157.988 137.465 159.588C149.265 154.688 177.165 139.188 176.565 134.088C176.065 129.388 172.665 128.688 170.365 129.188Z" fill="#ACC7FB"/>
<path d="M192.196 304.69C191.301 305 187.921 305.621 186.629 305.207C186.53 304.69 186.629 303.966 186.231 303.241C185.436 303.034 183.846 302 182.952 302C183.349 303.655 184.243 312.345 182.752 313.793C180.863 315.448 177.086 315.759 176.49 315.759C173.507 315.966 172.911 317.724 173.01 318.448C173.11 319.586 173.804 320 174.699 320C178.378 319.793 186.729 319.172 189.314 319.069C190.905 318.966 192.494 319.069 193.687 317.414C194.085 316.793 194.086 315.862 193.788 314.931C193.191 313.897 192.395 307.276 192.196 304.69Z" fill="#2A4AAE"/>
</g>
</g>
<defs>
<linearGradient id="paint0_linear" x1="141.019" y1="328.765" x2="12.6279" y2="11.0544" gradientUnits="userSpaceOnUse">
<stop stop-color="#EEECEC" stop-opacity="0.56"/>
<stop offset="1" stop-color="#F3F3F3" stop-opacity="0.35"/>
</linearGradient>
<radialGradient id="paint1_radial" cx="0" cy="0" r="1" gradientUnits="userSpaceOnUse" gradientTransform="translate(32.0267 16.1262) rotate(60.4122) scale(49.7327 45.049)">
<stop stop-color="#FFE5B6"/>
<stop offset="1" stop-color="#FFCE76" stop-opacity="0.35"/>
</radialGradient>
<linearGradient id="paint2_linear" x1="33.6817" y1="9.53405" x2="39.1151" y2="14.9675" gradientUnits="userSpaceOnUse">
<stop stop-color="white"/>
<stop offset="0.0390585" stop-color="#F3F3F3"/>
<stop offset="0.3989" stop-color="#8D8D8D"/>
<stop offset="0.6885" stop-color="#414141"/>
<stop offset="0.8938" stop-color="#121212"/>
<stop offset="0.9961"/>
<stop offset="1"/>
</linearGradient>
<linearGradient id="paint3_linear" x1="35.9343" y1="13.1012" x2="42.867" y2="20.0338" gradientUnits="userSpaceOnUse">
<stop stop-color="white"/>
<stop offset="0.0390585" stop-color="#F3F3F3"/>
<stop offset="0.3989" stop-color="#8D8D8D"/>
<stop offset="0.6885" stop-color="#414141"/>
<stop offset="0.8938" stop-color="#121212"/>
<stop offset="0.9961"/>
<stop offset="1"/>
</linearGradient>
<linearGradient id="paint4_linear" x1="21.7594" y1="12.5128" x2="28.7454" y2="19.4988" gradientUnits="userSpaceOnUse">
<stop stop-color="white"/>
<stop offset="0.0390585" stop-color="#F3F3F3"/>
<stop offset="0.3989" stop-color="#8D8D8D"/>
<stop offset="0.6885" stop-color="#414141"/>
<stop offset="0.8938" stop-color="#121212"/>
<stop offset="0.9961"/>
<stop offset="1"/>
</linearGradient>
<linearGradient id="paint5_linear" x1="26.6663" y1="14.5609" x2="34.6945" y2="22.5892" gradientUnits="userSpaceOnUse">
<stop stop-color="white"/>
<stop offset="0.0390585" stop-color="#F3F3F3"/>
<stop offset="0.3989" stop-color="#8D8D8D"/>
<stop offset="0.6885" stop-color="#414141"/>
<stop offset="0.8938" stop-color="#121212"/>
<stop offset="0.9961"/>
<stop offset="1"/>
</linearGradient>
<linearGradient id="paint6_linear" x1="39.4552" y1="59.4084" x2="39.4552" y2="36.997" gradientUnits="userSpaceOnUse">
<stop/>
<stop offset="0.003922"/>
<stop offset="0.1062" stop-color="#121212"/>
<stop offset="0.3115" stop-color="#414141"/>
<stop offset="0.6011" stop-color="#8D8D8D"/>
<stop offset="0.9609" stop-color="#F3F3F3"/>
<stop offset="1" stop-color="white"/>
</linearGradient>
<linearGradient id="paint7_linear" x1="48.1596" y1="59.4084" x2="48.1596" y2="36.997" gradientUnits="userSpaceOnUse">
<stop/>
<stop offset="0.003922"/>
<stop offset="0.1062" stop-color="#121212"/>
<stop offset="0.3115" stop-color="#414141"/>
<stop offset="0.6011" stop-color="#8D8D8D"/>
<stop offset="0.9609" stop-color="#F3F3F3"/>
<stop offset="1" stop-color="white"/>
</linearGradient>
<clipPath id="clip0">
<rect width="249" height="320" fill="white"/>
</clipPath>
<clipPath id="clip1">
<rect width="249" height="323" fill="white"/>
</clipPath>
</defs>
</svg>
