<svg fill="none" viewBox="0 0 620 390" xmlns="http://www.w3.org/2000/svg" xmlns:xlink="http://www.w3.org/1999/xlink"><filter id="a" color-interpolation-filters="sRGB" filterUnits="userSpaceOnUse" height="16.5908" width="488.591" x="66.2046" y="350.205"><feFlood flood-opacity="0" result="BackgroundImageFix"/><feBlend in="SourceGraphic" in2="BackgroundImageFix" mode="normal" result="shape"/><feGaussianBlur result="effect1_foregroundBlur" stdDeviation="3.3977"/></filter><filter id="b" color-interpolation-filters="sRGB" filterUnits="userSpaceOnUse" height="14.7912" width="488.791" x="21.2046" y="354.112"><feFlood flood-opacity="0" result="BackgroundImageFix"/><feBlend in="SourceGraphic" in2="BackgroundImageFix" mode="normal" result="shape"/><feGaussianBlur result="effect1_foregroundBlur" stdDeviation="3.3977"/></filter><filter id="c" color-interpolation-filters="sRGB" filterUnits="userSpaceOnUse" height="14.7912" width="488.791" x="105.205" y="354.112"><feFlood flood-opacity="0" result="BackgroundImageFix"/><feBlend in="SourceGraphic" in2="BackgroundImageFix" mode="normal" result="shape"/><feGaussianBlur result="effect1_foregroundBlur" stdDeviation="3.3977"/></filter><filter id="d" color-interpolation-filters="sRGB" filterUnits="userSpaceOnUse" height="68.0305" width="533.019" x="43.4903" y="326.391"><feFlood flood-opacity="0" result="BackgroundImageFix"/><feBlend in="SourceGraphic" in2="BackgroundImageFix" mode="normal" result="shape"/><feGaussianBlur result="effect1_foregroundBlur" stdDeviation="8.15485"/></filter><filter id="e" color-interpolation-filters="sRGB" filterUnits="userSpaceOnUse" height="364" width="539" x="41" y="1"><feFlood flood-opacity="0" result="BackgroundImageFix"/><feColorMatrix in="SourceAlpha" type="matrix" values="0 0 0 0 0 0 0 0 0 0 0 0 0 0 0 0 0 0 127 0"/><feOffset dy="1"/><feColorMatrix type="matrix" values="0 0 0 0 0.130051 0 0 0 0 0.186328 0 0 0 0 0.270742 0 0 0 0.2 0"/><feBlend in2="BackgroundImageFix" mode="normal" result="effect1_dropShadow"/><feColorMatrix in="SourceAlpha" type="matrix" values="0 0 0 0 0 0 0 0 0 0 0 0 0 0 0 0 0 0 127 0"/><feOffset dy="-4"/><feGaussianBlur stdDeviation="8.5"/><feColorMatrix type="matrix" values="0 0 0 0 0 0 0 0 0 0 0 0 0 0 0 0 0 0 0.03 0"/><feBlend in2="effect1_dropShadow" mode="normal" result="effect2_dropShadow"/><feBlend in="SourceGraphic" in2="effect2_dropShadow" mode="normal" result="shape"/></filter><linearGradient id="f" gradientUnits="userSpaceOnUse" x1="464.205" x2="0" y1=".034091" y2=".034091"><stop offset="0" stop-opacity=".01"/><stop offset=".142119"/><stop offset=".490956"/><stop offset=".852713"/><stop offset="1" stop-opacity=".01"/></linearGradient><linearGradient id="g"><stop offset="0" stop-color="#fff" stop-opacity=".01"/><stop offset=".852713"/><stop offset="1" stop-opacity=".01"/></linearGradient><linearGradient id="h" gradientUnits="userSpaceOnUse" x1="492.4" x2="28" xlink:href="#g" y1="360.921" y2="360.921"/><linearGradient id="i" gradientUnits="userSpaceOnUse" x1="464.4" x2="0" xlink:href="#g" y1=".013641" y2=".013641"/><linearGradient id="j" gradientUnits="userSpaceOnUse" x1="-27.239" x2="11.5308" y1="51.135" y2="381.904"><stop offset="0" stop-color="#f4f7fa"/><stop offset="1" stop-color="#eceef1"/></linearGradient><linearGradient id="k" gradientUnits="userSpaceOnUse" x1="10" x2="610" y1="351" y2="351"><stop offset="0" stop-color="#c9cccf"/><stop offset=".0295" stop-color="#d9dee3"/><stop offset=".0910352" stop-color="#f1f4f7"/><stop offset=".195602" stop-color="#e1e5e9"/><stop offset=".276977" stop-color="#d9dbde"/><stop offset=".4045" stop-color="#d6d8db"/><stop offset=".5945" stop-color="#d6d8db"/><stop offset=".66626" stop-color="#d9dbde"/><stop offset=".740883" stop-color="#e1e5e9"/><stop offset=".8755" stop-color="#f1f4f7"/><stop offset=".9725" stop-color="#d9dee3"/><stop offset="1" stop-color="#c9cccf"/></linearGradient><linearGradient id="l" gradientUnits="userSpaceOnUse" x1="257" x2="364" y1="352" y2="352"><stop offset="0" stop-color="#afb2b6"/><stop offset=".0218245" stop-color="#c9cbce"/><stop offset=".0660112" stop-color="#d8dbde"/><stop offset=".129038" stop-color="#edeeef"/><stop offset=".332443" stop-color="#f0f1f2"/><stop offset=".514133" stop-color="#eeeff0"/><stop offset=".730491" stop-color="#eeeff0"/><stop offset=".935393" stop-color="#d8dbde"/><stop offset=".977001" stop-color="#c9cbce"/><stop offset="1" stop-color="#afb2b6"/></linearGradient><linearGradient id="m" gradientUnits="userSpaceOnUse" x1="11" x2="11" y1="352" y2="360"><stop offset="0" stop-color="#f1f3f5"/><stop offset="1" stop-color="#a9adb1"/></linearGradient><linearGradient id="n" gradientUnits="userSpaceOnUse" x1="11" x2="11" y1="352" y2="360"><stop offset="0" stop-color="#d6d9dc"/><stop offset="1" stop-color="#b0b4b7"/></linearGradient><mask id="o" height="390" maskUnits="userSpaceOnUse" width="620" x="0" y="0"><path clip-rule="evenodd" d="m620 0h-620v390h620zm-81 44.9993h-456v285.0037h456z" fill="#fff" fill-rule="evenodd"/></mask><g mask="url(#o)"><g filter="url(#a)" opacity=".8"><path d="m0 0h475v3h-475z" fill="url(#f)" transform="matrix(1 0 0 -1 73 360)"/></g><g filter="url(#b)"><path d="m28 360.907h475.2v1.20038h-475.2z" fill="url(#h)"/></g><g filter="url(#c)"><path d="m0 0h475.2v1.20038h-475.2z" fill="url(#i)" transform="matrix(-1 0 0 1 587.2 360.907)"/></g><g filter="url(#d)" opacity=".05"><rect fill="#000" height="35.4111" rx="17.7056" width="500.4" x="59.8" y="342.701"/></g><g filter="url(#e)"><rect fill="url(#j)" height="330" rx="15.6" width="505" x="58" y="22"/></g><path d="m10 349h600v4h-600z" fill="url(#k)"/><path d="m257 349h107c0 1.657-1.343 3-3 3h-101c-1.657 0-3-1.343-3-3z" fill="url(#l)"/><path d="m257 349h107c0 1.657-1.343 3-3 3h-101c-1.657 0-3-1.343-3-3z" fill="#fff"/><path clip-rule="evenodd" d="m106 360c-81.5759 0-95-7-95-7l300-1 298 1s-13.386 7-95 7h-203z" fill="url(#m)" fill-rule="evenodd"/><path d="m11 353-.001-.3-.1377.566zm300-1 .001-.3h-.002zm298 1 .139.266-.138-.566zm-598 0c-.1387.266-.1383.266-.1379.266.0002.001.0007.001.0011.001.0008 0 .0019.001.0031.002.0026.001.0059.003.0101.005.0085.004.0203.01.0359.017.0311.015.0769.036.139.063.1243.054.3139.131.5823.229.5367.195 1.389.471 2.6633.801 2.5483.66 6.7883 1.537 13.5737 2.414 13.5703 1.752 37.3342 3.502 78.1294 3.502v-.6c-40.7807 0-64.5168-1.75-78.0525-3.498-6.7677-.873-10.9821-1.746-13.5001-2.399-1.2589-.326-2.0926-.596-2.6087-.784-.258-.094-.4364-.167-.5487-.216-.0561-.024-.0956-.042-.1203-.054-.0123-.006-.0209-.01-.026-.013-.0026-.001-.0043-.002-.0051-.002-.0004 0-.0006 0-.0006 0h.0002c.0002 0 .0005 0-.1382.266zm299.999-1.3-300 1 .002.6 300-1zm0 .6 298 1 .002-.6-298-1zm298.001.7c-.139-.266-.139-.266-.139-.266h.001-.001c-.001.001-.002.001-.005.003-.005.002-.014.006-.026.012-.024.012-.064.03-.12.054-.112.049-.29.122-.547.216-.515.188-1.348.458-2.605.784-2.515.653-6.726 1.526-13.491 2.399-13.531 1.748-37.267 3.498-78.067 3.498v.6c40.814 0 64.578-1.75 78.144-3.502 6.783-.877 11.019-1.754 13.565-2.414 1.272-.33 2.123-.606 2.659-.801.268-.098.457-.175.581-.229.062-.027.108-.048.139-.063.016-.007.027-.013.036-.017.004-.003.007-.004.01-.006.001 0 .002-.001.003-.001s.001-.001.001-.001c.001 0 .001 0-.138-.266zm-95 6.7h-203v.6h203zm-408 .6h205v-.6h-205z" fill="url(#n)"/></g></svg>