<svg fill="none" height="300" viewBox="0 0 1300 300" width="1300" xmlns="http://www.w3.org/2000/svg"><g fill="#272ca3"><path d="m434.296 144.096c0 28.8-22.752 43.776-44.352 43.776-24.192 0-43.2-16.992-43.2-43.776s19.008-45.216 43.2-45.216c23.904 0 44.352 16.704 44.352 45.216zm26.208-56.16c0-7.2-5.76-13.248-13.248-13.248-7.2 0-12.96 6.048-12.96 13.248v9.216c-8.64-15.264-28.224-23.904-46.944-23.904-36.864 0-67.392 27.936-67.392 70.56s30.528 69.696 67.392 69.696c18.72 0 38.304-7.488 46.944-23.04v73.152c0 7.2 5.76 13.248 12.96 13.248 7.488 0 13.248-6.048 13.248-13.248z"/><path d="m595.128 198.816c0 7.2 5.76 13.248 13.248 13.248 7.2 0 12.96-6.048 12.96-13.248v-110.88c0-7.2-5.76-13.248-12.96-13.248-7.488 0-13.248 6.048-13.248 13.248v60.768c0 28.512-19.008 39.168-38.016 39.168-18.432 0-29.664-13.248-29.664-35.712v-64.224c0-7.2-5.76-13.248-12.96-13.248-7.488 0-13.248 6.048-13.248 13.248v65.952c0 37.728 18.432 59.616 51.84 59.616 14.688 0 33.984-6.912 42.048-23.04z"/><path d="m681.137 132.864c3.168-22.464 20.448-36 42.624-36 21.6 0 37.728 13.536 40.896 36zm109.44 10.08c0-42.624-28.512-69.696-66.816-69.696s-68.832 27.072-68.832 69.696 30.528 70.56 68.832 70.56c21.888 0 42.048-8.064 55.008-24.768 4.032-4.608 2.88-12.384-2.304-16.416-5.184-3.744-12.672-2.016-17.568 3.456-9.216 10.08-18.144 14.112-34.272 14.112-22.752 0-40.32-14.112-43.488-36.576h99.072c5.472 0 10.368-4.32 10.368-10.368z"/><path d="m830.285 98.304v100.512c0 7.2 5.76 13.248 12.96 13.248 7.488 0 13.248-6.048 13.248-13.248v-100.512h19.008c6.048 0 11.232-4.896 11.232-10.944 0-6.336-5.184-11.232-11.232-11.232h-19.008v-38.88c0-7.2-5.76-13.248-13.248-13.248-7.2 0-12.96 6.048-12.96 13.248v38.88h-14.4c-6.048 0-11.232 4.896-11.232 10.944 0 6.336 5.184 11.232 11.232 11.232z"/><path d="m927.793 132.864c3.168-22.464 20.448-36 42.624-36 21.6 0 37.723 13.536 40.893 36zm109.437 10.08c0-42.624-28.51-69.696-66.813-69.696-38.304 0-68.832 27.072-68.832 69.696s30.528 70.56 68.832 70.56c21.888 0 42.043-8.064 55.013-24.768 4.03-4.608 2.88-12.384-2.31-16.416-5.18-3.744-12.67-2.016-17.57 3.456-9.213 10.08-18.141 14.112-34.269 14.112-22.752 0-40.32-14.112-43.488-36.576h99.077c5.47 0 10.36-4.32 10.36-10.368z"/><path d="m1096.24 136.896-39.46 55.008c-4.03 5.76-3.17 13.824 2.59 17.856s13.54 2.592 17.57-3.168l34.85-51.264 34.85 51.264c4.03 5.76 11.8 7.2 17.56 3.168s6.63-12.096 2.6-17.856l-39.75-55.008 30.53-42.048c3.75-5.76 2.88-13.824-2.88-17.856-6.05-4.032-13.82-2.592-17.57 3.168l-25.34 37.728-25.35-37.728c-3.74-5.76-11.52-7.2-17.56-3.168-5.76 4.032-6.63 12.096-2.88 17.856z"/><path d="m1208.28 98.304v100.512c0 7.2 5.76 13.248 12.96 13.248 7.49 0 13.25-6.048 13.25-13.248v-100.512h19.01c6.05 0 11.23-4.896 11.23-10.944 0-6.336-5.18-11.232-11.23-11.232h-19.01v-38.88c0-7.2-5.76-13.248-13.25-13.248-7.2 0-12.96 6.048-12.96 13.248v38.88h-14.4c-6.04 0-11.23 4.896-11.23 10.944 0 6.336 5.19 11.232 11.23 11.232z"/></g><rect fill="#ff5a5f" height="31.1362" rx="10" width="98.2404" x="135.637" y="155.222"/><rect fill="#272ca3" height="31.1362" rx="10" width="141.37" x="35" y="204.521"/><path d="m233.877 72.1921c0-5.1935 0-7.7902-.941-9.8032-.993-2.1237-2.7-3.831-4.824-4.8238-2.013-.9411-4.61-.9411-9.803-.9411h-117.423c-5.1931 0-7.7899 0-9.8029.9411-2.1236.9928-3.8309 2.7001-4.8238 4.8238-.9411 2.013-.9411 4.6097-.9411 9.8032s0 7.7902.9411 9.8032c.9929 2.1237 2.7002 3.831 4.8238 4.8238 2.013.9411 4.6098.9411 9.8029.9411h117.423c5.193 0 7.79 0 9.803-.9411 2.124-.9928 3.831-2.7001 4.824-4.8238.941-2.013.941-4.6097.941-9.8032z" fill="#272ca3"/><rect fill="#42ba96" height="31.1362" rx="10" width="129.39" x="35" y="105.923"/></svg>